<?xml version="1.0" encoding="UTF-8" standalone="no"?>
<!DOCTYPE svg PUBLIC "-//W3C//DTD SVG 1.1//EN"
 "http://www.w3.org/Graphics/SVG/1.1/DTD/svg11.dtd">
<!-- Generated by graphviz version 15.0.0 (20260523.1842)
 -->
<!-- Title: BitAbstractArchiveHandler Pages: 1 -->
<svg width="845pt" height="463pt"
 viewBox="0.00 0.00 845.00 463.00" xmlns="http://www.w3.org/2000/svg" xmlns:xlink="http://www.w3.org/1999/xlink">
<g id="graph0" class="graph" transform="scale(1 1) rotate(0) translate(4 459)">
<title>BitAbstractArchiveHandler</title>
<!-- Node1 -->
<g id="Node000001" class="node">
<title>Node1</title>
<g id="a_Node000001"><a xlink:title="Abstract class representing a generic archive handler.">
<polygon fill="#999999" stroke="#666666" points="131.5,-217 0,-217 0,-197 131.5,-197 131.5,-217"/>
<text xml:space="preserve" text-anchor="middle" x="65.75" y="-203.5" font-family="Helvetica,sans-Serif" font-size="10.00">BitAbstractArchiveHandler</text>
</a>
</g>
</g>
<!-- Node2 -->
<g id="Node000002" class="node">
<title>Node2</title>
<g id="a_Node000002"><a xlink:href="classbit7z_1_1_bit_abstract_archive_creator.html" target="_top" xlink:title="Abstract class representing a generic archive creator.">
<polygon fill="white" stroke="#666666" points="298.5,-367 168.5,-367 168.5,-347 298.5,-347 298.5,-367"/>
<text xml:space="preserve" text-anchor="middle" x="233.5" y="-353.5" font-family="Helvetica,sans-Serif" font-size="10.00">BitAbstractArchiveCreator</text>
</a>
</g>
</g>
<!-- Node1&#45;&gt;Node2 -->
<g id="edge1_Node000001_Node000002" class="edge">
<title>Node1&#45;&gt;Node2</title>
<g id="a_edge1_Node000001_Node000002"><a xlink:title=" ">
<path fill="none" stroke="#63b8ff" d="M86.59,-224.95C121.57,-256.61 193.15,-321.39 221.03,-346.62"/>
<polygon fill="#63b8ff" stroke="#63b8ff" points="89.03,-222.44 79.26,-218.33 84.33,-227.63 89.03,-222.44"/>
</a>
</g>
</g>
<!-- Node10 -->
<g id="Node000010" class="node">
<title>Node10</title>
<g id="a_Node000010"><a xlink:href="classbit7z_1_1_bit_abstract_archive_opener.html" target="_top" xlink:title="The BitAbstractArchiveOpener abstract class represents a generic archive opener.">
<polygon fill="white" stroke="#666666" points="298.12,-124 168.88,-124 168.88,-104 298.12,-104 298.12,-124"/>
<text xml:space="preserve" text-anchor="middle" x="233.5" y="-110.5" font-family="Helvetica,sans-Serif" font-size="10.00">BitAbstractArchiveOpener</text>
</a>
</g>
</g>
<!-- Node1&#45;&gt;Node10 -->
<g id="edge12_Node000001_Node000010" class="edge">
<title>Node1&#45;&gt;Node10</title>
<g id="a_edge12_Node000001_Node000010"><a xlink:title=" ">
<path fill="none" stroke="#63b8ff" d="M95.23,-191.02C129.19,-171.96 184.99,-140.66 213.88,-124.45"/>
<polygon fill="#63b8ff" stroke="#63b8ff" points="93.77,-187.83 86.76,-195.77 97.2,-193.93 93.77,-187.83"/>
</a>
</g>
</g>
<!-- Node3 -->
<g id="Node000003" class="node">
<title>Node3</title>
<g id="a_Node000003"><a xlink:href="classbit7z_1_1_bit_compressor.html" target="_top" xlink:title=" ">
<polygon fill="white" stroke="#666666" points="702.75,-267 588.5,-267 588.5,-235 702.75,-235 702.75,-267"/>
<text xml:space="preserve" text-anchor="start" x="596.5" y="-253.5" font-family="Helvetica,sans-Serif" font-size="10.00">BitCompressor&lt; const</text>
<text xml:space="preserve" text-anchor="middle" x="645.62" y="-241.5" font-family="Helvetica,sans-Serif" font-size="10.00"> buffer_t &amp; &gt;</text>
</a>
</g>
</g>
<!-- Node2&#45;&gt;Node3 -->
<g id="edge2_Node000002_Node000003" class="edge">
<title>Node2&#45;&gt;Node3</title>
<g id="a_edge2_Node000002_Node000003"><a xlink:title=" ">
<path fill="none" stroke="#63b8ff" d="M258.77,-340.24C278.67,-327.08 307.97,-309.03 335.5,-297 395.81,-270.66 412.48,-265.21 477.5,-255 514.06,-249.26 555.65,-248.25 588.2,-248.67"/>
<polygon fill="#63b8ff" stroke="#63b8ff" points="256.88,-337.3 250.53,-345.78 260.78,-343.11 256.88,-337.3"/>
</a>
</g>
</g>
<!-- Node4 -->
<g id="Node000004" class="node">
<title>Node4</title>
<g id="a_Node000004"><a xlink:title=" ">
<polygon fill="white" stroke="#666666" points="697.5,-406 593.75,-406 593.75,-374 697.5,-374 697.5,-406"/>
<text xml:space="preserve" text-anchor="start" x="601.75" y="-392.5" font-family="Helvetica,sans-Serif" font-size="10.00">BitCompressor&lt; std</text>
<text xml:space="preserve" text-anchor="middle" x="645.62" y="-380.5" font-family="Helvetica,sans-Serif" font-size="10.00">::istream &amp; &gt;</text>
</a>
</g>
</g>
<!-- Node2&#45;&gt;Node4 -->
<g id="edge3_Node000002_Node000004" class="edge">
<title>Node2&#45;&gt;Node4</title>
<g id="a_edge3_Node000002_Node000004"><a xlink:title=" ">
<path fill="none" stroke="#63b8ff" d="M271.62,-371.05C285.5,-375.7 301.53,-380.35 316.5,-383 413.14,-400.11 528.29,-397.37 593.28,-393.74"/>
<polygon fill="#63b8ff" stroke="#63b8ff" points="273.04,-367.84 262.44,-367.86 270.74,-374.45 273.04,-367.84"/>
</a>
</g>
</g>
<!-- Node5 -->
<g id="Node000005" class="node">
<title>Node5</title>
<g id="a_Node000005"><a xlink:href="classbit7z_1_1_bit_compressor.html" target="_top" xlink:title=" ">
<polygon fill="white" stroke="#666666" points="702.75,-335 588.5,-335 588.5,-303 702.75,-303 702.75,-335"/>
<text xml:space="preserve" text-anchor="start" x="596.5" y="-321.5" font-family="Helvetica,sans-Serif" font-size="10.00">BitCompressor&lt; const</text>
<text xml:space="preserve" text-anchor="middle" x="645.62" y="-309.5" font-family="Helvetica,sans-Serif" font-size="10.00"> tstring &amp; &gt;</text>
</a>
</g>
</g>
<!-- Node2&#45;&gt;Node5 -->
<g id="edge4_Node000002_Node000005" class="edge">
<title>Node2&#45;&gt;Node5</title>
<g id="a_edge4_Node000002_Node000005"><a xlink:title=" ">
<path fill="none" stroke="#63b8ff" d="M304.51,-369.05C373.46,-378.37 481.11,-386.05 570.5,-362 589.75,-356.82 609.16,-345.28 623.28,-335.46"/>
<polygon fill="#63b8ff" stroke="#63b8ff" points="305.26,-365.62 294.87,-367.69 304.28,-372.55 305.26,-365.62"/>
</a>
</g>
</g>
<!-- Node7 -->
<g id="Node000007" class="node">
<title>Node7</title>
<g id="a_Node000007"><a xlink:href="classbit7z_1_1_bit_archive_writer.html" target="_top" xlink:title="The BitArchiveWriter class allows creating new archives or updating old ones with new items.">
<polygon fill="white" stroke="#666666" points="440.75,-455 354.25,-455 354.25,-435 440.75,-435 440.75,-455"/>
<text xml:space="preserve" text-anchor="middle" x="397.5" y="-441.5" font-family="Helvetica,sans-Serif" font-size="10.00">BitArchiveWriter</text>
</a>
</g>
</g>
<!-- Node2&#45;&gt;Node7 -->
<g id="edge6_Node000002_Node000007" class="edge">
<title>Node2&#45;&gt;Node7</title>
<g id="a_edge6_Node000002_Node000007"><a xlink:title=" ">
<path fill="none" stroke="#63b8ff" d="M253.04,-374.78C268.81,-389.04 292.63,-408.66 316.5,-421 328.09,-426.99 341.42,-431.74 353.83,-435.37"/>
<polygon fill="#63b8ff" stroke="#63b8ff" points="255.57,-372.35 245.86,-368.12 250.81,-377.49 255.57,-372.35"/>
</a>
</g>
</g>
<!-- Node9 -->
<g id="Node000009" class="node">
<title>Node9</title>
<g id="a_Node000009"><a xlink:href="classbit7z_1_1_bit_compressor.html" target="_top" xlink:title="The BitCompressor template class allows compressing files into archives.">
<polygon fill="white" stroke="#666666" points="458,-326 337,-326 337,-306 458,-306 458,-326"/>
<text xml:space="preserve" text-anchor="middle" x="397.5" y="-312.5" font-family="Helvetica,sans-Serif" font-size="10.00">BitCompressor&lt; Input &gt;</text>
</a>
</g>
</g>
<!-- Node2&#45;&gt;Node9 -->
<g id="edge8_Node000002_Node000009" class="edge">
<title>Node2&#45;&gt;Node9</title>
<g id="a_edge8_Node000002_Node000009"><a xlink:title=" ">
<path fill="none" stroke="#63b8ff" d="M286.73,-343.78C308.93,-338.16 334.44,-331.71 355.28,-326.43"/>
<polygon fill="#63b8ff" stroke="#63b8ff" points="286.1,-340.33 277.27,-346.18 287.82,-347.12 286.1,-340.33"/>
</a>
</g>
</g>
<!-- Node6 -->
<g id="Node000006" class="node">
<title>Node6</title>
<g id="a_Node000006"><a xlink:href="classbit7z_1_1_bit_file_compressor.html" target="_top" xlink:title="The BitFileCompressor class allows compressing files and directories.">
<polygon fill="white" stroke="#666666" points="836.75,-329 739.75,-329 739.75,-309 836.75,-309 836.75,-329"/>
<text xml:space="preserve" text-anchor="middle" x="788.25" y="-315.5" font-family="Helvetica,sans-Serif" font-size="10.00">BitFileCompressor</text>
</a>
</g>
</g>
<!-- Node5&#45;&gt;Node6 -->
<g id="edge5_Node000005_Node000006" class="edge">
<title>Node5&#45;&gt;Node6</title>
<g id="a_edge5_Node000005_Node000006"><a xlink:title=" ">
<path fill="none" stroke="#63b8ff" d="M714.45,-319C722.9,-319 731.39,-319 739.44,-319"/>
<polygon fill="#63b8ff" stroke="#63b8ff" points="714.53,-315.5 704.53,-319 714.53,-322.5 714.53,-315.5"/>
</a>
</g>
</g>
<!-- Node8 -->
<g id="Node000008" class="node">
<title>Node8</title>
<g id="a_Node000008"><a xlink:href="classbit7z_1_1_bit_archive_editor.html" target="_top" xlink:title="The BitArchiveEditor class allows creating new file archives or updating old ones.">
<polygon fill="white" stroke="#666666" points="688.88,-455 602.38,-455 602.38,-435 688.88,-435 688.88,-455"/>
<text xml:space="preserve" text-anchor="middle" x="645.62" y="-441.5" font-family="Helvetica,sans-Serif" font-size="10.00">BitArchiveEditor</text>
</a>
</g>
</g>
<!-- Node7&#45;&gt;Node8 -->
<g id="edge7_Node000007_Node000008" class="edge">
<title>Node7&#45;&gt;Node8</title>
<g id="a_edge7_Node000007_Node000008"><a xlink:title=" ">
<path fill="none" stroke="#63b8ff" d="M452.4,-445C497.4,-445 560.67,-445 602.14,-445"/>
<polygon fill="#63b8ff" stroke="#63b8ff" points="452.6,-441.5 442.6,-445 452.6,-448.5 452.6,-441.5"/>
</a>
</g>
</g>
<!-- Node9&#45;&gt;Node3 -->
<g id="edge9_Node000009_Node000003" class="edge">
<title>Node9&#45;&gt;Node3</title>
<g id="a_edge9_Node000009_Node000003"><a xlink:title=" ">
<path fill="none" stroke="orange" stroke-dasharray="5,2" d="M426.39,-300.14C441.16,-292.38 459.86,-283.54 477.5,-278 513.53,-266.69 555.5,-259.93 588.37,-256"/>
<polygon fill="orange" stroke="orange" points="424.87,-296.99 417.73,-304.82 428.2,-303.15 424.87,-296.99"/>
</a>
</g>
<text xml:space="preserve" text-anchor="start" x="480.5" y="-283.25" font-family="Helvetica,sans-Serif" font-size="10.00" fill="grey">&lt; const buffer_t &amp; &gt;</text>
</g>
<!-- Node9&#45;&gt;Node4 -->
<g id="edge10_Node000009_Node000004" class="edge">
<title>Node9&#45;&gt;Node4</title>
<g id="a_edge10_Node000009_Node000004"><a xlink:title=" ">
<path fill="none" stroke="orange" stroke-dasharray="5,2" d="M444.06,-329.7C486.38,-342.42 549.31,-361.34 593.36,-374.59"/>
<polygon fill="orange" stroke="orange" points="445.28,-326.41 434.69,-326.88 443.26,-333.11 445.28,-326.41"/>
</a>
</g>
<text xml:space="preserve" text-anchor="start" x="484.25" y="-371.31" font-family="Helvetica,sans-Serif" font-size="10.00" fill="grey">&lt; std::istream &amp; &gt;</text>
</g>
<!-- Node9&#45;&gt;Node5 -->
<g id="edge11_Node000009_Node000005" class="edge">
<title>Node9&#45;&gt;Node5</title>
<g id="a_edge11_Node000009_Node000005"><a xlink:title=" ">
<path fill="none" stroke="orange" stroke-dasharray="5,2" d="M466.5,-304.09C470.21,-303.66 473.9,-303.29 477.5,-303 518.7,-299.63 529.4,-298.61 570.5,-303 576.26,-303.61 582.23,-304.49 588.17,-305.52"/>
<polygon fill="orange" stroke="orange" points="466.3,-300.58 456.82,-305.32 467.19,-307.53 466.3,-300.58"/>
</a>
</g>
<text xml:space="preserve" text-anchor="start" x="483.12" y="-308.25" font-family="Helvetica,sans-Serif" font-size="10.00" fill="grey">&lt; const tstring &amp; &gt;</text>
</g>
<!-- Node11 -->
<g id="Node000011" class="node">
<title>Node11</title>
<g id="a_Node000011"><a xlink:href="classbit7z_1_1_bit_extractor.html" target="_top" xlink:title=" ">
<polygon fill="white" stroke="#666666" points="696,-32 595.25,-32 595.25,0 696,0 696,-32"/>
<text xml:space="preserve" text-anchor="start" x="603.25" y="-18.5" font-family="Helvetica,sans-Serif" font-size="10.00">BitExtractor&lt; const</text>
<text xml:space="preserve" text-anchor="middle" x="645.62" y="-6.5" font-family="Helvetica,sans-Serif" font-size="10.00"> tstring &amp; &gt;</text>
</a>
</g>
</g>
<!-- Node10&#45;&gt;Node11 -->
<g id="edge13_Node000010_Node000011" class="edge">
<title>Node10&#45;&gt;Node11</title>
<g id="a_edge13_Node000010_Node000011"><a xlink:title=" ">
<path fill="none" stroke="#63b8ff" d="M249.86,-95.17C267.91,-74.62 299.94,-42.83 335.5,-29 421.86,4.58 532.19,-1.19 594.98,-8.53"/>
<polygon fill="#63b8ff" stroke="#63b8ff" points="247.39,-92.67 243.57,-102.56 252.72,-97.21 247.39,-92.67"/>
</a>
</g>
</g>
<!-- Node12 -->
<g id="Node000012" class="node">
<title>Node12</title>
<g id="a_Node000012"><a xlink:href="classbit7z_1_1_bit_extractor.html" target="_top" xlink:title=" ">
<polygon fill="white" stroke="#666666" points="696,-113 595.25,-113 595.25,-81 696,-81 696,-113"/>
<text xml:space="preserve" text-anchor="start" x="603.25" y="-99.5" font-family="Helvetica,sans-Serif" font-size="10.00">BitExtractor&lt; const</text>
<text xml:space="preserve" text-anchor="middle" x="645.62" y="-87.5" font-family="Helvetica,sans-Serif" font-size="10.00"> buffer_t &amp; &gt;</text>
</a>
</g>
</g>
<!-- Node10&#45;&gt;Node12 -->
<g id="edge14_Node000010_Node000012" class="edge">
<title>Node10&#45;&gt;Node12</title>
<g id="a_edge14_Node000010_Node000012"><a xlink:title=" ">
<path fill="none" stroke="#63b8ff" d="M257.21,-96.95C276.8,-83.32 306.45,-65.18 335.5,-57 436.06,-28.68 469.9,-23.85 570.5,-52 590.51,-57.6 610.48,-70.24 624.65,-80.7"/>
<polygon fill="#63b8ff" stroke="#63b8ff" points="255.25,-94.04 249.16,-102.71 259.33,-99.73 255.25,-94.04"/>
</a>
</g>
</g>
<!-- Node13 -->
<g id="Node000013" class="node">
<title>Node13</title>
<g id="a_Node000013"><a xlink:title=" ">
<polygon fill="white" stroke="#666666" points="693.75,-190 597.5,-190 597.5,-158 693.75,-158 693.75,-190"/>
<text xml:space="preserve" text-anchor="start" x="605.5" y="-176.5" font-family="Helvetica,sans-Serif" font-size="10.00">BitExtractor&lt; std::</text>
<text xml:space="preserve" text-anchor="middle" x="645.62" y="-164.5" font-family="Helvetica,sans-Serif" font-size="10.00">istream &amp; &gt;</text>
</a>
</g>
</g>
<!-- Node10&#45;&gt;Node13 -->
<g id="edge15_Node000010_Node000013" class="edge">
<title>Node10&#45;&gt;Node13</title>
<g id="a_edge15_Node000010_Node000013"><a xlink:title=" ">
<path fill="none" stroke="#63b8ff" d="M257.19,-131.1C276.78,-144.77 306.42,-162.92 335.5,-171 425.35,-195.96 535.63,-188.42 597.22,-181"/>
<polygon fill="#63b8ff" stroke="#63b8ff" points="259.31,-128.32 249.15,-125.32 255.23,-134 259.31,-128.32"/>
</a>
</g>
</g>
<!-- Node14 -->
<g id="Node000014" class="node">
<title>Node14</title>
<g id="a_Node000014"><a xlink:href="classbit7z_1_1_bit_archive_reader.html" target="_top" xlink:title="The BitArchiveReader class allows reading metadata of archives, as well as extracting them.">
<polygon fill="white" stroke="#666666" points="443.75,-162 351.25,-162 351.25,-142 443.75,-142 443.75,-162"/>
<text xml:space="preserve" text-anchor="middle" x="397.5" y="-148.5" font-family="Helvetica,sans-Serif" font-size="10.00">BitArchiveReader</text>
</a>
</g>
</g>
<!-- Node10&#45;&gt;Node14 -->
<g id="edge16_Node000010_Node000014" class="edge">
<title>Node10&#45;&gt;Node14</title>
<g id="a_edge16_Node000010_Node000014"><a xlink:title=" ">
<path fill="none" stroke="#63b8ff" d="M290.13,-127.05C310.32,-131.78 332.84,-137.07 351.95,-141.55"/>
<polygon fill="#63b8ff" stroke="#63b8ff" points="291.2,-123.71 280.67,-124.83 289.61,-130.52 291.2,-123.71"/>
</a>
</g>
</g>
<!-- Node15 -->
<g id="Node000015" class="node">
<title>Node15</title>
<g id="a_Node000015"><a xlink:href="classbit7z_1_1_bit_extractor.html" target="_top" xlink:title="The BitExtractor template class allows extracting the content of archives from supported input types.">
<polygon fill="white" stroke="#666666" points="451.25,-86 343.75,-86 343.75,-66 451.25,-66 451.25,-86"/>
<text xml:space="preserve" text-anchor="middle" x="397.5" y="-72.5" font-family="Helvetica,sans-Serif" font-size="10.00">BitExtractor&lt; Input &gt;</text>
</a>
</g>
</g>
<!-- Node10&#45;&gt;Node15 -->
<g id="edge17_Node000010_Node000015" class="edge">
<title>Node10&#45;&gt;Node15</title>
<g id="a_edge17_Node000010_Node000015"><a xlink:title=" ">
<path fill="none" stroke="#63b8ff" d="M290.13,-100.95C310.32,-96.22 332.84,-90.93 351.95,-86.45"/>
<polygon fill="#63b8ff" stroke="#63b8ff" points="289.61,-97.48 280.67,-103.17 291.2,-104.29 289.61,-97.48"/>
</a>
</g>
</g>
<!-- Node16 -->
<g id="Node000016" class="node">
<title>Node16</title>
<g id="a_Node000016"><a xlink:href="classbit7z_1_1_bit_nested_archive_reader.html" target="_top" xlink:title="The BitNestedArchiveReader class allows reading and extracting nested archives (e....">
<polygon fill="white" stroke="#666666" points="459.5,-124 335.5,-124 335.5,-104 459.5,-104 459.5,-124"/>
<text xml:space="preserve" text-anchor="middle" x="397.5" y="-110.5" font-family="Helvetica,sans-Serif" font-size="10.00">BitNestedArchiveReader</text>
</a>
</g>
</g>
<!-- Node10&#45;&gt;Node16 -->
<g id="edge21_Node000010_Node000016" class="edge">
<title>Node10&#45;&gt;Node16</title>
<g id="a_edge21_Node000010_Node000016"><a xlink:title=" ">
<path fill="none" stroke="#63b8ff" d="M309.92,-114C318.34,-114 326.84,-114 335.05,-114"/>
<polygon fill="#63b8ff" stroke="#63b8ff" points="310.04,-110.5 300.04,-114 310.04,-117.5 310.04,-110.5"/>
</a>
</g>
</g>
<!-- Node15&#45;&gt;Node11 -->
<g id="edge18_Node000015_Node000011" class="edge">
<title>Node15&#45;&gt;Node11</title>
<g id="a_edge18_Node000015_Node000011"><a xlink:title=" ">
<path fill="none" stroke="orange" stroke-dasharray="5,2" d="M452.35,-62.87C494.86,-52.51 553.69,-38.17 595.05,-28.09"/>
<polygon fill="orange" stroke="orange" points="451.73,-59.42 442.84,-65.19 453.39,-66.22 451.73,-59.42"/>
</a>
</g>
<text xml:space="preserve" text-anchor="start" x="483.12" y="-61.84" font-family="Helvetica,sans-Serif" font-size="10.00" fill="grey">&lt; const tstring &amp; &gt;</text>
</g>
<!-- Node15&#45;&gt;Node12 -->
<g id="edge19_Node000015_Node000012" class="edge">
<title>Node15&#45;&gt;Node12</title>
<g id="a_edge19_Node000015_Node000012"><a xlink:title=" ">
<path fill="none" stroke="orange" stroke-dasharray="5,2" d="M462.52,-88.09C467.58,-88.82 472.62,-89.47 477.5,-90 516.76,-94.28 561.48,-95.99 594.77,-96.65"/>
<polygon fill="orange" stroke="orange" points="463.39,-84.68 452.97,-86.62 462.33,-91.6 463.39,-84.68"/>
</a>
</g>
<text xml:space="preserve" text-anchor="start" x="480.5" y="-101.2" font-family="Helvetica,sans-Serif" font-size="10.00" fill="grey">&lt; const buffer_t &amp; &gt;</text>
</g>
<!-- Node15&#45;&gt;Node13 -->
<g id="edge20_Node000015_Node000013" class="edge">
<title>Node15&#45;&gt;Node13</title>
<g id="a_edge20_Node000015_Node000013"><a xlink:title=" ">
<path fill="none" stroke="orange" stroke-dasharray="5,2" d="M453.46,-91.28C455.55,-92.43 457.57,-93.67 459.5,-95 470.18,-102.38 466.9,-110.51 477.5,-118 497.06,-131.82 555.16,-149.67 597.37,-161.46"/>
<polygon fill="orange" stroke="orange" points="455.2,-88.23 444.66,-87.11 452.2,-94.55 455.2,-88.23"/>
</a>
</g>
<text xml:space="preserve" text-anchor="start" x="484.25" y="-158.37" font-family="Helvetica,sans-Serif" font-size="10.00" fill="grey">&lt; std::istream &amp; &gt;</text>
</g>
</g>
</svg>
