<?xml version="1.0" encoding="UTF-8" standalone="no"?>
<!DOCTYPE svg PUBLIC "-//W3C//DTD SVG 1.1//EN"
 "http://www.w3.org/Graphics/SVG/1.1/DTD/svg11.dtd">
<!-- Generated by graphviz version 8.1.0 (20230707.0739)
 -->
<!-- Title: BitAbstractArchiveHandler Pages: 1 -->
<svg width="826pt" height="180pt"
 viewBox="0.00 0.00 826.00 180.00" xmlns="http://www.w3.org/2000/svg" xmlns:xlink="http://www.w3.org/1999/xlink">
<g id="graph0" class="graph" transform="scale(1 1) rotate(0) translate(4 176)">
<title>BitAbstractArchiveHandler</title>
<!-- Node1 -->
<g id="Node000001" class="node">
<title>Node1</title>
<g id="a_Node000001"><a xlink:title="Abstract class representing a generic archive handler.">
<polygon fill="#999999" stroke="#666666" points="129.25,-76 0,-76 0,-56 129.25,-56 129.25,-76"/>
<text text-anchor="middle" x="64.62" y="-62.5" font-family="Helvetica,sans-Serif" font-size="10.00">BitAbstractArchiveHandler</text>
</a>
</g>
</g>
<!-- Node2 -->
<g id="Node000002" class="node">
<title>Node2</title>
<g id="a_Node000002"><a xlink:href="classbit7z_1_1_bit_abstract_archive_creator.html" target="_top" xlink:title="Abstract class representing a generic archive creator.">
<polygon fill="white" stroke="#666666" points="294,-108 166.25,-108 166.25,-88 294,-88 294,-108"/>
<text text-anchor="middle" x="230.12" y="-94.5" font-family="Helvetica,sans-Serif" font-size="10.00">BitAbstractArchiveCreator</text>
</a>
</g>
</g>
<!-- Node1&#45;&gt;Node2 -->
<g id="edge1_Node000001_Node000002" class="edge">
<title>Node1&#45;&gt;Node2</title>
<g id="a_edge1_Node000001_Node000002"><a xlink:title=" ">
<path fill="none" stroke="#63b8ff" d="M129.57,-78.52C144.85,-81.51 161,-84.67 175.75,-87.55"/>
<polygon fill="#63b8ff" stroke="#63b8ff" points="130.65,-74.96 120.16,-76.48 129.3,-81.83 130.65,-74.96"/>
</a>
</g>
</g>
<!-- Node8 -->
<g id="Node000008" class="node">
<title>Node8</title>
<g id="a_Node000008"><a xlink:href="classbit7z_1_1_bit_abstract_archive_opener.html" target="_top" xlink:title="The BitAbstractArchiveOpener abstract class represents a generic archive opener.">
<polygon fill="white" stroke="#666666" points="294,-58 166.25,-58 166.25,-38 294,-38 294,-58"/>
<text text-anchor="middle" x="230.12" y="-44.5" font-family="Helvetica,sans-Serif" font-size="10.00">BitAbstractArchiveOpener</text>
</a>
</g>
</g>
<!-- Node1&#45;&gt;Node8 -->
<g id="edge8_Node000001_Node000008" class="edge">
<title>Node1&#45;&gt;Node8</title>
<g id="a_edge8_Node000001_Node000008"><a xlink:title=" ">
<path fill="none" stroke="#63b8ff" d="M140.12,-57.8C148.73,-56.85 157.45,-55.89 165.89,-54.96"/>
<polygon fill="#63b8ff" stroke="#63b8ff" points="139.86,-54.42 130.31,-58.99 140.63,-61.37 139.86,-54.42"/>
</a>
</g>
</g>
<!-- Node3 -->
<g id="Node000003" class="node">
<title>Node3</title>
<g id="a_Node000003"><a xlink:href="classbit7z_1_1_bit_compressor.html" target="_top" xlink:title=" ">
<polygon fill="white" stroke="#666666" points="684.75,-118 571.25,-118 571.25,-86 684.75,-86 684.75,-118"/>
<text text-anchor="start" x="579.25" y="-104.5" font-family="Helvetica,sans-Serif" font-size="10.00">BitCompressor&lt; const</text>
<text text-anchor="middle" x="628" y="-92.5" font-family="Helvetica,sans-Serif" font-size="10.00"> tstring &amp; &gt;</text>
</a>
</g>
</g>
<!-- Node2&#45;&gt;Node3 -->
<g id="edge2_Node000002_Node000003" class="edge">
<title>Node2&#45;&gt;Node3</title>
<g id="a_edge2_Node000002_Node000003"><a xlink:title=" ">
<path fill="none" stroke="#63b8ff" d="M304.87,-98.75C381.9,-99.52 501.03,-100.73 570.79,-101.43"/>
<polygon fill="#63b8ff" stroke="#63b8ff" points="305.33,-95.24 295.29,-98.64 305.25,-102.24 305.33,-95.24"/>
</a>
</g>
</g>
<!-- Node5 -->
<g id="Node000005" class="node">
<title>Node5</title>
<g id="a_Node000005"><a xlink:href="classbit7z_1_1_bit_archive_writer.html" target="_top" xlink:title="The BitArchiveWriter class allows creating new archives or updating old ones with new items.">
<polygon fill="white" stroke="#666666" points="433.62,-172 347.88,-172 347.88,-152 433.62,-152 433.62,-172"/>
<text text-anchor="middle" x="390.75" y="-158.5" font-family="Helvetica,sans-Serif" font-size="10.00">BitArchiveWriter</text>
</a>
</g>
</g>
<!-- Node2&#45;&gt;Node5 -->
<g id="edge4_Node000002_Node000005" class="edge">
<title>Node2&#45;&gt;Node5</title>
<g id="a_edge4_Node000002_Node000005"><a xlink:title=" ">
<path fill="none" stroke="#63b8ff" d="M262.13,-113.04C281.66,-122.24 307.54,-133.95 331,-143 338.8,-146.01 347.3,-148.95 355.35,-151.58"/>
<polygon fill="#63b8ff" stroke="#63b8ff" points="263.8,-109.48 253.27,-108.35 260.79,-115.8 263.8,-109.48"/>
</a>
</g>
</g>
<!-- Node7 -->
<g id="Node000007" class="node">
<title>Node7</title>
<g id="a_Node000007"><a xlink:href="classbit7z_1_1_bit_compressor.html" target="_top" xlink:title="The BitCompressor template class allows compressing files into archives.">
<polygon fill="white" stroke="#666666" points="450.5,-134 331,-134 331,-114 450.5,-114 450.5,-134"/>
<text text-anchor="middle" x="390.75" y="-120.5" font-family="Helvetica,sans-Serif" font-size="10.00">BitCompressor&lt; Input &gt;</text>
</a>
</g>
</g>
<!-- Node2&#45;&gt;Node7 -->
<g id="edge6_Node000002_Node000007" class="edge">
<title>Node2&#45;&gt;Node7</title>
<g id="a_edge6_Node000002_Node000007"><a xlink:title=" ">
<path fill="none" stroke="#63b8ff" d="M305.08,-110.12C313.66,-111.53 322.33,-112.95 330.68,-114.32"/>
<polygon fill="#63b8ff" stroke="#63b8ff" points="305.71,-106.51 295.27,-108.35 304.58,-113.42 305.71,-106.51"/>
</a>
</g>
</g>
<!-- Node4 -->
<g id="Node000004" class="node">
<title>Node4</title>
<g id="a_Node000004"><a xlink:href="classbit7z_1_1_bit_file_compressor.html" target="_top" xlink:title="The BitFileCompressor class allows compressing files and directories.">
<polygon fill="white" stroke="#666666" points="818,-112 721.75,-112 721.75,-92 818,-92 818,-112"/>
<text text-anchor="middle" x="769.88" y="-98.5" font-family="Helvetica,sans-Serif" font-size="10.00">BitFileCompressor</text>
</a>
</g>
</g>
<!-- Node3&#45;&gt;Node4 -->
<g id="edge3_Node000003_Node000004" class="edge">
<title>Node3&#45;&gt;Node4</title>
<g id="a_edge3_Node000003_Node000004"><a xlink:title=" ">
<path fill="none" stroke="#63b8ff" d="M695.89,-102C704.48,-102 713.13,-102 721.32,-102"/>
<polygon fill="#63b8ff" stroke="#63b8ff" points="696.09,-98.5 686.09,-102 696.09,-105.5 696.09,-98.5"/>
</a>
</g>
</g>
<!-- Node6 -->
<g id="Node000006" class="node">
<title>Node6</title>
<g id="a_Node000006"><a xlink:href="classbit7z_1_1_bit_archive_editor.html" target="_top" xlink:title="The BitArchiveEditor class allows creating new file archives or updating old ones.">
<polygon fill="white" stroke="#666666" points="670.5,-172 585.5,-172 585.5,-152 670.5,-152 670.5,-172"/>
<text text-anchor="middle" x="628" y="-158.5" font-family="Helvetica,sans-Serif" font-size="10.00">BitArchiveEditor</text>
</a>
</g>
</g>
<!-- Node5&#45;&gt;Node6 -->
<g id="edge5_Node000005_Node000006" class="edge">
<title>Node5&#45;&gt;Node6</title>
<g id="a_edge5_Node000005_Node000006"><a xlink:title=" ">
<path fill="none" stroke="#63b8ff" d="M445.03,-162C487.41,-162 545.9,-162 585.01,-162"/>
<polygon fill="#63b8ff" stroke="#63b8ff" points="445.08,-158.5 435.08,-162 445.08,-165.5 445.08,-158.5"/>
</a>
</g>
</g>
<!-- Node7&#45;&gt;Node3 -->
<g id="edge7_Node000007_Node000003" class="edge">
<title>Node7&#45;&gt;Node3</title>
<g id="a_edge7_Node000007_Node000003"><a xlink:title=" ">
<path fill="none" stroke="orange" stroke-dasharray="5,2" d="M461.4,-117.49C496.27,-114.23 537.94,-110.33 570.75,-107.26"/>
<polygon fill="orange" stroke="orange" points="461.44,-114.06 451.81,-118.48 462.09,-121.03 461.44,-114.06"/>
</a>
</g>
<text text-anchor="middle" x="510.88" y="-118.5" font-family="Helvetica,sans-Serif" font-size="10.00" fill="grey"> &lt; const tstring &amp; &gt;</text>
</g>
<!-- Node9 -->
<g id="Node000009" class="node">
<title>Node9</title>
<g id="a_Node000009"><a xlink:href="classbit7z_1_1_bit_archive_reader.html" target="_top" xlink:title="The BitArchiveReader class allows reading metadata of archives, as well as extracting them.">
<polygon fill="white" stroke="#666666" points="435.88,-20 345.62,-20 345.62,0 435.88,0 435.88,-20"/>
<text text-anchor="middle" x="390.75" y="-6.5" font-family="Helvetica,sans-Serif" font-size="10.00">BitArchiveReader</text>
</a>
</g>
</g>
<!-- Node8&#45;&gt;Node9 -->
<g id="edge9_Node000008_Node000009" class="edge">
<title>Node8&#45;&gt;Node9</title>
<g id="a_edge9_Node000008_Node000009"><a xlink:title=" ">
<path fill="none" stroke="#63b8ff" d="M285.33,-35.02C305.16,-30.26 327.33,-24.95 346.13,-20.45"/>
<polygon fill="#63b8ff" stroke="#63b8ff" points="284.8,-31.78 275.89,-37.52 286.43,-38.59 284.8,-31.78"/>
</a>
</g>
</g>
<!-- Node10 -->
<g id="Node000010" class="node">
<title>Node10</title>
<g id="a_Node000010"><a xlink:href="classbit7z_1_1_bit_extractor.html" target="_top" xlink:title="The BitExtractor template class allows extracting the content of archives from supported input types.">
<polygon fill="white" stroke="#666666" points="444.12,-58 337.38,-58 337.38,-38 444.12,-38 444.12,-58"/>
<text text-anchor="middle" x="390.75" y="-44.5" font-family="Helvetica,sans-Serif" font-size="10.00">BitExtractor&lt; Input &gt;</text>
</a>
</g>
</g>
<!-- Node8&#45;&gt;Node10 -->
<g id="edge10_Node000008_Node000010" class="edge">
<title>Node8&#45;&gt;Node10</title>
<g id="a_edge10_Node000008_Node000010"><a xlink:title=" ">
<path fill="none" stroke="#63b8ff" d="M305.01,-48C315.81,-48 326.75,-48 337.02,-48"/>
<polygon fill="#63b8ff" stroke="#63b8ff" points="305.27,-44.5 295.27,-48 305.27,-51.5 305.27,-44.5"/>
</a>
</g>
</g>
</g>
</svg>
