<?xml version="1.0" encoding="UTF-8" standalone="no"?>
<!DOCTYPE svg PUBLIC "-//W3C//DTD SVG 1.1//EN"
 "http://www.w3.org/Graphics/SVG/1.1/DTD/svg11.dtd">
<!-- Generated by graphviz version 7.0.6 (20230106.0513)
 -->
<!-- Title: BitArchiveWriter Pages: 1 -->
<svg width="245pt" height="192pt"
 viewBox="0.00 0.00 244.50 192.00" xmlns="http://www.w3.org/2000/svg" xmlns:xlink="http://www.w3.org/1999/xlink">
<g id="graph0" class="graph" transform="scale(1 1) rotate(0) translate(4 188)">
<title>BitArchiveWriter</title>
<!-- Node1 -->
<g id="node1" class="node">
<title>Node1</title>
<g id="a_node1"><a xlink:title="The BitArchiveWriter class allows creating new archives or updating old ones with new items.">
<polygon fill="#999999" stroke="#666666" points="171,-74 85,-74 85,-55 171,-55 171,-74"/>
<text text-anchor="middle" x="128" y="-62" font-family="Helvetica,sans-Serif" font-size="10.00">BitArchiveWriter</text>
</a>
</g>
</g>
<!-- Node5 -->
<g id="node5" class="node">
<title>Node5</title>
<g id="a_node5"><a xlink:href="classbit7z_1_1_bit_archive_editor.html" target="_top" xlink:title="The BitArchiveEditor class allows creating new file archives or updating old ones.">
<polygon fill="white" stroke="#666666" points="171,-19 85,-19 85,0 171,0 171,-19"/>
<text text-anchor="middle" x="128" y="-7" font-family="Helvetica,sans-Serif" font-size="10.00">BitArchiveEditor</text>
</a>
</g>
</g>
<!-- Node1&#45;&gt;Node5 -->
<g id="edge4" class="edge">
<title>Node1&#45;&gt;Node5</title>
<path fill="none" stroke="#63b8ff" d="M128,-43.35C128,-35.1 128,-25.97 128,-19.44"/>
<polygon fill="#63b8ff" stroke="#63b8ff" points="124.5,-43.23 128,-53.23 131.5,-43.23 124.5,-43.23"/>
</g>
<!-- Node2 -->
<g id="node2" class="node">
<title>Node2</title>
<g id="a_node2"><a xlink:href="classbit7z_1_1_bit_abstract_archive_creator.html" target="_top" xlink:title="Abstract class representing a generic archive creator.">
<polygon fill="white" stroke="#666666" points="129,-129 1,-129 1,-110 129,-110 129,-129"/>
<text text-anchor="middle" x="65" y="-117" font-family="Helvetica,sans-Serif" font-size="10.00">BitAbstractArchiveCreator</text>
</a>
</g>
</g>
<!-- Node2&#45;&gt;Node1 -->
<g id="edge1" class="edge">
<title>Node2&#45;&gt;Node1</title>
<path fill="none" stroke="#63b8ff" d="M84.18,-102.37C95.12,-93.16 108.41,-81.98 117.47,-74.36"/>
<polygon fill="#63b8ff" stroke="#63b8ff" points="82.24,-99.42 76.85,-108.53 86.75,-104.78 82.24,-99.42"/>
</g>
<!-- Node3 -->
<g id="node3" class="node">
<title>Node3</title>
<g id="a_node3"><a xlink:href="classbit7z_1_1_bit_abstract_archive_handler.html" target="_top" xlink:title="Abstract class representing a generic archive handler.">
<polygon fill="white" stroke="#666666" points="130,-184 0,-184 0,-165 130,-165 130,-184"/>
<text text-anchor="middle" x="65" y="-172" font-family="Helvetica,sans-Serif" font-size="10.00">BitAbstractArchiveHandler</text>
</a>
</g>
</g>
<!-- Node3&#45;&gt;Node2 -->
<g id="edge2" class="edge">
<title>Node3&#45;&gt;Node2</title>
<path fill="none" stroke="#63b8ff" d="M65,-153.35C65,-145.1 65,-135.97 65,-129.44"/>
<polygon fill="#63b8ff" stroke="#63b8ff" points="61.5,-153.23 65,-163.23 68.5,-153.23 61.5,-153.23"/>
</g>
<!-- Node4 -->
<g id="node4" class="node">
<title>Node4</title>
<g id="a_node4"><a xlink:href="classbit7z_1_1_bit_output_archive.html" target="_top" xlink:title="The BitOutputArchive class, given a creator object, allows creating new archives.">
<polygon fill="white" stroke="#666666" points="236.5,-129 147.5,-129 147.5,-110 236.5,-110 236.5,-129"/>
<text text-anchor="middle" x="192" y="-117" font-family="Helvetica,sans-Serif" font-size="10.00">BitOutputArchive</text>
</a>
</g>
</g>
<!-- Node4&#45;&gt;Node1 -->
<g id="edge3" class="edge">
<title>Node4&#45;&gt;Node1</title>
<path fill="none" stroke="#63b8ff" d="M172.52,-102.37C161.4,-93.16 147.9,-81.98 138.7,-74.36"/>
<polygon fill="#63b8ff" stroke="#63b8ff" points="170.04,-104.86 179.98,-108.54 174.51,-99.47 170.04,-104.86"/>
</g>
</g>
</svg>
