<?xml version="1.0" encoding="UTF-8" standalone="no"?>
<!DOCTYPE svg PUBLIC "-//W3C//DTD SVG 1.1//EN"
 "http://www.w3.org/Graphics/SVG/1.1/DTD/svg11.dtd">
<!-- Generated by graphviz version 15.0.0 (20260523.1842)
 -->
<!-- Title: BitAbstractArchiveCreator Pages: 1 -->
<svg width="842pt" height="231pt"
 viewBox="0.00 0.00 842.00 231.00" xmlns="http://www.w3.org/2000/svg" xmlns:xlink="http://www.w3.org/1999/xlink">
<g id="graph0" class="graph" transform="scale(1 1) rotate(0) translate(4 227)">
<title>BitAbstractArchiveCreator</title>
<!-- Node1 -->
<g id="Node000001" class="node">
<title>Node1</title>
<g id="a_Node000001"><a xlink:title="Abstract class representing a generic archive creator.">
<polygon fill="#999999" stroke="#666666" points="298.5,-132 168.5,-132 168.5,-112 298.5,-112 298.5,-132"/>
<text xml:space="preserve" text-anchor="middle" x="233.5" y="-118.5" font-family="Helvetica,sans-Serif" font-size="10.00">BitAbstractArchiveCreator</text>
</a>
</g>
</g>
<!-- Node3 -->
<g id="Node000003" class="node">
<title>Node3</title>
<g id="a_Node000003"><a xlink:href="classbit7z_1_1_bit_compressor.html" target="_top" xlink:title=" ">
<polygon fill="white" stroke="#666666" points="699.75,-223 585.5,-223 585.5,-191 699.75,-191 699.75,-223"/>
<text xml:space="preserve" text-anchor="start" x="593.5" y="-209.5" font-family="Helvetica,sans-Serif" font-size="10.00">BitCompressor&lt; const</text>
<text xml:space="preserve" text-anchor="middle" x="642.62" y="-197.5" font-family="Helvetica,sans-Serif" font-size="10.00"> buffer_t &amp; &gt;</text>
</a>
</g>
</g>
<!-- Node1&#45;&gt;Node3 -->
<g id="edge2_Node000001_Node000003" class="edge">
<title>Node1&#45;&gt;Node3</title>
<g id="a_edge2_Node000001_Node000003"><a xlink:title=" ">
<path fill="none" stroke="#63b8ff" d="M253.55,-139.95C272.64,-156.72 303.68,-180.78 335.5,-192 418.55,-221.28 522.16,-218.97 585.04,-213.68"/>
<polygon fill="#63b8ff" stroke="#63b8ff" points="256.08,-137.52 246.31,-133.41 251.39,-142.72 256.08,-137.52"/>
</a>
</g>
</g>
<!-- Node4 -->
<g id="Node000004" class="node">
<title>Node4</title>
<g id="a_Node000004"><a xlink:title=" ">
<polygon fill="white" stroke="#666666" points="694.5,-88 590.75,-88 590.75,-56 694.5,-56 694.5,-88"/>
<text xml:space="preserve" text-anchor="start" x="598.75" y="-74.5" font-family="Helvetica,sans-Serif" font-size="10.00">BitCompressor&lt; std</text>
<text xml:space="preserve" text-anchor="middle" x="642.62" y="-62.5" font-family="Helvetica,sans-Serif" font-size="10.00">::istream &amp; &gt;</text>
</a>
</g>
</g>
<!-- Node1&#45;&gt;Node4 -->
<g id="edge3_Node000001_Node000004" class="edge">
<title>Node1&#45;&gt;Node4</title>
<g id="a_edge3_Node000001_Node000004"><a xlink:title=" ">
<path fill="none" stroke="#63b8ff" d="M300.75,-109.46C312.33,-107.29 324.26,-105.07 335.5,-103 397.23,-91.64 412.09,-84.7 474.5,-78 513.18,-73.85 557.16,-72.4 590.29,-71.96"/>
<polygon fill="#63b8ff" stroke="#63b8ff" points="300.46,-105.95 291.28,-111.24 301.75,-112.83 300.46,-105.95"/>
</a>
</g>
</g>
<!-- Node5 -->
<g id="Node000005" class="node">
<title>Node5</title>
<g id="a_Node000005"><a xlink:href="classbit7z_1_1_bit_compressor.html" target="_top" xlink:title=" ">
<polygon fill="white" stroke="#666666" points="699.75,-147 585.5,-147 585.5,-115 699.75,-115 699.75,-147"/>
<text xml:space="preserve" text-anchor="start" x="593.5" y="-133.5" font-family="Helvetica,sans-Serif" font-size="10.00">BitCompressor&lt; const</text>
<text xml:space="preserve" text-anchor="middle" x="642.62" y="-121.5" font-family="Helvetica,sans-Serif" font-size="10.00"> tstring &amp; &gt;</text>
</a>
</g>
</g>
<!-- Node1&#45;&gt;Node5 -->
<g id="edge4_Node000001_Node000005" class="edge">
<title>Node1&#45;&gt;Node5</title>
<g id="a_edge4_Node000001_Node000005"><a xlink:title=" ">
<path fill="none" stroke="#63b8ff" d="M265.42,-137.23C324.96,-164.46 459.24,-215.65 567.5,-182 589.28,-175.23 610.33,-159.6 624.39,-147.41"/>
<polygon fill="#63b8ff" stroke="#63b8ff" points="267.1,-134.16 256.56,-133.09 264.14,-140.5 267.1,-134.16"/>
</a>
</g>
</g>
<!-- Node7 -->
<g id="Node000007" class="node">
<title>Node7</title>
<g id="a_Node000007"><a xlink:href="classbit7z_1_1_bit_archive_writer.html" target="_top" xlink:title="The BitArchiveWriter class allows creating new archives or updating old ones with new items.">
<polygon fill="white" stroke="#666666" points="439.25,-20 352.75,-20 352.75,0 439.25,0 439.25,-20"/>
<text xml:space="preserve" text-anchor="middle" x="396" y="-6.5" font-family="Helvetica,sans-Serif" font-size="10.00">BitArchiveWriter</text>
</a>
</g>
</g>
<!-- Node1&#45;&gt;Node7 -->
<g id="edge6_Node000001_Node000007" class="edge">
<title>Node1&#45;&gt;Node7</title>
<g id="a_edge6_Node000001_Node000007"><a xlink:title=" ">
<path fill="none" stroke="#63b8ff" d="M248,-102.3C262.66,-82.33 287.85,-51.91 316.5,-34 327.38,-27.2 340.31,-22.22 352.5,-18.61"/>
<polygon fill="#63b8ff" stroke="#63b8ff" points="245.16,-100.25 242.21,-110.43 250.86,-104.31 245.16,-100.25"/>
</a>
</g>
</g>
<!-- Node9 -->
<g id="Node000009" class="node">
<title>Node9</title>
<g id="a_Node000009"><a xlink:href="classbit7z_1_1_bit_compressor.html" target="_top" xlink:title="The BitCompressor template class allows compressing files into archives.">
<polygon fill="white" stroke="#666666" points="456.5,-132 335.5,-132 335.5,-112 456.5,-112 456.5,-132"/>
<text xml:space="preserve" text-anchor="middle" x="396" y="-118.5" font-family="Helvetica,sans-Serif" font-size="10.00">BitCompressor&lt; Input &gt;</text>
</a>
</g>
</g>
<!-- Node1&#45;&gt;Node9 -->
<g id="edge8_Node000001_Node000009" class="edge">
<title>Node1&#45;&gt;Node9</title>
<g id="a_edge8_Node000001_Node000009"><a xlink:title=" ">
<path fill="none" stroke="#63b8ff" d="M310.17,-122C318.52,-122 326.93,-122 335.05,-122"/>
<polygon fill="#63b8ff" stroke="#63b8ff" points="310.37,-118.5 300.37,-122 310.37,-125.5 310.37,-118.5"/>
</a>
</g>
</g>
<!-- Node2 -->
<g id="Node000002" class="node">
<title>Node2</title>
<g id="a_Node000002"><a xlink:href="classbit7z_1_1_bit_abstract_archive_handler.html" target="_top" xlink:title="Abstract class representing a generic archive handler.">
<polygon fill="white" stroke="#666666" points="131.5,-132 0,-132 0,-112 131.5,-112 131.5,-132"/>
<text xml:space="preserve" text-anchor="middle" x="65.75" y="-118.5" font-family="Helvetica,sans-Serif" font-size="10.00">BitAbstractArchiveHandler</text>
</a>
</g>
</g>
<!-- Node2&#45;&gt;Node1 -->
<g id="edge1_Node000001_Node000002" class="edge">
<title>Node2&#45;&gt;Node1</title>
<g id="a_edge1_Node000001_Node000002"><a xlink:title=" ">
<path fill="none" stroke="#63b8ff" d="M143.13,-122C151.51,-122 159.98,-122 168.2,-122"/>
<polygon fill="#63b8ff" stroke="#63b8ff" points="143.3,-118.5 133.3,-122 143.3,-125.5 143.3,-118.5"/>
</a>
</g>
</g>
<!-- Node6 -->
<g id="Node000006" class="node">
<title>Node6</title>
<g id="a_Node000006"><a xlink:href="classbit7z_1_1_bit_file_compressor.html" target="_top" xlink:title="The BitFileCompressor class allows compressing files and directories.">
<polygon fill="white" stroke="#666666" points="833.75,-141 736.75,-141 736.75,-121 833.75,-121 833.75,-141"/>
<text xml:space="preserve" text-anchor="middle" x="785.25" y="-127.5" font-family="Helvetica,sans-Serif" font-size="10.00">BitFileCompressor</text>
</a>
</g>
</g>
<!-- Node5&#45;&gt;Node6 -->
<g id="edge5_Node000005_Node000006" class="edge">
<title>Node5&#45;&gt;Node6</title>
<g id="a_edge5_Node000005_Node000006"><a xlink:title=" ">
<path fill="none" stroke="#63b8ff" d="M711.45,-131C719.9,-131 728.39,-131 736.44,-131"/>
<polygon fill="#63b8ff" stroke="#63b8ff" points="711.53,-127.5 701.53,-131 711.53,-134.5 711.53,-127.5"/>
</a>
</g>
</g>
<!-- Node8 -->
<g id="Node000008" class="node">
<title>Node8</title>
<g id="a_Node000008"><a xlink:href="classbit7z_1_1_bit_archive_editor.html" target="_top" xlink:title="The BitArchiveEditor class allows creating new file archives or updating old ones.">
<polygon fill="white" stroke="#666666" points="685.88,-20 599.38,-20 599.38,0 685.88,0 685.88,-20"/>
<text xml:space="preserve" text-anchor="middle" x="642.62" y="-6.5" font-family="Helvetica,sans-Serif" font-size="10.00">BitArchiveEditor</text>
</a>
</g>
</g>
<!-- Node7&#45;&gt;Node8 -->
<g id="edge7_Node000007_Node000008" class="edge">
<title>Node7&#45;&gt;Node8</title>
<g id="a_edge7_Node000007_Node000008"><a xlink:title=" ">
<path fill="none" stroke="#63b8ff" d="M451.11,-10C495.69,-10 558.03,-10 599.09,-10"/>
<polygon fill="#63b8ff" stroke="#63b8ff" points="451.12,-6.5 441.12,-10 451.12,-13.5 451.12,-6.5"/>
</a>
</g>
</g>
<!-- Node9&#45;&gt;Node3 -->
<g id="edge9_Node000009_Node000003" class="edge">
<title>Node9&#45;&gt;Node3</title>
<g id="a_edge9_Node000009_Node000003"><a xlink:title=" ">
<path fill="none" stroke="orange" stroke-dasharray="5,2" d="M437.65,-136.12C480.71,-151.09 548.65,-174.69 594.15,-190.5"/>
<polygon fill="orange" stroke="orange" points="439.02,-132.9 428.43,-132.92 436.72,-139.51 439.02,-132.9"/>
</a>
</g>
<text xml:space="preserve" text-anchor="start" x="477.5" y="-184.76" font-family="Helvetica,sans-Serif" font-size="10.00" fill="grey">&lt; const buffer_t &amp; &gt;</text>
</g>
<!-- Node9&#45;&gt;Node4 -->
<g id="edge10_Node000009_Node000004" class="edge">
<title>Node9&#45;&gt;Node4</title>
<g id="a_edge10_Node000009_Node000004"><a xlink:title=" ">
<path fill="none" stroke="orange" stroke-dasharray="5,2" d="M439.68,-108.27C450.93,-104.94 463.11,-101.6 474.5,-99 513.04,-90.21 557.22,-83.2 590.47,-78.53"/>
<polygon fill="orange" stroke="orange" points="438.81,-104.87 430.25,-111.12 440.84,-111.57 438.81,-104.87"/>
</a>
</g>
<text xml:space="preserve" text-anchor="start" x="481.25" y="-104.25" font-family="Helvetica,sans-Serif" font-size="10.00" fill="grey">&lt; std::istream &amp; &gt;</text>
</g>
<!-- Node9&#45;&gt;Node5 -->
<g id="edge11_Node000009_Node000005" class="edge">
<title>Node9&#45;&gt;Node5</title>
<g id="a_edge11_Node000009_Node000005"><a xlink:title=" ">
<path fill="none" stroke="orange" stroke-dasharray="5,2" d="M468.06,-120.81C498.68,-120.71 534.87,-121.15 567.5,-123 573.19,-123.32 579.11,-123.77 585.01,-124.29"/>
<polygon fill="orange" stroke="orange" points="468.11,-117.31 458.13,-120.86 468.15,-124.31 468.11,-117.31"/>
</a>
</g>
<text xml:space="preserve" text-anchor="start" x="480.12" y="-128.25" font-family="Helvetica,sans-Serif" font-size="10.00" fill="grey">&lt; const tstring &amp; &gt;</text>
</g>
</g>
</svg>
