<?xml version="1.0" encoding="UTF-8" standalone="no"?>
<!DOCTYPE svg PUBLIC "-//W3C//DTD SVG 1.1//EN"
 "http://www.w3.org/Graphics/SVG/1.1/DTD/svg11.dtd">
<!-- Generated by graphviz version 15.0.0 (20260523.1842)
 -->
<!-- Title: BitNestedArchiveReader Pages: 1 -->
<svg width="140pt" height="140pt"
 viewBox="0.00 0.00 140.00 140.00" xmlns="http://www.w3.org/2000/svg" xmlns:xlink="http://www.w3.org/1999/xlink">
<g id="graph0" class="graph" transform="scale(1 1) rotate(0) translate(4 136)">
<title>BitNestedArchiveReader</title>
<!-- Node1 -->
<g id="Node000001" class="node">
<title>Node1</title>
<g id="a_Node000001"><a xlink:title="The BitNestedArchiveReader class allows reading and extracting nested archives (e....">
<polygon fill="#999999" stroke="#666666" points="127.75,-20 3.75,-20 3.75,0 127.75,0 127.75,-20"/>
<text xml:space="preserve" text-anchor="middle" x="65.75" y="-6.5" font-family="Helvetica,sans-Serif" font-size="10.00">BitNestedArchiveReader</text>
</a>
</g>
</g>
<!-- Node2 -->
<g id="Node000002" class="node">
<title>Node2</title>
<g id="a_Node000002"><a xlink:href="classbit7z_1_1_bit_abstract_archive_opener.html" target="_top" xlink:title="The BitAbstractArchiveOpener abstract class represents a generic archive opener.">
<polygon fill="white" stroke="#666666" points="130.38,-76 1.12,-76 1.12,-56 130.38,-56 130.38,-76"/>
<text xml:space="preserve" text-anchor="middle" x="65.75" y="-62.5" font-family="Helvetica,sans-Serif" font-size="10.00">BitAbstractArchiveOpener</text>
</a>
</g>
</g>
<!-- Node2&#45;&gt;Node1 -->
<g id="edge1_Node000001_Node000002" class="edge">
<title>Node2&#45;&gt;Node1</title>
<g id="a_edge1_Node000001_Node000002"><a xlink:title=" ">
<path fill="none" stroke="#63b8ff" d="M65.75,-44.13C65.75,-35.9 65.75,-26.85 65.75,-20.3"/>
<polygon fill="#63b8ff" stroke="#63b8ff" points="62.25,-44.08 65.75,-54.08 69.25,-44.08 62.25,-44.08"/>
</a>
</g>
</g>
<!-- Node3 -->
<g id="Node000003" class="node">
<title>Node3</title>
<g id="a_Node000003"><a xlink:href="classbit7z_1_1_bit_abstract_archive_handler.html" target="_top" xlink:title="Abstract class representing a generic archive handler.">
<polygon fill="white" stroke="#666666" points="131.5,-132 0,-132 0,-112 131.5,-112 131.5,-132"/>
<text xml:space="preserve" text-anchor="middle" x="65.75" y="-118.5" font-family="Helvetica,sans-Serif" font-size="10.00">BitAbstractArchiveHandler</text>
</a>
</g>
</g>
<!-- Node3&#45;&gt;Node2 -->
<g id="edge2_Node000002_Node000003" class="edge">
<title>Node3&#45;&gt;Node2</title>
<g id="a_edge2_Node000002_Node000003"><a xlink:title=" ">
<path fill="none" stroke="#63b8ff" d="M65.75,-100.13C65.75,-91.9 65.75,-82.85 65.75,-76.3"/>
<polygon fill="#63b8ff" stroke="#63b8ff" points="62.25,-100.08 65.75,-110.08 69.25,-100.08 62.25,-100.08"/>
</a>
</g>
</g>
</g>
</svg>
