<?xml version="1.0" encoding="UTF-8" standalone="no"?>
<!DOCTYPE svg PUBLIC "-//W3C//DTD SVG 1.1//EN"
 "http://www.w3.org/Graphics/SVG/1.1/DTD/svg11.dtd">
<!-- Generated by graphviz version 8.1.0 (20230707.0739)
 -->
<!-- Title: BitCompressor&lt; Input &gt; Pages: 1 -->
<svg width="157pt" height="279pt"
 viewBox="0.00 0.00 157.38 279.00" xmlns="http://www.w3.org/2000/svg" xmlns:xlink="http://www.w3.org/1999/xlink">
<g id="graph0" class="graph" transform="scale(1 1) rotate(0) translate(4 275)">
<title>BitCompressor&lt; Input &gt;</title>
<!-- Node1 -->
<g id="Node000001" class="node">
<title>Node1</title>
<g id="a_Node000001"><a xlink:title="The BitCompressor template class allows compressing files into archives.">
<polygon fill="#999999" stroke="#666666" points="124.38,-157 4.88,-157 4.88,-137 124.38,-137 124.38,-157"/>
<text text-anchor="middle" x="64.62" y="-143.5" font-family="Helvetica,sans-Serif" font-size="10.00">BitCompressor&lt; Input &gt;</text>
</a>
</g>
</g>
<!-- Node4 -->
<g id="Node000004" class="node">
<title>Node4</title>
<g id="a_Node000004"><a xlink:href="classbit7z_1_1_bit_compressor.html" target="_top" xlink:title=" ">
<polygon fill="white" stroke="#666666" points="121.38,-89 7.88,-89 7.88,-57 121.38,-57 121.38,-89"/>
<text text-anchor="start" x="15.88" y="-75.5" font-family="Helvetica,sans-Serif" font-size="10.00">BitCompressor&lt; const</text>
<text text-anchor="middle" x="64.62" y="-63.5" font-family="Helvetica,sans-Serif" font-size="10.00"> tstring &amp; &gt;</text>
</a>
</g>
</g>
<!-- Node1&#45;&gt;Node4 -->
<g id="edge3_Node000001_Node000004" class="edge">
<title>Node1&#45;&gt;Node4</title>
<g id="a_edge3_Node000001_Node000004"><a xlink:title=" ">
<path fill="none" stroke="orange" stroke-dasharray="5,2" d="M64.62,-125.83C64.62,-114.31 64.62,-100.1 64.62,-89.47"/>
<polygon fill="orange" stroke="orange" points="61.13,-125.59 64.62,-135.59 68.13,-125.59 61.13,-125.59"/>
</a>
</g>
<text text-anchor="middle" x="107" y="-109.5" font-family="Helvetica,sans-Serif" font-size="10.00" fill="grey"> &lt; const tstring &amp; &gt;</text>
</g>
<!-- Node2 -->
<g id="Node000002" class="node">
<title>Node2</title>
<g id="a_Node000002"><a xlink:href="classbit7z_1_1_bit_abstract_archive_creator.html" target="_top" xlink:title="Abstract class representing a generic archive creator.">
<polygon fill="white" stroke="#666666" points="128.5,-214 0.75,-214 0.75,-194 128.5,-194 128.5,-214"/>
<text text-anchor="middle" x="64.62" y="-200.5" font-family="Helvetica,sans-Serif" font-size="10.00">BitAbstractArchiveCreator</text>
</a>
</g>
</g>
<!-- Node2&#45;&gt;Node1 -->
<g id="edge1_Node000001_Node000002" class="edge">
<title>Node2&#45;&gt;Node1</title>
<g id="a_edge1_Node000001_Node000002"><a xlink:title=" ">
<path fill="none" stroke="#63b8ff" d="M64.62,-182.99C64.62,-174.2 64.62,-164.3 64.62,-157.28"/>
<polygon fill="#63b8ff" stroke="#63b8ff" points="61.13,-182.92 64.62,-192.92 68.13,-182.92 61.13,-182.92"/>
</a>
</g>
</g>
<!-- Node3 -->
<g id="Node000003" class="node">
<title>Node3</title>
<g id="a_Node000003"><a xlink:href="classbit7z_1_1_bit_abstract_archive_handler.html" target="_top" xlink:title="Abstract class representing a generic archive handler.">
<polygon fill="white" stroke="#666666" points="129.25,-271 0,-271 0,-251 129.25,-251 129.25,-271"/>
<text text-anchor="middle" x="64.62" y="-257.5" font-family="Helvetica,sans-Serif" font-size="10.00">BitAbstractArchiveHandler</text>
</a>
</g>
</g>
<!-- Node3&#45;&gt;Node2 -->
<g id="edge2_Node000002_Node000003" class="edge">
<title>Node3&#45;&gt;Node2</title>
<g id="a_edge2_Node000002_Node000003"><a xlink:title=" ">
<path fill="none" stroke="#63b8ff" d="M64.62,-239.99C64.62,-231.2 64.62,-221.3 64.62,-214.28"/>
<polygon fill="#63b8ff" stroke="#63b8ff" points="61.13,-239.92 64.62,-249.92 68.13,-239.92 61.13,-239.92"/>
</a>
</g>
</g>
<!-- Node5 -->
<g id="Node000005" class="node">
<title>Node5</title>
<g id="a_Node000005"><a xlink:href="classbit7z_1_1_bit_file_compressor.html" target="_top" xlink:title="The BitFileCompressor class allows compressing files and directories.">
<polygon fill="white" stroke="#666666" points="112.75,-20 16.5,-20 16.5,0 112.75,0 112.75,-20"/>
<text text-anchor="middle" x="64.62" y="-6.5" font-family="Helvetica,sans-Serif" font-size="10.00">BitFileCompressor</text>
</a>
</g>
</g>
<!-- Node4&#45;&gt;Node5 -->
<g id="edge4_Node000004_Node000005" class="edge">
<title>Node4&#45;&gt;Node5</title>
<g id="a_edge4_Node000004_Node000005"><a xlink:title=" ">
<path fill="none" stroke="#63b8ff" d="M64.62,-45.67C64.62,-36.62 64.62,-27.08 64.62,-20.31"/>
<polygon fill="#63b8ff" stroke="#63b8ff" points="61.13,-45.61 64.62,-55.61 68.13,-45.61 61.13,-45.61"/>
</a>
</g>
</g>
</g>
</svg>
