<?xml version="1.0" encoding="UTF-8" standalone="no"?>
<!DOCTYPE svg PUBLIC "-//W3C//DTD SVG 1.1//EN"
 "http://www.w3.org/Graphics/SVG/1.1/DTD/svg11.dtd">
<!-- Generated by graphviz version 8.1.0 (20230707.0739)
 -->
<!-- Title: BitArchiveWriter Pages: 1 -->
<svg width="243pt" height="140pt"
 viewBox="0.00 0.00 243.00 140.00" xmlns="http://www.w3.org/2000/svg" xmlns:xlink="http://www.w3.org/1999/xlink">
<g id="graph0" class="graph" transform="scale(1 1) rotate(0) translate(4 136)">
<title>BitArchiveWriter</title>
<!-- Node1 -->
<g id="Node000001" class="node">
<title>Node1</title>
<g id="a_Node000001"><a xlink:title="The BitArchiveWriter class allows creating new archives or updating old ones with new items.">
<polygon fill="#999999" stroke="#666666" points="170.5,-20 84.75,-20 84.75,0 170.5,0 170.5,-20"/>
<text text-anchor="middle" x="127.62" y="-6.5" font-family="Helvetica,sans-Serif" font-size="10.00">BitArchiveWriter</text>
</a>
</g>
</g>
<!-- Node2 -->
<g id="Node000002" class="node">
<title>Node2</title>
<g id="a_Node000002"><a xlink:href="classbit7z_1_1_bit_abstract_archive_creator.html" target="_top" xlink:title="Abstract class representing a generic archive creator.">
<polygon fill="white" stroke="#666666" points="128.5,-76 0.75,-76 0.75,-56 128.5,-56 128.5,-76"/>
<text text-anchor="middle" x="64.62" y="-62.5" font-family="Helvetica,sans-Serif" font-size="10.00">BitAbstractArchiveCreator</text>
</a>
</g>
</g>
<!-- Node2&#45;&gt;Node1 -->
<g id="edge1_Node000001_Node000002" class="edge">
<title>Node2&#45;&gt;Node1</title>
<g id="a_edge1_Node000001_Node000002"><a xlink:title=" ">
<path fill="none" stroke="#63b8ff" d="M83.67,-48.68C94.5,-39.39 107.69,-28.09 116.78,-20.3"/>
<polygon fill="#63b8ff" stroke="#63b8ff" points="81.91,-46.43 76.6,-55.59 86.47,-51.74 81.91,-46.43"/>
</a>
</g>
</g>
<!-- Node3 -->
<g id="Node000003" class="node">
<title>Node3</title>
<g id="a_Node000003"><a xlink:href="classbit7z_1_1_bit_abstract_archive_handler.html" target="_top" xlink:title="Abstract class representing a generic archive handler.">
<polygon fill="white" stroke="#666666" points="129.25,-132 0,-132 0,-112 129.25,-112 129.25,-132"/>
<text text-anchor="middle" x="64.62" y="-118.5" font-family="Helvetica,sans-Serif" font-size="10.00">BitAbstractArchiveHandler</text>
</a>
</g>
</g>
<!-- Node3&#45;&gt;Node2 -->
<g id="edge2_Node000002_Node000003" class="edge">
<title>Node3&#45;&gt;Node2</title>
<g id="a_edge2_Node000002_Node000003"><a xlink:title=" ">
<path fill="none" stroke="#63b8ff" d="M64.62,-100.71C64.62,-92.32 64.62,-83.01 64.62,-76.3"/>
<polygon fill="#63b8ff" stroke="#63b8ff" points="61.13,-100.59 64.62,-110.59 68.13,-100.59 61.13,-100.59"/>
</a>
</g>
</g>
<!-- Node4 -->
<g id="Node000004" class="node">
<title>Node4</title>
<g id="a_Node000004"><a xlink:href="classbit7z_1_1_bit_output_archive.html" target="_top" xlink:title="The BitOutputArchive class, given a creator object, allows creating new archives.">
<polygon fill="white" stroke="#666666" points="235,-76 146.25,-76 146.25,-56 235,-56 235,-76"/>
<text text-anchor="middle" x="190.62" y="-62.5" font-family="Helvetica,sans-Serif" font-size="10.00">BitOutputArchive</text>
</a>
</g>
</g>
<!-- Node4&#45;&gt;Node1 -->
<g id="edge3_Node000001_Node000004" class="edge">
<title>Node4&#45;&gt;Node1</title>
<g id="a_edge3_Node000001_Node000004"><a xlink:title=" ">
<path fill="none" stroke="#63b8ff" d="M171.58,-48.68C160.75,-39.39 147.56,-28.09 138.47,-20.3"/>
<polygon fill="#63b8ff" stroke="#63b8ff" points="168.78,-51.74 178.65,-55.59 173.34,-46.43 168.78,-51.74"/>
</a>
</g>
</g>
</g>
</svg>
