<?xml version="1.0" encoding="UTF-8" standalone="no"?>
<!DOCTYPE svg PUBLIC "-//W3C//DTD SVG 1.1//EN"
 "http://www.w3.org/Graphics/SVG/1.1/DTD/svg11.dtd">
<!-- Generated by graphviz version 7.0.6 (20230106.0513)
 -->
<!-- Title: BitAbstractArchiveCreator Pages: 1 -->
<svg width="286pt" height="272pt"
 viewBox="0.00 0.00 286.00 272.00" xmlns="http://www.w3.org/2000/svg" xmlns:xlink="http://www.w3.org/1999/xlink">
<g id="graph0" class="graph" transform="scale(1 1) rotate(0) translate(4 268)">
<title>BitAbstractArchiveCreator</title>
<!-- Node1 -->
<g id="node1" class="node">
<title>Node1</title>
<g id="a_node1"><a xlink:title="Abstract class representing a generic archive creator.">
<polygon fill="#999999" stroke="#666666" points="178,-208 50,-208 50,-189 178,-189 178,-208"/>
<text text-anchor="middle" x="114" y="-196" font-family="Helvetica,sans-Serif" font-size="10.00">BitAbstractArchiveCreator</text>
</a>
</g>
</g>
<!-- Node3 -->
<g id="node3" class="node">
<title>Node3</title>
<g id="a_node3"><a xlink:href="classbit7z_1_1_bit_compressor.html" target="_top" xlink:title=" ">
<polygon fill="white" stroke="#666666" points="114,-86 0,-86 0,-56 114,-56 114,-86"/>
<text text-anchor="start" x="8" y="-74" font-family="Helvetica,sans-Serif" font-size="10.00">BitCompressor&lt; const</text>
<text text-anchor="middle" x="57" y="-63" font-family="Helvetica,sans-Serif" font-size="10.00"> tstring &amp; &gt;</text>
</a>
</g>
</g>
<!-- Node1&#45;&gt;Node3 -->
<g id="edge2" class="edge">
<title>Node1&#45;&gt;Node3</title>
<path fill="none" stroke="#63b8ff" d="M79.56,-183.54C66.27,-176.25 52.48,-165.89 45,-152 33.81,-131.23 42.48,-103.26 49.76,-86.5"/>
<polygon fill="#63b8ff" stroke="#63b8ff" points="77.66,-186.5 88.16,-187.85 80.79,-180.24 77.66,-186.5"/>
</g>
<!-- Node5 -->
<g id="node5" class="node">
<title>Node5</title>
<g id="a_node5"><a xlink:href="classbit7z_1_1_bit_archive_writer.html" target="_top" xlink:title="The BitArchiveWriter class allows creating new archives or updating old ones with new items.">
<polygon fill="white" stroke="#666666" points="278,-152 192,-152 192,-133 278,-133 278,-152"/>
<text text-anchor="middle" x="235" y="-140" font-family="Helvetica,sans-Serif" font-size="10.00">BitArchiveWriter</text>
</a>
</g>
</g>
<!-- Node1&#45;&gt;Node5 -->
<g id="edge4" class="edge">
<title>Node1&#45;&gt;Node5</title>
<path fill="none" stroke="#63b8ff" d="M144.48,-183.9C166.57,-174.04 195.8,-160.99 214.99,-152.43"/>
<polygon fill="#63b8ff" stroke="#63b8ff" points="143.07,-180.69 135.36,-187.97 145.92,-187.09 143.07,-180.69"/>
</g>
<!-- Node7 -->
<g id="node7" class="node">
<title>Node7</title>
<g id="a_node7"><a xlink:href="classbit7z_1_1_bit_compressor.html" target="_top" xlink:title="The BitCompressor template class allows compressing files into archives.">
<polygon fill="white" stroke="#666666" points="174,-152 54,-152 54,-133 174,-133 174,-152"/>
<text text-anchor="middle" x="114" y="-140" font-family="Helvetica,sans-Serif" font-size="10.00">BitCompressor&lt; Input &gt;</text>
</a>
</g>
</g>
<!-- Node1&#45;&gt;Node7 -->
<g id="edge6" class="edge">
<title>Node1&#45;&gt;Node7</title>
<path fill="none" stroke="#63b8ff" d="M114,-177.11C114,-168.52 114,-158.97 114,-152.25"/>
<polygon fill="#63b8ff" stroke="#63b8ff" points="110.5,-177.07 114,-187.07 117.5,-177.07 110.5,-177.07"/>
</g>
<!-- Node2 -->
<g id="node2" class="node">
<title>Node2</title>
<g id="a_node2"><a xlink:href="classbit7z_1_1_bit_abstract_archive_handler.html" target="_top" xlink:title="Abstract class representing a generic archive handler.">
<polygon fill="white" stroke="#666666" points="179,-264 49,-264 49,-245 179,-245 179,-264"/>
<text text-anchor="middle" x="114" y="-252" font-family="Helvetica,sans-Serif" font-size="10.00">BitAbstractArchiveHandler</text>
</a>
</g>
</g>
<!-- Node2&#45;&gt;Node1 -->
<g id="edge1" class="edge">
<title>Node2&#45;&gt;Node1</title>
<path fill="none" stroke="#63b8ff" d="M114,-233.11C114,-224.52 114,-214.97 114,-208.25"/>
<polygon fill="#63b8ff" stroke="#63b8ff" points="110.5,-233.07 114,-243.07 117.5,-233.07 110.5,-233.07"/>
</g>
<!-- Node4 -->
<g id="node4" class="node">
<title>Node4</title>
<g id="a_node4"><a xlink:href="classbit7z_1_1_bit_file_compressor.html" target="_top" xlink:title="The BitFileCompressor class allows compressing files and directories.">
<polygon fill="white" stroke="#666666" points="105.5,-19 8.5,-19 8.5,0 105.5,0 105.5,-19"/>
<text text-anchor="middle" x="57" y="-7" font-family="Helvetica,sans-Serif" font-size="10.00">BitFileCompressor</text>
</a>
</g>
</g>
<!-- Node3&#45;&gt;Node4 -->
<g id="edge3" class="edge">
<title>Node3&#45;&gt;Node4</title>
<path fill="none" stroke="#63b8ff" d="M57,-44.13C57,-35.29 57,-25.99 57,-19.42"/>
<polygon fill="#63b8ff" stroke="#63b8ff" points="53.5,-44.08 57,-54.08 60.5,-44.08 53.5,-44.08"/>
</g>
<!-- Node6 -->
<g id="node6" class="node">
<title>Node6</title>
<g id="a_node6"><a xlink:href="classbit7z_1_1_bit_archive_editor.html" target="_top" xlink:title="The BitArchiveEditor class allows creating new file archives or updating old ones.">
<polygon fill="white" stroke="#666666" points="278,-80.5 192,-80.5 192,-61.5 278,-61.5 278,-80.5"/>
<text text-anchor="middle" x="235" y="-68.5" font-family="Helvetica,sans-Serif" font-size="10.00">BitArchiveEditor</text>
</a>
</g>
</g>
<!-- Node5&#45;&gt;Node6 -->
<g id="edge5" class="edge">
<title>Node5&#45;&gt;Node6</title>
<path fill="none" stroke="#63b8ff" d="M235,-121.3C235,-107.94 235,-91.09 235,-80.95"/>
<polygon fill="#63b8ff" stroke="#63b8ff" points="231.5,-121.18 235,-131.18 238.5,-121.18 231.5,-121.18"/>
</g>
<!-- Node7&#45;&gt;Node3 -->
<g id="edge7" class="edge">
<title>Node7&#45;&gt;Node3</title>
<path fill="none" stroke="orange" stroke-dasharray="5,2" d="M99.56,-123.89C90,-112.24 77.64,-97.17 68.71,-86.27"/>
<polygon fill="orange" stroke="orange" points="96.77,-126.01 105.82,-131.53 102.19,-121.58 96.77,-126.01"/>
<text text-anchor="middle" x="133.5" y="-107" font-family="Helvetica,sans-Serif" font-size="10.00"> &lt; const tstring &amp; &gt;</text>
</g>
</g>
</svg>
