<?xml version="1.0" encoding="UTF-8" standalone="no"?>
<!DOCTYPE svg PUBLIC "-//W3C//DTD SVG 1.1//EN"
 "http://www.w3.org/Graphics/SVG/1.1/DTD/svg11.dtd">
<!-- Generated by graphviz version 15.0.0 (20260523.1842)
 -->
<!-- Title: BitExtractor&lt; Input &gt; Pages: 1 -->
<svg width="680pt" height="140pt"
 viewBox="0.00 0.00 680.00 140.00" xmlns="http://www.w3.org/2000/svg" xmlns:xlink="http://www.w3.org/1999/xlink">
<g id="graph0" class="graph" transform="scale(1 1) rotate(0) translate(4 136)">
<title>BitExtractor&lt; Input &gt;</title>
<!-- Node1 -->
<g id="Node000001" class="node">
<title>Node1</title>
<g id="a_Node000001"><a xlink:title="The BitExtractor template class allows extracting the content of archives from supported input types.">
<polygon fill="#999999" stroke="#666666" points="442.25,-76 334.75,-76 334.75,-56 442.25,-56 442.25,-76"/>
<text xml:space="preserve" text-anchor="middle" x="388.5" y="-62.5" font-family="Helvetica,sans-Serif" font-size="10.00">BitExtractor&lt; Input &gt;</text>
</a>
</g>
</g>
<!-- Node4 -->
<g id="Node000004" class="node">
<title>Node4</title>
<g id="a_Node000004"><a xlink:href="classbit7z_1_1_bit_extractor.html" target="_top" xlink:title=" ">
<polygon fill="white" stroke="#666666" points="672,-132 571.25,-132 571.25,-100 672,-100 672,-132"/>
<text xml:space="preserve" text-anchor="start" x="579.25" y="-118.5" font-family="Helvetica,sans-Serif" font-size="10.00">BitExtractor&lt; const</text>
<text xml:space="preserve" text-anchor="middle" x="621.62" y="-106.5" font-family="Helvetica,sans-Serif" font-size="10.00"> tstring &amp; &gt;</text>
</a>
</g>
</g>
<!-- Node1&#45;&gt;Node4 -->
<g id="edge3_Node000001_Node000004" class="edge">
<title>Node1&#45;&gt;Node4</title>
<g id="a_edge3_Node000001_Node000004"><a xlink:title=" ">
<path fill="none" stroke="orange" stroke-dasharray="5,2" d="M430.81,-79.82C440.41,-82.76 450.63,-85.68 460.25,-88 496.93,-96.87 538.96,-104.1 570.8,-108.99"/>
<polygon fill="orange" stroke="orange" points="431.94,-76.51 421.35,-76.85 429.84,-83.19 431.94,-76.51"/>
</a>
</g>
<text xml:space="preserve" text-anchor="start" x="465.88" y="-111.12" font-family="Helvetica,sans-Serif" font-size="10.00" fill="grey">&lt; const tstring &amp; &gt;</text>
</g>
<!-- Node5 -->
<g id="Node000005" class="node">
<title>Node5</title>
<g id="a_Node000005"><a xlink:href="classbit7z_1_1_bit_extractor.html" target="_top" xlink:title=" ">
<polygon fill="white" stroke="#666666" points="672,-82 571.25,-82 571.25,-50 672,-50 672,-82"/>
<text xml:space="preserve" text-anchor="start" x="579.25" y="-68.5" font-family="Helvetica,sans-Serif" font-size="10.00">BitExtractor&lt; const</text>
<text xml:space="preserve" text-anchor="middle" x="621.62" y="-56.5" font-family="Helvetica,sans-Serif" font-size="10.00"> buffer_t &amp; &gt;</text>
</a>
</g>
</g>
<!-- Node1&#45;&gt;Node5 -->
<g id="edge4_Node000001_Node000005" class="edge">
<title>Node1&#45;&gt;Node5</title>
<g id="a_edge4_Node000001_Node000005"><a xlink:title=" ">
<path fill="none" stroke="orange" stroke-dasharray="5,2" d="M453.72,-66C490.8,-66 536.73,-66 571.01,-66"/>
<polygon fill="orange" stroke="orange" points="454.04,-62.5 444.04,-66 454.04,-69.5 454.04,-62.5"/>
</a>
</g>
<text xml:space="preserve" text-anchor="start" x="463.25" y="-71.25" font-family="Helvetica,sans-Serif" font-size="10.00" fill="grey">&lt; const buffer_t &amp; &gt;</text>
</g>
<!-- Node6 -->
<g id="Node000006" class="node">
<title>Node6</title>
<g id="a_Node000006"><a xlink:title=" ">
<polygon fill="white" stroke="#666666" points="669.75,-32 573.5,-32 573.5,0 669.75,0 669.75,-32"/>
<text xml:space="preserve" text-anchor="start" x="581.5" y="-18.5" font-family="Helvetica,sans-Serif" font-size="10.00">BitExtractor&lt; std::</text>
<text xml:space="preserve" text-anchor="middle" x="621.62" y="-6.5" font-family="Helvetica,sans-Serif" font-size="10.00">istream &amp; &gt;</text>
</a>
</g>
</g>
<!-- Node1&#45;&gt;Node6 -->
<g id="edge5_Node000001_Node000006" class="edge">
<title>Node1&#45;&gt;Node6</title>
<g id="a_edge5_Node000001_Node000006"><a xlink:title=" ">
<path fill="none" stroke="orange" stroke-dasharray="5,2" d="M430.81,-52.18C440.41,-49.24 450.63,-46.32 460.25,-44 497.89,-34.9 541.17,-27.52 573.28,-22.63"/>
<polygon fill="orange" stroke="orange" points="429.84,-48.81 421.35,-55.15 431.94,-55.49 429.84,-48.81"/>
</a>
</g>
<text xml:space="preserve" text-anchor="start" x="467" y="-49.25" font-family="Helvetica,sans-Serif" font-size="10.00" fill="grey">&lt; std::istream &amp; &gt;</text>
</g>
<!-- Node2 -->
<g id="Node000002" class="node">
<title>Node2</title>
<g id="a_Node000002"><a xlink:href="classbit7z_1_1_bit_abstract_archive_opener.html" target="_top" xlink:title="The BitAbstractArchiveOpener abstract class represents a generic archive opener.">
<polygon fill="white" stroke="#666666" points="297.75,-76 168.5,-76 168.5,-56 297.75,-56 297.75,-76"/>
<text xml:space="preserve" text-anchor="middle" x="233.12" y="-62.5" font-family="Helvetica,sans-Serif" font-size="10.00">BitAbstractArchiveOpener</text>
</a>
</g>
</g>
<!-- Node2&#45;&gt;Node1 -->
<g id="edge1_Node000001_Node000002" class="edge">
<title>Node2&#45;&gt;Node1</title>
<g id="a_edge1_Node000001_Node000002"><a xlink:title=" ">
<path fill="none" stroke="#63b8ff" d="M309.35,-66C317.83,-66 326.34,-66 334.45,-66"/>
<polygon fill="#63b8ff" stroke="#63b8ff" points="309.35,-62.5 299.35,-66 309.35,-69.5 309.35,-62.5"/>
</a>
</g>
</g>
<!-- Node3 -->
<g id="Node000003" class="node">
<title>Node3</title>
<g id="a_Node000003"><a xlink:href="classbit7z_1_1_bit_abstract_archive_handler.html" target="_top" xlink:title="Abstract class representing a generic archive handler.">
<polygon fill="white" stroke="#666666" points="131.5,-76 0,-76 0,-56 131.5,-56 131.5,-76"/>
<text xml:space="preserve" text-anchor="middle" x="65.75" y="-62.5" font-family="Helvetica,sans-Serif" font-size="10.00">BitAbstractArchiveHandler</text>
</a>
</g>
</g>
<!-- Node3&#45;&gt;Node2 -->
<g id="edge2_Node000002_Node000003" class="edge">
<title>Node3&#45;&gt;Node2</title>
<g id="a_edge2_Node000002_Node000003"><a xlink:title=" ">
<path fill="none" stroke="#63b8ff" d="M143.04,-66C151.47,-66 159.99,-66 168.24,-66"/>
<polygon fill="#63b8ff" stroke="#63b8ff" points="143.15,-62.5 133.15,-66 143.15,-69.5 143.15,-62.5"/>
</a>
</g>
</g>
</g>
</svg>
