<?xml version="1.0" encoding="UTF-8" standalone="no"?>
<!DOCTYPE svg PUBLIC "-//W3C//DTD SVG 1.1//EN"
 "http://www.w3.org/Graphics/SVG/1.1/DTD/svg11.dtd">
<!-- Generated by graphviz version 15.0.0 (20260523.1842)
 -->
<!-- Title: BitCompressor&lt; Input &gt; Pages: 1 -->
<svg width="842pt" height="140pt"
 viewBox="0.00 0.00 842.00 140.00" xmlns="http://www.w3.org/2000/svg" xmlns:xlink="http://www.w3.org/1999/xlink">
<g id="graph0" class="graph" transform="scale(1 1) rotate(0) translate(4 136)">
<title>BitCompressor&lt; Input &gt;</title>
<!-- Node1 -->
<g id="Node000001" class="node">
<title>Node1</title>
<g id="a_Node000001"><a xlink:title="The BitCompressor template class allows compressing files into archives.">
<polygon fill="#999999" stroke="#666666" points="456.5,-76 335.5,-76 335.5,-56 456.5,-56 456.5,-76"/>
<text xml:space="preserve" text-anchor="middle" x="396" y="-62.5" font-family="Helvetica,sans-Serif" font-size="10.00">BitCompressor&lt; Input &gt;</text>
</a>
</g>
</g>
<!-- Node4 -->
<g id="Node000004" class="node">
<title>Node4</title>
<g id="a_Node000004"><a xlink:href="classbit7z_1_1_bit_compressor.html" target="_top" xlink:title=" ">
<polygon fill="white" stroke="#666666" points="699.75,-132 585.5,-132 585.5,-100 699.75,-100 699.75,-132"/>
<text xml:space="preserve" text-anchor="start" x="593.5" y="-118.5" font-family="Helvetica,sans-Serif" font-size="10.00">BitCompressor&lt; const</text>
<text xml:space="preserve" text-anchor="middle" x="642.62" y="-106.5" font-family="Helvetica,sans-Serif" font-size="10.00"> buffer_t &amp; &gt;</text>
</a>
</g>
</g>
<!-- Node1&#45;&gt;Node4 -->
<g id="edge3_Node000001_Node000004" class="edge">
<title>Node1&#45;&gt;Node4</title>
<g id="a_edge3_Node000001_Node000004"><a xlink:title=" ">
<path fill="none" stroke="orange" stroke-dasharray="5,2" d="M441.59,-79.57C452.31,-82.58 463.76,-85.58 474.5,-88 511.09,-96.23 552.69,-103.21 585.23,-108.14"/>
<polygon fill="orange" stroke="orange" points="442.78,-76.27 432.2,-76.87 440.85,-83 442.78,-76.27"/>
</a>
</g>
<text xml:space="preserve" text-anchor="start" x="477.5" y="-110.25" font-family="Helvetica,sans-Serif" font-size="10.00" fill="grey">&lt; const buffer_t &amp; &gt;</text>
</g>
<!-- Node5 -->
<g id="Node000005" class="node">
<title>Node5</title>
<g id="a_Node000005"><a xlink:title=" ">
<polygon fill="white" stroke="#666666" points="694.5,-82 590.75,-82 590.75,-50 694.5,-50 694.5,-82"/>
<text xml:space="preserve" text-anchor="start" x="598.75" y="-68.5" font-family="Helvetica,sans-Serif" font-size="10.00">BitCompressor&lt; std</text>
<text xml:space="preserve" text-anchor="middle" x="642.62" y="-56.5" font-family="Helvetica,sans-Serif" font-size="10.00">::istream &amp; &gt;</text>
</a>
</g>
</g>
<!-- Node1&#45;&gt;Node5 -->
<g id="edge4_Node000001_Node000005" class="edge">
<title>Node1&#45;&gt;Node5</title>
<g id="a_edge4_Node000001_Node000005"><a xlink:title=" ">
<path fill="none" stroke="orange" stroke-dasharray="5,2" d="M468.15,-66C507.23,-66 554.82,-66 590.26,-66"/>
<polygon fill="orange" stroke="orange" points="468.36,-62.5 458.36,-66 468.36,-69.5 468.36,-62.5"/>
</a>
</g>
<text xml:space="preserve" text-anchor="start" x="481.25" y="-71.25" font-family="Helvetica,sans-Serif" font-size="10.00" fill="grey">&lt; std::istream &amp; &gt;</text>
</g>
<!-- Node6 -->
<g id="Node000006" class="node">
<title>Node6</title>
<g id="a_Node000006"><a xlink:href="classbit7z_1_1_bit_compressor.html" target="_top" xlink:title=" ">
<polygon fill="white" stroke="#666666" points="699.75,-32 585.5,-32 585.5,0 699.75,0 699.75,-32"/>
<text xml:space="preserve" text-anchor="start" x="593.5" y="-18.5" font-family="Helvetica,sans-Serif" font-size="10.00">BitCompressor&lt; const</text>
<text xml:space="preserve" text-anchor="middle" x="642.62" y="-6.5" font-family="Helvetica,sans-Serif" font-size="10.00"> tstring &amp; &gt;</text>
</a>
</g>
</g>
<!-- Node1&#45;&gt;Node6 -->
<g id="edge5_Node000001_Node000006" class="edge">
<title>Node1&#45;&gt;Node6</title>
<g id="a_edge5_Node000001_Node000006"><a xlink:title=" ">
<path fill="none" stroke="orange" stroke-dasharray="5,2" d="M441.59,-52.43C452.31,-49.42 463.76,-46.42 474.5,-44 511.09,-35.77 552.69,-28.79 585.23,-23.86"/>
<polygon fill="orange" stroke="orange" points="440.85,-49 432.2,-55.13 442.78,-55.73 440.85,-49"/>
</a>
</g>
<text xml:space="preserve" text-anchor="start" x="480.12" y="-49.25" font-family="Helvetica,sans-Serif" font-size="10.00" fill="grey">&lt; const tstring &amp; &gt;</text>
</g>
<!-- Node2 -->
<g id="Node000002" class="node">
<title>Node2</title>
<g id="a_Node000002"><a xlink:href="classbit7z_1_1_bit_abstract_archive_creator.html" target="_top" xlink:title="Abstract class representing a generic archive creator.">
<polygon fill="white" stroke="#666666" points="298.5,-76 168.5,-76 168.5,-56 298.5,-56 298.5,-76"/>
<text xml:space="preserve" text-anchor="middle" x="233.5" y="-62.5" font-family="Helvetica,sans-Serif" font-size="10.00">BitAbstractArchiveCreator</text>
</a>
</g>
</g>
<!-- Node2&#45;&gt;Node1 -->
<g id="edge1_Node000001_Node000002" class="edge">
<title>Node2&#45;&gt;Node1</title>
<g id="a_edge1_Node000001_Node000002"><a xlink:title=" ">
<path fill="none" stroke="#63b8ff" d="M310.17,-66C318.52,-66 326.93,-66 335.05,-66"/>
<polygon fill="#63b8ff" stroke="#63b8ff" points="310.37,-62.5 300.37,-66 310.37,-69.5 310.37,-62.5"/>
</a>
</g>
</g>
<!-- Node3 -->
<g id="Node000003" class="node">
<title>Node3</title>
<g id="a_Node000003"><a xlink:href="classbit7z_1_1_bit_abstract_archive_handler.html" target="_top" xlink:title="Abstract class representing a generic archive handler.">
<polygon fill="white" stroke="#666666" points="131.5,-76 0,-76 0,-56 131.5,-56 131.5,-76"/>
<text xml:space="preserve" text-anchor="middle" x="65.75" y="-62.5" font-family="Helvetica,sans-Serif" font-size="10.00">BitAbstractArchiveHandler</text>
</a>
</g>
</g>
<!-- Node3&#45;&gt;Node2 -->
<g id="edge2_Node000002_Node000003" class="edge">
<title>Node3&#45;&gt;Node2</title>
<g id="a_edge2_Node000002_Node000003"><a xlink:title=" ">
<path fill="none" stroke="#63b8ff" d="M143.13,-66C151.51,-66 159.98,-66 168.2,-66"/>
<polygon fill="#63b8ff" stroke="#63b8ff" points="143.3,-62.5 133.3,-66 143.3,-69.5 143.3,-62.5"/>
</a>
</g>
</g>
<!-- Node7 -->
<g id="Node000007" class="node">
<title>Node7</title>
<g id="a_Node000007"><a xlink:href="classbit7z_1_1_bit_file_compressor.html" target="_top" xlink:title="The BitFileCompressor class allows compressing files and directories.">
<polygon fill="white" stroke="#666666" points="833.75,-26 736.75,-26 736.75,-6 833.75,-6 833.75,-26"/>
<text xml:space="preserve" text-anchor="middle" x="785.25" y="-12.5" font-family="Helvetica,sans-Serif" font-size="10.00">BitFileCompressor</text>
</a>
</g>
</g>
<!-- Node6&#45;&gt;Node7 -->
<g id="edge6_Node000006_Node000007" class="edge">
<title>Node6&#45;&gt;Node7</title>
<g id="a_edge6_Node000006_Node000007"><a xlink:title=" ">
<path fill="none" stroke="#63b8ff" d="M711.45,-16C719.9,-16 728.39,-16 736.44,-16"/>
<polygon fill="#63b8ff" stroke="#63b8ff" points="711.53,-12.5 701.53,-16 711.53,-19.5 711.53,-12.5"/>
</a>
</g>
</g>
</g>
</svg>
