<?xml version="1.0" encoding="UTF-8" standalone="no"?>
<!DOCTYPE svg PUBLIC "-//W3C//DTD SVG 1.1//EN"
 "http://www.w3.org/Graphics/SVG/1.1/DTD/svg11.dtd">
<!-- Generated by graphviz version 7.0.6 (20230106.0513)
 -->
<!-- Title: BitCompressor&lt; Input &gt; Pages: 1 -->
<svg width="158pt" height="272pt"
 viewBox="0.00 0.00 158.00 272.00" xmlns="http://www.w3.org/2000/svg" xmlns:xlink="http://www.w3.org/1999/xlink">
<g id="graph0" class="graph" transform="scale(1 1) rotate(0) translate(4 268)">
<title>BitCompressor&lt; Input &gt;</title>
<!-- Node1 -->
<g id="node1" class="node">
<title>Node1</title>
<g id="a_node1"><a xlink:title="The BitCompressor template class allows compressing files into archives.">
<polygon fill="#999999" stroke="#666666" points="125,-152 5,-152 5,-133 125,-133 125,-152"/>
<text text-anchor="middle" x="65" y="-140" font-family="Helvetica,sans-Serif" font-size="10.00">BitCompressor&lt; Input &gt;</text>
</a>
</g>
</g>
<!-- Node4 -->
<g id="node4" class="node">
<title>Node4</title>
<g id="a_node4"><a xlink:href="classbit7z_1_1_bit_compressor.html" target="_top" xlink:title=" ">
<polygon fill="white" stroke="#666666" points="122,-86 8,-86 8,-56 122,-56 122,-86"/>
<text text-anchor="start" x="16" y="-74" font-family="Helvetica,sans-Serif" font-size="10.00">BitCompressor&lt; const</text>
<text text-anchor="middle" x="65" y="-63" font-family="Helvetica,sans-Serif" font-size="10.00"> tstring &amp; &gt;</text>
</a>
</g>
</g>
<!-- Node1&#45;&gt;Node4 -->
<g id="edge3" class="edge">
<title>Node1&#45;&gt;Node4</title>
<path fill="none" stroke="orange" stroke-dasharray="5,2" d="M65,-121.39C65,-110.15 65,-96.41 65,-86.27"/>
<polygon fill="orange" stroke="orange" points="61.5,-121.18 65,-131.18 68.5,-121.18 61.5,-121.18"/>
<text text-anchor="middle" x="107.5" y="-107" font-family="Helvetica,sans-Serif" font-size="10.00"> &lt; const tstring &amp; &gt;</text>
</g>
<!-- Node2 -->
<g id="node2" class="node">
<title>Node2</title>
<g id="a_node2"><a xlink:href="classbit7z_1_1_bit_abstract_archive_creator.html" target="_top" xlink:title="Abstract class representing a generic archive creator.">
<polygon fill="white" stroke="#666666" points="129,-208 1,-208 1,-189 129,-189 129,-208"/>
<text text-anchor="middle" x="65" y="-196" font-family="Helvetica,sans-Serif" font-size="10.00">BitAbstractArchiveCreator</text>
</a>
</g>
</g>
<!-- Node2&#45;&gt;Node1 -->
<g id="edge1" class="edge">
<title>Node2&#45;&gt;Node1</title>
<path fill="none" stroke="#63b8ff" d="M65,-177.11C65,-168.52 65,-158.97 65,-152.25"/>
<polygon fill="#63b8ff" stroke="#63b8ff" points="61.5,-177.07 65,-187.07 68.5,-177.07 61.5,-177.07"/>
</g>
<!-- Node3 -->
<g id="node3" class="node">
<title>Node3</title>
<g id="a_node3"><a xlink:href="classbit7z_1_1_bit_abstract_archive_handler.html" target="_top" xlink:title="Abstract class representing a generic archive handler.">
<polygon fill="white" stroke="#666666" points="130,-264 0,-264 0,-245 130,-245 130,-264"/>
<text text-anchor="middle" x="65" y="-252" font-family="Helvetica,sans-Serif" font-size="10.00">BitAbstractArchiveHandler</text>
</a>
</g>
</g>
<!-- Node3&#45;&gt;Node2 -->
<g id="edge2" class="edge">
<title>Node3&#45;&gt;Node2</title>
<path fill="none" stroke="#63b8ff" d="M65,-233.11C65,-224.52 65,-214.97 65,-208.25"/>
<polygon fill="#63b8ff" stroke="#63b8ff" points="61.5,-233.07 65,-243.07 68.5,-233.07 61.5,-233.07"/>
</g>
<!-- Node5 -->
<g id="node5" class="node">
<title>Node5</title>
<g id="a_node5"><a xlink:href="classbit7z_1_1_bit_file_compressor.html" target="_top" xlink:title="The BitFileCompressor class allows compressing files and directories.">
<polygon fill="white" stroke="#666666" points="113.5,-19 16.5,-19 16.5,0 113.5,0 113.5,-19"/>
<text text-anchor="middle" x="65" y="-7" font-family="Helvetica,sans-Serif" font-size="10.00">BitFileCompressor</text>
</a>
</g>
</g>
<!-- Node4&#45;&gt;Node5 -->
<g id="edge4" class="edge">
<title>Node4&#45;&gt;Node5</title>
<path fill="none" stroke="#63b8ff" d="M65,-44.13C65,-35.29 65,-25.99 65,-19.42"/>
<polygon fill="#63b8ff" stroke="#63b8ff" points="61.5,-44.08 65,-54.08 68.5,-44.08 61.5,-44.08"/>
</g>
</g>
</svg>
