<?xml version="1.0" encoding="UTF-8" standalone="no"?>
<!DOCTYPE svg PUBLIC "-//W3C//DTD SVG 1.1//EN"
 "http://www.w3.org/Graphics/SVG/1.1/DTD/svg11.dtd">
<!-- Generated by graphviz version 8.1.0 (20230707.0739)
 -->
<!-- Title: BitFileCompressor Pages: 1 -->
<svg width="208pt" height="279pt"
 viewBox="0.00 0.00 208.38 279.00" xmlns="http://www.w3.org/2000/svg" xmlns:xlink="http://www.w3.org/1999/xlink">
<g id="graph0" class="graph" transform="scale(1 1) rotate(0) translate(4 275)">
<title>BitFileCompressor</title>
<!-- Node1 -->
<g id="Node000001" class="node">
<title>Node1</title>
<g id="a_Node000001"><a xlink:title="The BitFileCompressor class allows compressing files and directories.">
<polygon fill="#999999" stroke="#666666" points="116.75,-20 20.5,-20 20.5,0 116.75,0 116.75,-20"/>
<text text-anchor="middle" x="68.62" y="-6.5" font-family="Helvetica,sans-Serif" font-size="10.00">BitFileCompressor</text>
</a>
</g>
</g>
<!-- Node2 -->
<g id="Node000002" class="node">
<title>Node2</title>
<g id="a_Node000002"><a xlink:href="classbit7z_1_1_bit_compressor.html" target="_top" xlink:title=" ">
<polygon fill="white" stroke="#666666" points="125.38,-89 11.88,-89 11.88,-57 125.38,-57 125.38,-89"/>
<text text-anchor="start" x="19.88" y="-75.5" font-family="Helvetica,sans-Serif" font-size="10.00">BitCompressor&lt; const</text>
<text text-anchor="middle" x="68.62" y="-63.5" font-family="Helvetica,sans-Serif" font-size="10.00"> tstring &amp; &gt;</text>
</a>
</g>
</g>
<!-- Node2&#45;&gt;Node1 -->
<g id="edge1_Node000001_Node000002" class="edge">
<title>Node2&#45;&gt;Node1</title>
<g id="a_edge1_Node000001_Node000002"><a xlink:title=" ">
<path fill="none" stroke="#63b8ff" d="M68.62,-45.67C68.62,-36.62 68.62,-27.08 68.62,-20.31"/>
<polygon fill="#63b8ff" stroke="#63b8ff" points="65.13,-45.61 68.62,-55.61 72.13,-45.61 65.13,-45.61"/>
</a>
</g>
</g>
<!-- Node3 -->
<g id="Node000003" class="node">
<title>Node3</title>
<g id="a_Node000003"><a xlink:href="classbit7z_1_1_bit_abstract_archive_creator.html" target="_top" xlink:title="Abstract class representing a generic archive creator.">
<polygon fill="white" stroke="#666666" points="128.5,-214 0.75,-214 0.75,-194 128.5,-194 128.5,-214"/>
<text text-anchor="middle" x="64.62" y="-200.5" font-family="Helvetica,sans-Serif" font-size="10.00">BitAbstractArchiveCreator</text>
</a>
</g>
</g>
<!-- Node3&#45;&gt;Node2 -->
<g id="edge2_Node000002_Node000003" class="edge">
<title>Node3&#45;&gt;Node2</title>
<g id="a_edge2_Node000002_Node000003"><a xlink:title=" ">
<path fill="none" stroke="#63b8ff" d="M65.24,-183.01C66.05,-157.17 67.42,-112.75 68.15,-89.39"/>
<polygon fill="#63b8ff" stroke="#63b8ff" points="61.72,-182.62 64.91,-192.72 68.72,-182.84 61.72,-182.62"/>
</a>
</g>
</g>
<!-- Node5 -->
<g id="Node000005" class="node">
<title>Node5</title>
<g id="a_Node000005"><a xlink:href="classbit7z_1_1_bit_compressor.html" target="_top" xlink:title="The BitCompressor template class allows compressing files into archives.">
<polygon fill="white" stroke="#666666" points="200.38,-157 80.88,-157 80.88,-137 200.38,-137 200.38,-157"/>
<text text-anchor="middle" x="140.62" y="-143.5" font-family="Helvetica,sans-Serif" font-size="10.00">BitCompressor&lt; Input &gt;</text>
</a>
</g>
</g>
<!-- Node3&#45;&gt;Node5 -->
<g id="edge5_Node000005_Node000003" class="edge">
<title>Node3&#45;&gt;Node5</title>
<g id="a_edge5_Node000005_Node000003"><a xlink:title=" ">
<path fill="none" stroke="#63b8ff" d="M86.14,-187.43C99.52,-177.75 116.29,-165.61 127.67,-157.38"/>
<polygon fill="#63b8ff" stroke="#63b8ff" points="84.57,-184.97 78.52,-193.67 88.67,-190.64 84.57,-184.97"/>
</a>
</g>
</g>
<!-- Node4 -->
<g id="Node000004" class="node">
<title>Node4</title>
<g id="a_Node000004"><a xlink:href="classbit7z_1_1_bit_abstract_archive_handler.html" target="_top" xlink:title="Abstract class representing a generic archive handler.">
<polygon fill="white" stroke="#666666" points="129.25,-271 0,-271 0,-251 129.25,-251 129.25,-271"/>
<text text-anchor="middle" x="64.62" y="-257.5" font-family="Helvetica,sans-Serif" font-size="10.00">BitAbstractArchiveHandler</text>
</a>
</g>
</g>
<!-- Node4&#45;&gt;Node3 -->
<g id="edge3_Node000003_Node000004" class="edge">
<title>Node4&#45;&gt;Node3</title>
<g id="a_edge3_Node000003_Node000004"><a xlink:title=" ">
<path fill="none" stroke="#63b8ff" d="M64.62,-239.99C64.62,-231.2 64.62,-221.3 64.62,-214.28"/>
<polygon fill="#63b8ff" stroke="#63b8ff" points="61.13,-239.92 64.62,-249.92 68.13,-239.92 61.13,-239.92"/>
</a>
</g>
</g>
<!-- Node5&#45;&gt;Node2 -->
<g id="edge4_Node000002_Node000005" class="edge">
<title>Node5&#45;&gt;Node2</title>
<g id="a_edge4_Node000002_Node000005"><a xlink:title=" ">
<path fill="none" stroke="orange" stroke-dasharray="5,2" d="M123.65,-129.02C111.66,-117.04 95.73,-101.11 84.1,-89.47"/>
<polygon fill="orange" stroke="orange" points="120.67,-130.99 130.21,-135.59 125.62,-126.04 120.67,-130.99"/>
</a>
</g>
<text text-anchor="middle" x="155" y="-109.5" font-family="Helvetica,sans-Serif" font-size="10.00" fill="grey"> &lt; const tstring &amp; &gt;</text>
</g>
</g>
</svg>
