<?xml version="1.0" encoding="UTF-8" standalone="no"?>
<!DOCTYPE svg PUBLIC "-//W3C//DTD SVG 1.1//EN"
 "http://www.w3.org/Graphics/SVG/1.1/DTD/svg11.dtd">
<!-- Generated by graphviz version 7.0.6 (20230106.0513)
 -->
<!-- Title: BitArchiveReader Pages: 1 -->
<svg width="237pt" height="137pt"
 viewBox="0.00 0.00 236.50 137.00" xmlns="http://www.w3.org/2000/svg" xmlns:xlink="http://www.w3.org/1999/xlink">
<g id="graph0" class="graph" transform="scale(1 1) rotate(0) translate(4 133)">
<title>BitArchiveReader</title>
<!-- Node1 -->
<g id="node1" class="node">
<title>Node1</title>
<g id="a_node1"><a xlink:title="The BitArchiveReader class allows reading metadata of archives, as well as extracting them.">
<polygon fill="#999999" stroke="#666666" points="171.5,-19 80.5,-19 80.5,0 171.5,0 171.5,-19"/>
<text text-anchor="middle" x="126" y="-7" font-family="Helvetica,sans-Serif" font-size="10.00">BitArchiveReader</text>
</a>
</g>
</g>
<!-- Node2 -->
<g id="node2" class="node">
<title>Node2</title>
<g id="a_node2"><a xlink:href="classbit7z_1_1_bit_abstract_archive_opener.html" target="_top" xlink:title="The BitAbstractArchiveOpener abstract class represents a generic archive opener.">
<polygon fill="white" stroke="#666666" points="129,-74 1,-74 1,-55 129,-55 129,-74"/>
<text text-anchor="middle" x="65" y="-62" font-family="Helvetica,sans-Serif" font-size="10.00">BitAbstractArchiveOpener</text>
</a>
</g>
</g>
<!-- Node2&#45;&gt;Node1 -->
<g id="edge1" class="edge">
<title>Node2&#45;&gt;Node1</title>
<path fill="none" stroke="#63b8ff" d="M83.89,-47.09C94.42,-37.94 107.12,-26.9 115.81,-19.36"/>
<polygon fill="#63b8ff" stroke="#63b8ff" points="81.74,-44.32 76.49,-53.52 86.33,-49.6 81.74,-44.32"/>
</g>
<!-- Node3 -->
<g id="node3" class="node">
<title>Node3</title>
<g id="a_node3"><a xlink:href="classbit7z_1_1_bit_abstract_archive_handler.html" target="_top" xlink:title="Abstract class representing a generic archive handler.">
<polygon fill="white" stroke="#666666" points="130,-129 0,-129 0,-110 130,-110 130,-129"/>
<text text-anchor="middle" x="65" y="-117" font-family="Helvetica,sans-Serif" font-size="10.00">BitAbstractArchiveHandler</text>
</a>
</g>
</g>
<!-- Node3&#45;&gt;Node2 -->
<g id="edge2" class="edge">
<title>Node3&#45;&gt;Node2</title>
<path fill="none" stroke="#63b8ff" d="M65,-98.35C65,-90.1 65,-80.97 65,-74.44"/>
<polygon fill="#63b8ff" stroke="#63b8ff" points="61.5,-98.23 65,-108.23 68.5,-98.23 61.5,-98.23"/>
</g>
<!-- Node4 -->
<g id="node4" class="node">
<title>Node4</title>
<g id="a_node4"><a xlink:href="classbit7z_1_1_bit_input_archive.html" target="_top" xlink:title="The BitInputArchive class, given a handler object, allows reading/extracting the content of archives.">
<polygon fill="white" stroke="#666666" points="228.5,-74 147.5,-74 147.5,-55 228.5,-55 228.5,-74"/>
<text text-anchor="middle" x="188" y="-62" font-family="Helvetica,sans-Serif" font-size="10.00">BitInputArchive</text>
</a>
</g>
</g>
<!-- Node4&#45;&gt;Node1 -->
<g id="edge3" class="edge">
<title>Node4&#45;&gt;Node1</title>
<path fill="none" stroke="#63b8ff" d="M168.8,-47.09C158.1,-37.94 145.19,-26.9 136.36,-19.36"/>
<polygon fill="#63b8ff" stroke="#63b8ff" points="166.46,-49.69 176.33,-53.53 171.01,-44.37 166.46,-49.69"/>
</g>
</g>
</svg>
