<?xml version="1.0" encoding="UTF-8" standalone="no"?>
<!DOCTYPE svg PUBLIC "-//W3C//DTD SVG 1.1//EN"
 "http://www.w3.org/Graphics/SVG/1.1/DTD/svg11.dtd">
<!-- Generated by graphviz version 15.0.0 (20260523.1842)
 -->
<!-- Title: BitAbstractArchiveOpener Pages: 1 -->
<svg width="697pt" height="274pt"
 viewBox="0.00 0.00 697.00 274.00" xmlns="http://www.w3.org/2000/svg" xmlns:xlink="http://www.w3.org/1999/xlink">
<g id="graph0" class="graph" transform="scale(1 1) rotate(0) translate(4 270)">
<title>BitAbstractArchiveOpener</title>
<!-- Node1 -->
<g id="Node000001" class="node">
<title>Node1</title>
<g id="a_Node000001"><a xlink:title="The BitAbstractArchiveOpener abstract class represents a generic archive opener.">
<polygon fill="#999999" stroke="#666666" points="297.75,-115 168.5,-115 168.5,-95 297.75,-95 297.75,-115"/>
<text xml:space="preserve" text-anchor="middle" x="233.12" y="-101.5" font-family="Helvetica,sans-Serif" font-size="10.00">BitAbstractArchiveOpener</text>
</a>
</g>
</g>
<!-- Node3 -->
<g id="Node000003" class="node">
<title>Node3</title>
<g id="a_Node000003"><a xlink:href="classbit7z_1_1_bit_extractor.html" target="_top" xlink:title=" ">
<polygon fill="white" stroke="#666666" points="688.5,-266 587.75,-266 587.75,-234 688.5,-234 688.5,-266"/>
<text xml:space="preserve" text-anchor="start" x="595.75" y="-252.5" font-family="Helvetica,sans-Serif" font-size="10.00">BitExtractor&lt; const</text>
<text xml:space="preserve" text-anchor="middle" x="638.12" y="-240.5" font-family="Helvetica,sans-Serif" font-size="10.00"> tstring &amp; &gt;</text>
</a>
</g>
</g>
<!-- Node1&#45;&gt;Node3 -->
<g id="edge2_Node000001_Node000003" class="edge">
<title>Node1&#45;&gt;Node3</title>
<g id="a_edge2_Node000001_Node000003"><a xlink:title=" ">
<path fill="none" stroke="#63b8ff" d="M248.88,-124.14C266.94,-146.38 299.5,-182.88 334.75,-205 425.2,-261.76 463.04,-258.95 569.75,-255 575.49,-254.79 581.51,-254.47 587.48,-254.1"/>
<polygon fill="#63b8ff" stroke="#63b8ff" points="251.75,-122.13 242.79,-116.47 246.27,-126.48 251.75,-122.13"/>
</a>
</g>
</g>
<!-- Node4 -->
<g id="Node000004" class="node">
<title>Node4</title>
<g id="a_Node000004"><a xlink:href="classbit7z_1_1_bit_extractor.html" target="_top" xlink:title=" ">
<polygon fill="white" stroke="#666666" points="688.5,-203 587.75,-203 587.75,-171 688.5,-171 688.5,-203"/>
<text xml:space="preserve" text-anchor="start" x="595.75" y="-189.5" font-family="Helvetica,sans-Serif" font-size="10.00">BitExtractor&lt; const</text>
<text xml:space="preserve" text-anchor="middle" x="638.12" y="-177.5" font-family="Helvetica,sans-Serif" font-size="10.00"> buffer_t &amp; &gt;</text>
</a>
</g>
</g>
<!-- Node1&#45;&gt;Node4 -->
<g id="edge3_Node000001_Node000004" class="edge">
<title>Node1&#45;&gt;Node4</title>
<g id="a_edge3_Node000001_Node000004"><a xlink:title=" ">
<path fill="none" stroke="#63b8ff" d="M309.47,-110.31C400.97,-117.08 546.07,-128.99 569.75,-138 588.81,-145.25 607.31,-159.38 620.09,-170.61"/>
<polygon fill="#63b8ff" stroke="#63b8ff" points="309.78,-106.82 299.55,-109.58 309.27,-113.8 309.78,-106.82"/>
</a>
</g>
</g>
<!-- Node5 -->
<g id="Node000005" class="node">
<title>Node5</title>
<g id="a_Node000005"><a xlink:title=" ">
<polygon fill="white" stroke="#666666" points="686.25,-127 590,-127 590,-95 686.25,-95 686.25,-127"/>
<text xml:space="preserve" text-anchor="start" x="598" y="-113.5" font-family="Helvetica,sans-Serif" font-size="10.00">BitExtractor&lt; std::</text>
<text xml:space="preserve" text-anchor="middle" x="638.12" y="-101.5" font-family="Helvetica,sans-Serif" font-size="10.00">istream &amp; &gt;</text>
</a>
</g>
</g>
<!-- Node1&#45;&gt;Node5 -->
<g id="edge4_Node000001_Node000005" class="edge">
<title>Node1&#45;&gt;Node5</title>
<g id="a_edge4_Node000001_Node000005"><a xlink:title=" ">
<path fill="none" stroke="#63b8ff" d="M309.25,-106.12C391.38,-107.34 520.49,-109.26 589.64,-110.29"/>
<polygon fill="#63b8ff" stroke="#63b8ff" points="309.55,-102.62 299.49,-105.97 309.44,-109.62 309.55,-102.62"/>
</a>
</g>
</g>
<!-- Node6 -->
<g id="Node000006" class="node">
<title>Node6</title>
<g id="a_Node000006"><a xlink:href="classbit7z_1_1_bit_archive_reader.html" target="_top" xlink:title="The BitArchiveReader class allows reading metadata of archives, as well as extracting them.">
<polygon fill="white" stroke="#666666" points="443,-58 350.5,-58 350.5,-38 443,-38 443,-58"/>
<text xml:space="preserve" text-anchor="middle" x="396.75" y="-44.5" font-family="Helvetica,sans-Serif" font-size="10.00">BitArchiveReader</text>
</a>
</g>
</g>
<!-- Node1&#45;&gt;Node6 -->
<g id="edge5_Node000001_Node000006" class="edge">
<title>Node1&#45;&gt;Node6</title>
<g id="a_edge5_Node000001_Node000006"><a xlink:title=" ">
<path fill="none" stroke="#63b8ff" d="M268.66,-90.21C283.1,-84.25 300.12,-77.49 315.75,-72 329.57,-67.15 344.93,-62.39 358.48,-58.4"/>
<polygon fill="#63b8ff" stroke="#63b8ff" points="267.46,-86.92 259.58,-94 270.16,-93.38 267.46,-86.92"/>
</a>
</g>
</g>
<!-- Node7 -->
<g id="Node000007" class="node">
<title>Node7</title>
<g id="a_Node000007"><a xlink:href="classbit7z_1_1_bit_extractor.html" target="_top" xlink:title="The BitExtractor template class allows extracting the content of archives from supported input types.">
<polygon fill="white" stroke="#666666" points="450.5,-196 343,-196 343,-176 450.5,-176 450.5,-196"/>
<text xml:space="preserve" text-anchor="middle" x="396.75" y="-182.5" font-family="Helvetica,sans-Serif" font-size="10.00">BitExtractor&lt; Input &gt;</text>
</a>
</g>
</g>
<!-- Node1&#45;&gt;Node7 -->
<g id="edge6_Node000001_Node000007" class="edge">
<title>Node1&#45;&gt;Node7</title>
<g id="a_edge6_Node000001_Node000007"><a xlink:title=" ">
<path fill="none" stroke="#63b8ff" d="M265.16,-120.55C297.48,-136.75 347.19,-161.66 375.03,-175.62"/>
<polygon fill="#63b8ff" stroke="#63b8ff" points="266.79,-117.45 256.28,-116.1 263.65,-123.71 266.79,-117.45"/>
</a>
</g>
</g>
<!-- Node8 -->
<g id="Node000008" class="node">
<title>Node8</title>
<g id="a_Node000008"><a xlink:href="classbit7z_1_1_bit_nested_archive_reader.html" target="_top" xlink:title="The BitNestedArchiveReader class allows reading and extracting nested archives (e....">
<polygon fill="white" stroke="#666666" points="458.75,-20 334.75,-20 334.75,0 458.75,0 458.75,-20"/>
<text xml:space="preserve" text-anchor="middle" x="396.75" y="-6.5" font-family="Helvetica,sans-Serif" font-size="10.00">BitNestedArchiveReader</text>
</a>
</g>
</g>
<!-- Node1&#45;&gt;Node8 -->
<g id="edge10_Node000001_Node000008" class="edge">
<title>Node1&#45;&gt;Node8</title>
<g id="a_edge10_Node000001_Node000008"><a xlink:title=" ">
<path fill="none" stroke="#63b8ff" d="M253.5,-87.1C272.81,-70.09 303.96,-44.81 334.75,-29 341.16,-25.71 348.25,-22.86 355.26,-20.45"/>
<polygon fill="#63b8ff" stroke="#63b8ff" points="251.25,-84.42 246.15,-93.7 255.93,-89.63 251.25,-84.42"/>
</a>
</g>
</g>
<!-- Node2 -->
<g id="Node000002" class="node">
<title>Node2</title>
<g id="a_Node000002"><a xlink:href="classbit7z_1_1_bit_abstract_archive_handler.html" target="_top" xlink:title="Abstract class representing a generic archive handler.">
<polygon fill="white" stroke="#666666" points="131.5,-115 0,-115 0,-95 131.5,-95 131.5,-115"/>
<text xml:space="preserve" text-anchor="middle" x="65.75" y="-101.5" font-family="Helvetica,sans-Serif" font-size="10.00">BitAbstractArchiveHandler</text>
</a>
</g>
</g>
<!-- Node2&#45;&gt;Node1 -->
<g id="edge1_Node000001_Node000002" class="edge">
<title>Node2&#45;&gt;Node1</title>
<g id="a_edge1_Node000001_Node000002"><a xlink:title=" ">
<path fill="none" stroke="#63b8ff" d="M143.04,-105C151.47,-105 159.99,-105 168.24,-105"/>
<polygon fill="#63b8ff" stroke="#63b8ff" points="143.15,-101.5 133.15,-105 143.15,-108.5 143.15,-101.5"/>
</a>
</g>
</g>
<!-- Node7&#45;&gt;Node3 -->
<g id="edge7_Node000007_Node000003" class="edge">
<title>Node7&#45;&gt;Node3</title>
<g id="a_edge7_Node000007_Node000003"><a xlink:title=" ">
<path fill="none" stroke="orange" stroke-dasharray="5,2" d="M443.66,-199.64C454.49,-202.79 466.01,-206.07 476.75,-209 513.76,-219.11 555.78,-229.83 587.52,-237.77"/>
<polygon fill="orange" stroke="orange" points="444.71,-196.31 434.13,-196.86 442.75,-203.03 444.71,-196.31"/>
</a>
</g>
<text xml:space="preserve" text-anchor="start" x="482.38" y="-238.09" font-family="Helvetica,sans-Serif" font-size="10.00" fill="grey">&lt; const tstring &amp; &gt;</text>
</g>
<!-- Node7&#45;&gt;Node4 -->
<g id="edge8_Node000007_Node000004" class="edge">
<title>Node7&#45;&gt;Node4</title>
<g id="a_edge8_Node000007_Node000004"><a xlink:title=" ">
<path fill="none" stroke="orange" stroke-dasharray="5,2" d="M462.21,-186.27C501.56,-186.43 551.11,-186.64 587.42,-186.79"/>
<polygon fill="orange" stroke="orange" points="462.4,-182.77 452.39,-186.23 462.37,-189.77 462.4,-182.77"/>
</a>
</g>
<text xml:space="preserve" text-anchor="start" x="479.75" y="-191.95" font-family="Helvetica,sans-Serif" font-size="10.00" fill="grey">&lt; const buffer_t &amp; &gt;</text>
</g>
<!-- Node7&#45;&gt;Node5 -->
<g id="edge9_Node000007_Node000005" class="edge">
<title>Node7&#45;&gt;Node5</title>
<g id="a_edge9_Node000007_Node000005"><a xlink:title=" ">
<path fill="none" stroke="orange" stroke-dasharray="5,2" d="M442.01,-172.13C483.95,-158.99 546.75,-139.32 589.7,-125.86"/>
<polygon fill="orange" stroke="orange" points="440.97,-168.79 432.48,-175.12 443.07,-175.47 440.97,-168.79"/>
</a>
</g>
<text xml:space="preserve" text-anchor="start" x="483.5" y="-164.85" font-family="Helvetica,sans-Serif" font-size="10.00" fill="grey">&lt; std::istream &amp; &gt;</text>
</g>
</g>
</svg>
