<?xml version="1.0" encoding="UTF-8" standalone="no"?>
<!DOCTYPE svg PUBLIC "-//W3C//DTD SVG 1.1//EN"
 "http://www.w3.org/Graphics/SVG/1.1/DTD/svg11.dtd">
<!-- Generated by graphviz version 15.0.0 (20260523.1842)
 -->
<!-- Title: BitFileCompressor Pages: 1 -->
<svg width="213pt" height="285pt"
 viewBox="0.00 0.00 213.00 285.00" xmlns="http://www.w3.org/2000/svg" xmlns:xlink="http://www.w3.org/1999/xlink">
<g id="graph0" class="graph" transform="scale(1 1) rotate(0) translate(4 281)">
<title>BitFileCompressor</title>
<!-- Node1 -->
<g id="Node000001" class="node">
<title>Node1</title>
<g id="a_Node000001"><a xlink:title="The BitFileCompressor class allows compressing files and directories.">
<polygon fill="#999999" stroke="#666666" points="118.25,-20 21.25,-20 21.25,0 118.25,0 118.25,-20"/>
<text xml:space="preserve" text-anchor="middle" x="69.75" y="-6.5" font-family="Helvetica,sans-Serif" font-size="10.00">BitFileCompressor</text>
</a>
</g>
</g>
<!-- Node2 -->
<g id="Node000002" class="node">
<title>Node2</title>
<g id="a_Node000002"><a xlink:href="classbit7z_1_1_bit_compressor.html" target="_top" xlink:title=" ">
<polygon fill="white" stroke="#666666" points="126.88,-89 12.62,-89 12.62,-57 126.88,-57 126.88,-89"/>
<text xml:space="preserve" text-anchor="start" x="20.62" y="-75.5" font-family="Helvetica,sans-Serif" font-size="10.00">BitCompressor&lt; const</text>
<text xml:space="preserve" text-anchor="middle" x="69.75" y="-63.5" font-family="Helvetica,sans-Serif" font-size="10.00"> tstring &amp; &gt;</text>
</a>
</g>
</g>
<!-- Node2&#45;&gt;Node1 -->
<g id="edge1_Node000001_Node000002" class="edge">
<title>Node2&#45;&gt;Node1</title>
<g id="a_edge1_Node000001_Node000002"><a xlink:title=" ">
<path fill="none" stroke="#63b8ff" d="M69.75,-45.36C69.75,-36.41 69.75,-27.01 69.75,-20.31"/>
<polygon fill="#63b8ff" stroke="#63b8ff" points="66.25,-45.09 69.75,-55.09 73.25,-45.09 66.25,-45.09"/>
</a>
</g>
</g>
<!-- Node3 -->
<g id="Node000003" class="node">
<title>Node3</title>
<g id="a_Node000003"><a xlink:href="classbit7z_1_1_bit_abstract_archive_creator.html" target="_top" xlink:title="Abstract class representing a generic archive creator.">
<polygon fill="white" stroke="#666666" points="130.75,-220 0.75,-220 0.75,-200 130.75,-200 130.75,-220"/>
<text xml:space="preserve" text-anchor="middle" x="65.75" y="-206.5" font-family="Helvetica,sans-Serif" font-size="10.00">BitAbstractArchiveCreator</text>
</a>
</g>
</g>
<!-- Node3&#45;&gt;Node2 -->
<g id="edge2_Node000002_Node000003" class="edge">
<title>Node3&#45;&gt;Node2</title>
<g id="a_edge2_Node000002_Node000003"><a xlink:title=" ">
<path fill="none" stroke="#63b8ff" d="M66.36,-188.47C67.17,-161.22 68.57,-113.71 69.3,-89.35"/>
<polygon fill="#63b8ff" stroke="#63b8ff" points="62.87,-188.11 66.07,-198.21 69.86,-188.32 62.87,-188.11"/>
</a>
</g>
</g>
<!-- Node5 -->
<g id="Node000005" class="node">
<title>Node5</title>
<g id="a_Node000005"><a xlink:href="classbit7z_1_1_bit_compressor.html" target="_top" xlink:title="The BitCompressor template class allows compressing files into archives.">
<polygon fill="white" stroke="#666666" points="203.25,-163 82.25,-163 82.25,-143 203.25,-143 203.25,-163"/>
<text xml:space="preserve" text-anchor="middle" x="142.75" y="-149.5" font-family="Helvetica,sans-Serif" font-size="10.00">BitCompressor&lt; Input &gt;</text>
</a>
</g>
</g>
<!-- Node3&#45;&gt;Node5 -->
<g id="edge5_Node000005_Node000003" class="edge">
<title>Node3&#45;&gt;Node5</title>
<g id="a_edge5_Node000005_Node000003"><a xlink:title=" ">
<path fill="none" stroke="#63b8ff" d="M87.94,-193.15C101.43,-183.51 118.21,-171.53 129.62,-163.38"/>
<polygon fill="#63b8ff" stroke="#63b8ff" points="86.15,-190.13 80.04,-198.79 90.22,-195.83 86.15,-190.13"/>
</a>
</g>
</g>
<!-- Node4 -->
<g id="Node000004" class="node">
<title>Node4</title>
<g id="a_Node000004"><a xlink:href="classbit7z_1_1_bit_abstract_archive_handler.html" target="_top" xlink:title="Abstract class representing a generic archive handler.">
<polygon fill="white" stroke="#666666" points="131.5,-277 0,-277 0,-257 131.5,-257 131.5,-277"/>
<text xml:space="preserve" text-anchor="middle" x="65.75" y="-263.5" font-family="Helvetica,sans-Serif" font-size="10.00">BitAbstractArchiveHandler</text>
</a>
</g>
</g>
<!-- Node4&#45;&gt;Node3 -->
<g id="edge3_Node000003_Node000004" class="edge">
<title>Node4&#45;&gt;Node3</title>
<g id="a_edge3_Node000003_Node000004"><a xlink:title=" ">
<path fill="none" stroke="#63b8ff" d="M65.75,-245.69C65.75,-236.97 65.75,-227.22 65.75,-220.28"/>
<polygon fill="#63b8ff" stroke="#63b8ff" points="62.25,-245.4 65.75,-255.4 69.25,-245.4 62.25,-245.4"/>
</a>
</g>
</g>
<!-- Node5&#45;&gt;Node2 -->
<g id="edge4_Node000002_Node000005" class="edge">
<title>Node5&#45;&gt;Node2</title>
<g id="a_edge4_Node000002_Node000005"><a xlink:title=" ">
<path fill="none" stroke="orange" stroke-dasharray="5,2" d="M126.55,-134.69C113.87,-121.14 96.39,-102.46 84.18,-89.42"/>
<polygon fill="orange" stroke="orange" points="123.67,-136.73 133.06,-141.64 128.78,-131.95 123.67,-136.73"/>
</a>
</g>
<text xml:space="preserve" text-anchor="start" x="120.05" y="-112.25" font-family="Helvetica,sans-Serif" font-size="10.00" fill="grey">&lt; const tstring &amp; &gt;</text>
</g>
</g>
</svg>
