<?xml version="1.0" encoding="UTF-8" standalone="no"?>
<!DOCTYPE svg PUBLIC "-//W3C//DTD SVG 1.1//EN"
 "http://www.w3.org/Graphics/SVG/1.1/DTD/svg11.dtd">
<!-- Generated by graphviz version 7.0.6 (20230106.0513)
 -->
<!-- Title: BitAbstractArchiveHandler Pages: 1 -->
<svg width="829pt" height="177pt"
 viewBox="0.00 0.00 829.00 177.00" xmlns="http://www.w3.org/2000/svg" xmlns:xlink="http://www.w3.org/1999/xlink">
<g id="graph0" class="graph" transform="scale(1 1) rotate(0) translate(4 173)">
<title>BitAbstractArchiveHandler</title>
<!-- Node1 -->
<g id="node1" class="node">
<title>Node1</title>
<g id="a_node1"><a xlink:title="Abstract class representing a generic archive handler.">
<polygon fill="#999999" stroke="#666666" points="130,-74 0,-74 0,-55 130,-55 130,-74"/>
<text text-anchor="middle" x="65" y="-62" font-family="Helvetica,sans-Serif" font-size="10.00">BitAbstractArchiveHandler</text>
</a>
</g>
</g>
<!-- Node2 -->
<g id="node2" class="node">
<title>Node2</title>
<g id="a_node2"><a xlink:href="classbit7z_1_1_bit_abstract_archive_creator.html" target="_top" xlink:title="Abstract class representing a generic archive creator.">
<polygon fill="white" stroke="#666666" points="295,-109 167,-109 167,-90 295,-90 295,-109"/>
<text text-anchor="middle" x="231" y="-97" font-family="Helvetica,sans-Serif" font-size="10.00">BitAbstractArchiveCreator</text>
</a>
</g>
</g>
<!-- Node1&#45;&gt;Node2 -->
<g id="edge1" class="edge">
<title>Node1&#45;&gt;Node2</title>
<path fill="none" stroke="#63b8ff" d="M123.77,-76.83C143.28,-80.99 164.79,-85.58 183.33,-89.54"/>
<polygon fill="#63b8ff" stroke="#63b8ff" points="124.55,-73.42 114.04,-74.75 123.09,-80.26 124.55,-73.42"/>
</g>
<!-- Node8 -->
<g id="node8" class="node">
<title>Node8</title>
<g id="a_node8"><a xlink:href="classbit7z_1_1_bit_abstract_archive_opener.html" target="_top" xlink:title="The BitAbstractArchiveOpener abstract class represents a generic archive opener.">
<polygon fill="white" stroke="#666666" points="295,-56 167,-56 167,-37 295,-37 295,-56"/>
<text text-anchor="middle" x="231" y="-44" font-family="Helvetica,sans-Serif" font-size="10.00">BitAbstractArchiveOpener</text>
</a>
</g>
</g>
<!-- Node1&#45;&gt;Node8 -->
<g id="edge8" class="edge">
<title>Node1&#45;&gt;Node8</title>
<path fill="none" stroke="#63b8ff" d="M141.66,-56.2C150.01,-55.28 158.46,-54.35 166.65,-53.45"/>
<polygon fill="#63b8ff" stroke="#63b8ff" points="141.41,-52.7 131.85,-57.27 142.17,-59.66 141.41,-52.7"/>
</g>
<!-- Node3 -->
<g id="node3" class="node">
<title>Node3</title>
<g id="a_node3"><a xlink:href="classbit7z_1_1_bit_compressor.html" target="_top" xlink:title=" ">
<polygon fill="white" stroke="#666666" points="687,-115.5 573,-115.5 573,-85.5 687,-85.5 687,-115.5"/>
<text text-anchor="start" x="581" y="-103.5" font-family="Helvetica,sans-Serif" font-size="10.00">BitCompressor&lt; const</text>
<text text-anchor="middle" x="630" y="-92.5" font-family="Helvetica,sans-Serif" font-size="10.00"> tstring &amp; &gt;</text>
</a>
</g>
</g>
<!-- Node2&#45;&gt;Node3 -->
<g id="edge2" class="edge">
<title>Node2&#45;&gt;Node3</title>
<path fill="none" stroke="#63b8ff" d="M306.43,-99.69C383.69,-99.88 502.82,-100.18 572.63,-100.36"/>
<polygon fill="#63b8ff" stroke="#63b8ff" points="306.87,-96.19 296.86,-99.66 306.85,-103.19 306.87,-96.19"/>
</g>
<!-- Node5 -->
<g id="node5" class="node">
<title>Node5</title>
<g id="a_node5"><a xlink:href="classbit7z_1_1_bit_archive_writer.html" target="_top" xlink:title="The BitArchiveWriter class allows creating new archives or updating old ones with new items.">
<polygon fill="white" stroke="#666666" points="435,-169 349,-169 349,-150 435,-150 435,-169"/>
<text text-anchor="middle" x="392" y="-157" font-family="Helvetica,sans-Serif" font-size="10.00">BitArchiveWriter</text>
</a>
</g>
</g>
<!-- Node2&#45;&gt;Node5 -->
<g id="edge4" class="edge">
<title>Node2&#45;&gt;Node5</title>
<path fill="none" stroke="#63b8ff" d="M264.4,-114.09C283.81,-122.59 309.1,-133.22 332,-141.5 339.75,-144.3 348.18,-147.05 356.18,-149.52"/>
<polygon fill="#63b8ff" stroke="#63b8ff" points="265.93,-110.94 255.37,-110.11 263.11,-117.35 265.93,-110.94"/>
</g>
<!-- Node7 -->
<g id="node7" class="node">
<title>Node7</title>
<g id="a_node7"><a xlink:href="classbit7z_1_1_bit_compressor.html" target="_top" xlink:title="The BitCompressor template class allows compressing files into archives.">
<polygon fill="white" stroke="#666666" points="452,-132 332,-132 332,-113 452,-113 452,-132"/>
<text text-anchor="middle" x="392" y="-120" font-family="Helvetica,sans-Serif" font-size="10.00">BitCompressor&lt; Input &gt;</text>
</a>
</g>
</g>
<!-- Node2&#45;&gt;Node7 -->
<g id="edge6" class="edge">
<title>Node2&#45;&gt;Node7</title>
<path fill="none" stroke="#63b8ff" d="M306.62,-110.29C314.98,-111.5 323.41,-112.72 331.54,-113.9"/>
<polygon fill="#63b8ff" stroke="#63b8ff" points="307.19,-106.84 296.8,-108.87 306.19,-113.77 307.19,-106.84"/>
</g>
<!-- Node4 -->
<g id="node4" class="node">
<title>Node4</title>
<g id="a_node4"><a xlink:href="classbit7z_1_1_bit_file_compressor.html" target="_top" xlink:title="The BitFileCompressor class allows compressing files and directories.">
<polygon fill="white" stroke="#666666" points="821,-110 724,-110 724,-91 821,-91 821,-110"/>
<text text-anchor="middle" x="772.5" y="-98" font-family="Helvetica,sans-Serif" font-size="10.00">BitFileCompressor</text>
</a>
</g>
</g>
<!-- Node3&#45;&gt;Node4 -->
<g id="edge3" class="edge">
<title>Node3&#45;&gt;Node4</title>
<path fill="none" stroke="#63b8ff" d="M698.77,-100.5C707.2,-100.5 715.69,-100.5 723.73,-100.5"/>
<polygon fill="#63b8ff" stroke="#63b8ff" points="698.85,-97 688.85,-100.5 698.85,-104 698.85,-97"/>
</g>
<!-- Node6 -->
<g id="node6" class="node">
<title>Node6</title>
<g id="a_node6"><a xlink:href="classbit7z_1_1_bit_archive_editor.html" target="_top" xlink:title="The BitArchiveEditor class allows creating new file archives or updating old ones.">
<polygon fill="white" stroke="#666666" points="673,-169 587,-169 587,-150 673,-150 673,-169"/>
<text text-anchor="middle" x="630" y="-157" font-family="Helvetica,sans-Serif" font-size="10.00">BitArchiveEditor</text>
</a>
</g>
</g>
<!-- Node5&#45;&gt;Node6 -->
<g id="edge5" class="edge">
<title>Node5&#45;&gt;Node6</title>
<path fill="none" stroke="#63b8ff" d="M446.72,-159.5C489.22,-159.5 547.72,-159.5 586.88,-159.5"/>
<polygon fill="#63b8ff" stroke="#63b8ff" points="446.98,-156 436.98,-159.5 446.98,-163 446.98,-156"/>
</g>
<!-- Node7&#45;&gt;Node3 -->
<g id="edge7" class="edge">
<title>Node7&#45;&gt;Node3</title>
<path fill="none" stroke="orange" stroke-dasharray="5,2" d="M463.32,-115.94C498.22,-112.69 539.8,-108.82 572.57,-105.76"/>
<polygon fill="orange" stroke="orange" points="463.39,-112.42 453.76,-116.84 464.04,-119.39 463.39,-112.42"/>
<text text-anchor="middle" x="512.5" y="-117.5" font-family="Helvetica,sans-Serif" font-size="10.00"> &lt; const tstring &amp; &gt;</text>
</g>
<!-- Node9 -->
<g id="node9" class="node">
<title>Node9</title>
<g id="a_node9"><a xlink:href="classbit7z_1_1_bit_archive_reader.html" target="_top" xlink:title="The BitArchiveReader class allows reading metadata of archives, as well as extracting them.">
<polygon fill="white" stroke="#666666" points="437.5,-19 346.5,-19 346.5,0 437.5,0 437.5,-19"/>
<text text-anchor="middle" x="392" y="-7" font-family="Helvetica,sans-Serif" font-size="10.00">BitArchiveReader</text>
</a>
</g>
</g>
<!-- Node8&#45;&gt;Node9 -->
<g id="edge9" class="edge">
<title>Node8&#45;&gt;Node9</title>
<path fill="none" stroke="#63b8ff" d="M285.64,-34.02C306.05,-29.27 329.01,-23.93 348.27,-19.44"/>
<polygon fill="#63b8ff" stroke="#63b8ff" points="285.03,-30.57 276.08,-36.24 286.62,-37.38 285.03,-30.57"/>
</g>
<!-- Node10 -->
<g id="node10" class="node">
<title>Node10</title>
<g id="a_node10"><a xlink:href="classbit7z_1_1_bit_extractor.html" target="_top" xlink:title="The BitExtractor template class allows extracting the content of archives from supported input types.">
<polygon fill="white" stroke="#666666" points="445.5,-56 338.5,-56 338.5,-37 445.5,-37 445.5,-56"/>
<text text-anchor="middle" x="392" y="-44" font-family="Helvetica,sans-Serif" font-size="10.00">BitExtractor&lt; Input &gt;</text>
</a>
</g>
</g>
<!-- Node8&#45;&gt;Node10 -->
<g id="edge10" class="edge">
<title>Node8&#45;&gt;Node10</title>
<path fill="none" stroke="#63b8ff" d="M306.73,-46.5C317.34,-46.5 328.07,-46.5 338.15,-46.5"/>
<polygon fill="#63b8ff" stroke="#63b8ff" points="306.81,-43 296.81,-46.5 306.81,-50 306.81,-43"/>
</g>
</g>
</svg>
