<?xml version="1.0" encoding="UTF-8" standalone="no"?>
<!DOCTYPE svg PUBLIC "-//W3C//DTD SVG 1.1//EN"
 "http://www.w3.org/Graphics/SVG/1.1/DTD/svg11.dtd">
<!-- Generated by graphviz version 8.1.0 (20230707.0739)
 -->
<!-- Title: BitGenericItem Pages: 1 -->
<svg width="224pt" height="140pt"
 viewBox="0.00 0.00 223.50 140.00" xmlns="http://www.w3.org/2000/svg" xmlns:xlink="http://www.w3.org/1999/xlink">
<g id="graph0" class="graph" transform="scale(1 1) rotate(0) translate(4 136)">
<title>BitGenericItem</title>
<!-- Node1 -->
<g id="Node000001" class="node">
<title>Node1</title>
<g id="a_Node000001"><a xlink:title="The BitGenericItem interface class represents a generic item (either inside or outside an archive).">
<polygon fill="#999999" stroke="#666666" points="144.88,-132 64.38,-132 64.38,-112 144.88,-112 144.88,-132"/>
<text text-anchor="middle" x="104.62" y="-118.5" font-family="Helvetica,sans-Serif" font-size="10.00">BitGenericItem</text>
</a>
</g>
</g>
<!-- Node2 -->
<g id="Node000002" class="node">
<title>Node2</title>
<g id="a_Node000002"><a xlink:href="classbit7z_1_1_bit_archive_item.html" target="_top" xlink:title="The BitArchiveItem class represents a generic item inside an archive.">
<polygon fill="white" stroke="#666666" points="143.75,-76 65.5,-76 65.5,-56 143.75,-56 143.75,-76"/>
<text text-anchor="middle" x="104.62" y="-62.5" font-family="Helvetica,sans-Serif" font-size="10.00">BitArchiveItem</text>
</a>
</g>
</g>
<!-- Node1&#45;&gt;Node2 -->
<g id="edge1_Node000001_Node000002" class="edge">
<title>Node1&#45;&gt;Node2</title>
<g id="a_edge1_Node000001_Node000002"><a xlink:title=" ">
<path fill="none" stroke="#63b8ff" d="M104.62,-100.71C104.62,-92.32 104.62,-83.01 104.62,-76.3"/>
<polygon fill="#63b8ff" stroke="#63b8ff" points="101.13,-100.59 104.62,-110.59 108.13,-100.59 101.13,-100.59"/>
</a>
</g>
</g>
<!-- Node3 -->
<g id="Node000003" class="node">
<title>Node3</title>
<g id="a_Node000003"><a xlink:href="classbit7z_1_1_bit_archive_item_info.html" target="_top" xlink:title="The BitArchiveItemInfo class represents an archived item and that stores all its properties for later...">
<polygon fill="white" stroke="#666666" points="93.25,-20 0,-20 0,0 93.25,0 93.25,-20"/>
<text text-anchor="middle" x="46.62" y="-6.5" font-family="Helvetica,sans-Serif" font-size="10.00">BitArchiveItemInfo</text>
</a>
</g>
</g>
<!-- Node2&#45;&gt;Node3 -->
<g id="edge2_Node000002_Node000003" class="edge">
<title>Node2&#45;&gt;Node3</title>
<g id="a_edge2_Node000002_Node000003"><a xlink:title=" ">
<path fill="none" stroke="#63b8ff" d="M86.5,-48.13C76.64,-38.94 64.81,-27.93 56.61,-20.3"/>
<polygon fill="#63b8ff" stroke="#63b8ff" points="83.82,-50.34 93.52,-54.59 88.59,-45.22 83.82,-50.34"/>
</a>
</g>
</g>
<!-- Node4 -->
<g id="Node000004" class="node">
<title>Node4</title>
<g id="a_Node000004"><a xlink:href="classbit7z_1_1_bit_archive_item_offset.html" target="_top" xlink:title="The BitArchiveItemOffset class represents an archived item but doesn&#39;t store its properties.">
<polygon fill="white" stroke="#666666" points="215.5,-20 111.75,-20 111.75,0 215.5,0 215.5,-20"/>
<text text-anchor="middle" x="163.62" y="-6.5" font-family="Helvetica,sans-Serif" font-size="10.00">BitArchiveItemOffset</text>
</a>
</g>
</g>
<!-- Node2&#45;&gt;Node4 -->
<g id="edge3_Node000002_Node000004" class="edge">
<title>Node2&#45;&gt;Node4</title>
<g id="a_edge3_Node000002_Node000004"><a xlink:title=" ">
<path fill="none" stroke="#63b8ff" d="M122.76,-48.4C132.85,-39.17 145.04,-28.01 153.47,-20.3"/>
<polygon fill="#63b8ff" stroke="#63b8ff" points="120.92,-45.26 115.9,-54.59 125.64,-50.42 120.92,-45.26"/>
</a>
</g>
</g>
</g>
</svg>
