<?xml version="1.0" encoding="UTF-8" standalone="no"?>
<!DOCTYPE svg PUBLIC "-//W3C//DTD SVG 1.1//EN"
 "http://www.w3.org/Graphics/SVG/1.1/DTD/svg11.dtd">
<!-- Generated by graphviz version 8.1.0 (20230707.0739)
 -->
<!-- Title: BitArchiveItemOffset Pages: 1 -->
<svg width="112pt" height="140pt"
 viewBox="0.00 0.00 111.75 140.00" xmlns="http://www.w3.org/2000/svg" xmlns:xlink="http://www.w3.org/1999/xlink">
<g id="graph0" class="graph" transform="scale(1 1) rotate(0) translate(4 136)">
<title>BitArchiveItemOffset</title>
<!-- Node1 -->
<g id="Node000001" class="node">
<title>Node1</title>
<g id="a_Node000001"><a xlink:title="The BitArchiveItemOffset class represents an archived item but doesn&#39;t store its properties.">
<polygon fill="#999999" stroke="#666666" points="103.75,-20 0,-20 0,0 103.75,0 103.75,-20"/>
<text text-anchor="middle" x="51.88" y="-6.5" font-family="Helvetica,sans-Serif" font-size="10.00">BitArchiveItemOffset</text>
</a>
</g>
</g>
<!-- Node2 -->
<g id="Node000002" class="node">
<title>Node2</title>
<g id="a_Node000002"><a xlink:href="classbit7z_1_1_bit_archive_item.html" target="_top" xlink:title="The BitArchiveItem class represents a generic item inside an archive.">
<polygon fill="white" stroke="#666666" points="91,-76 12.75,-76 12.75,-56 91,-56 91,-76"/>
<text text-anchor="middle" x="51.88" y="-62.5" font-family="Helvetica,sans-Serif" font-size="10.00">BitArchiveItem</text>
</a>
</g>
</g>
<!-- Node2&#45;&gt;Node1 -->
<g id="edge1_Node000001_Node000002" class="edge">
<title>Node2&#45;&gt;Node1</title>
<g id="a_edge1_Node000001_Node000002"><a xlink:title=" ">
<path fill="none" stroke="#63b8ff" d="M51.88,-44.71C51.88,-36.32 51.88,-27.01 51.88,-20.3"/>
<polygon fill="#63b8ff" stroke="#63b8ff" points="48.38,-44.59 51.88,-54.59 55.38,-44.59 48.38,-44.59"/>
</a>
</g>
</g>
<!-- Node3 -->
<g id="Node000003" class="node">
<title>Node3</title>
<g id="a_Node000003"><a xlink:href="classbit7z_1_1_bit_generic_item.html" target="_top" xlink:title="The BitGenericItem interface class represents a generic item (either inside or outside an archive).">
<polygon fill="white" stroke="#666666" points="92.12,-132 11.62,-132 11.62,-112 92.12,-112 92.12,-132"/>
<text text-anchor="middle" x="51.88" y="-118.5" font-family="Helvetica,sans-Serif" font-size="10.00">BitGenericItem</text>
</a>
</g>
</g>
<!-- Node3&#45;&gt;Node2 -->
<g id="edge2_Node000002_Node000003" class="edge">
<title>Node3&#45;&gt;Node2</title>
<g id="a_edge2_Node000002_Node000003"><a xlink:title=" ">
<path fill="none" stroke="#63b8ff" d="M51.88,-100.71C51.88,-92.32 51.88,-83.01 51.88,-76.3"/>
<polygon fill="#63b8ff" stroke="#63b8ff" points="48.38,-100.59 51.88,-110.59 55.38,-100.59 48.38,-100.59"/>
</a>
</g>
</g>
</g>
</svg>
