<?xml version="1.0" encoding="UTF-8" standalone="no"?>
<!DOCTYPE svg PUBLIC "-//W3C//DTD SVG 1.1//EN"
 "http://www.w3.org/Graphics/SVG/1.1/DTD/svg11.dtd">
<!-- Generated by graphviz version 8.1.0 (20230707.0739)
 -->
<!-- Title: BitArchiveReader Pages: 1 -->
<svg width="235pt" height="140pt"
 viewBox="0.00 0.00 234.88 140.00" xmlns="http://www.w3.org/2000/svg" xmlns:xlink="http://www.w3.org/1999/xlink">
<g id="graph0" class="graph" transform="scale(1 1) rotate(0) translate(4 136)">
<title>BitArchiveReader</title>
<!-- Node1 -->
<g id="Node000001" class="node">
<title>Node1</title>
<g id="a_Node000001"><a xlink:title="The BitArchiveReader class allows reading metadata of archives, as well as extracting them.">
<polygon fill="#999999" stroke="#666666" points="170.75,-20 80.5,-20 80.5,0 170.75,0 170.75,-20"/>
<text text-anchor="middle" x="125.62" y="-6.5" font-family="Helvetica,sans-Serif" font-size="10.00">BitArchiveReader</text>
</a>
</g>
</g>
<!-- Node2 -->
<g id="Node000002" class="node">
<title>Node2</title>
<g id="a_Node000002"><a xlink:href="classbit7z_1_1_bit_abstract_archive_opener.html" target="_top" xlink:title="The BitAbstractArchiveOpener abstract class represents a generic archive opener.">
<polygon fill="white" stroke="#666666" points="128.5,-76 0.75,-76 0.75,-56 128.5,-56 128.5,-76"/>
<text text-anchor="middle" x="64.62" y="-62.5" font-family="Helvetica,sans-Serif" font-size="10.00">BitAbstractArchiveOpener</text>
</a>
</g>
</g>
<!-- Node2&#45;&gt;Node1 -->
<g id="edge1_Node000001_Node000002" class="edge">
<title>Node2&#45;&gt;Node1</title>
<g id="a_edge1_Node000001_Node000002"><a xlink:title=" ">
<path fill="none" stroke="#63b8ff" d="M83.37,-48.4C93.81,-39.17 106.41,-28.01 115.12,-20.3"/>
<polygon fill="#63b8ff" stroke="#63b8ff" points="81.42,-45.34 76.25,-54.59 86.06,-50.59 81.42,-45.34"/>
</a>
</g>
</g>
<!-- Node3 -->
<g id="Node000003" class="node">
<title>Node3</title>
<g id="a_Node000003"><a xlink:href="classbit7z_1_1_bit_abstract_archive_handler.html" target="_top" xlink:title="Abstract class representing a generic archive handler.">
<polygon fill="white" stroke="#666666" points="129.25,-132 0,-132 0,-112 129.25,-112 129.25,-132"/>
<text text-anchor="middle" x="64.62" y="-118.5" font-family="Helvetica,sans-Serif" font-size="10.00">BitAbstractArchiveHandler</text>
</a>
</g>
</g>
<!-- Node3&#45;&gt;Node2 -->
<g id="edge2_Node000002_Node000003" class="edge">
<title>Node3&#45;&gt;Node2</title>
<g id="a_edge2_Node000002_Node000003"><a xlink:title=" ">
<path fill="none" stroke="#63b8ff" d="M64.62,-100.71C64.62,-92.32 64.62,-83.01 64.62,-76.3"/>
<polygon fill="#63b8ff" stroke="#63b8ff" points="61.13,-100.59 64.62,-110.59 68.13,-100.59 61.13,-100.59"/>
</a>
</g>
</g>
<!-- Node4 -->
<g id="Node000004" class="node">
<title>Node4</title>
<g id="a_Node000004"><a xlink:href="classbit7z_1_1_bit_input_archive.html" target="_top" xlink:title="The BitInputArchive class, given a handler object, allows reading/extracting the content of archives.">
<polygon fill="white" stroke="#666666" points="226.88,-76 146.38,-76 146.38,-56 226.88,-56 226.88,-76"/>
<text text-anchor="middle" x="186.62" y="-62.5" font-family="Helvetica,sans-Serif" font-size="10.00">BitInputArchive</text>
</a>
</g>
</g>
<!-- Node4&#45;&gt;Node1 -->
<g id="edge3_Node000001_Node000004" class="edge">
<title>Node4&#45;&gt;Node1</title>
<g id="a_edge3_Node000001_Node000004"><a xlink:title=" ">
<path fill="none" stroke="#63b8ff" d="M167.88,-48.4C157.44,-39.17 144.84,-28.01 136.13,-20.3"/>
<polygon fill="#63b8ff" stroke="#63b8ff" points="165.19,-50.59 175,-54.59 169.83,-45.34 165.19,-50.59"/>
</a>
</g>
</g>
</g>
</svg>
