<?xml version="1.0" encoding="UTF-8" standalone="no"?>
<!DOCTYPE svg PUBLIC "-//W3C//DTD SVG 1.1//EN"
 "http://www.w3.org/Graphics/SVG/1.1/DTD/svg11.dtd">
<!-- Generated by graphviz version 8.1.0 (20230707.0739)
 -->
<!-- Title: BitAbstractArchiveCreator Pages: 1 -->
<svg width="286pt" height="279pt"
 viewBox="0.00 0.00 285.62 279.00" xmlns="http://www.w3.org/2000/svg" xmlns:xlink="http://www.w3.org/1999/xlink">
<g id="graph0" class="graph" transform="scale(1 1) rotate(0) translate(4 275)">
<title>BitAbstractArchiveCreator</title>
<!-- Node1 -->
<g id="Node000001" class="node">
<title>Node1</title>
<g id="a_Node000001"><a xlink:title="Abstract class representing a generic archive creator.">
<polygon fill="#999999" stroke="#666666" points="177.62,-214 49.88,-214 49.88,-194 177.62,-194 177.62,-214"/>
<text text-anchor="middle" x="113.75" y="-200.5" font-family="Helvetica,sans-Serif" font-size="10.00">BitAbstractArchiveCreator</text>
</a>
</g>
</g>
<!-- Node3 -->
<g id="Node000003" class="node">
<title>Node3</title>
<g id="a_Node000003"><a xlink:href="classbit7z_1_1_bit_compressor.html" target="_top" xlink:title=" ">
<polygon fill="white" stroke="#666666" points="113.5,-89 0,-89 0,-57 113.5,-57 113.5,-89"/>
<text text-anchor="start" x="8" y="-75.5" font-family="Helvetica,sans-Serif" font-size="10.00">BitCompressor&lt; const</text>
<text text-anchor="middle" x="56.75" y="-63.5" font-family="Helvetica,sans-Serif" font-size="10.00"> tstring &amp; &gt;</text>
</a>
</g>
</g>
<!-- Node1&#45;&gt;Node3 -->
<g id="edge2_Node000001_Node000003" class="edge">
<title>Node1&#45;&gt;Node3</title>
<g id="a_edge2_Node000001_Node000003"><a xlink:title=" ">
<path fill="none" stroke="#63b8ff" d="M79.11,-188.69C65.87,-181.31 52.18,-170.89 44.75,-157 33.28,-135.56 41.88,-106.77 49.25,-89.35"/>
<polygon fill="#63b8ff" stroke="#63b8ff" points="77.07,-192.09 87.57,-193.53 80.26,-185.86 77.07,-192.09"/>
</a>
</g>
</g>
<!-- Node5 -->
<g id="Node000005" class="node">
<title>Node5</title>
<g id="a_Node000005"><a xlink:href="classbit7z_1_1_bit_archive_writer.html" target="_top" xlink:title="The BitArchiveWriter class allows creating new archives or updating old ones with new items.">
<polygon fill="white" stroke="#666666" points="277.62,-157 191.88,-157 191.88,-137 277.62,-137 277.62,-157"/>
<text text-anchor="middle" x="234.75" y="-143.5" font-family="Helvetica,sans-Serif" font-size="10.00">BitArchiveWriter</text>
</a>
</g>
</g>
<!-- Node1&#45;&gt;Node5 -->
<g id="edge4_Node000001_Node000005" class="edge">
<title>Node1&#45;&gt;Node5</title>
<g id="a_edge4_Node000001_Node000005"><a xlink:title=" ">
<path fill="none" stroke="#63b8ff" d="M144.35,-189.09C166.23,-179.15 195.06,-166.04 214.22,-157.33"/>
<polygon fill="#63b8ff" stroke="#63b8ff" points="143.21,-186.22 135.55,-193.55 146.1,-192.59 143.21,-186.22"/>
</a>
</g>
</g>
<!-- Node7 -->
<g id="Node000007" class="node">
<title>Node7</title>
<g id="a_Node000007"><a xlink:href="classbit7z_1_1_bit_compressor.html" target="_top" xlink:title="The BitCompressor template class allows compressing files into archives.">
<polygon fill="white" stroke="#666666" points="173.5,-157 54,-157 54,-137 173.5,-137 173.5,-157"/>
<text text-anchor="middle" x="113.75" y="-143.5" font-family="Helvetica,sans-Serif" font-size="10.00">BitCompressor&lt; Input &gt;</text>
</a>
</g>
</g>
<!-- Node1&#45;&gt;Node7 -->
<g id="edge6_Node000001_Node000007" class="edge">
<title>Node1&#45;&gt;Node7</title>
<g id="a_edge6_Node000001_Node000007"><a xlink:title=" ">
<path fill="none" stroke="#63b8ff" d="M113.75,-182.99C113.75,-174.2 113.75,-164.3 113.75,-157.28"/>
<polygon fill="#63b8ff" stroke="#63b8ff" points="110.25,-182.92 113.75,-192.92 117.25,-182.92 110.25,-182.92"/>
</a>
</g>
</g>
<!-- Node2 -->
<g id="Node000002" class="node">
<title>Node2</title>
<g id="a_Node000002"><a xlink:href="classbit7z_1_1_bit_abstract_archive_handler.html" target="_top" xlink:title="Abstract class representing a generic archive handler.">
<polygon fill="white" stroke="#666666" points="178.38,-271 49.12,-271 49.12,-251 178.38,-251 178.38,-271"/>
<text text-anchor="middle" x="113.75" y="-257.5" font-family="Helvetica,sans-Serif" font-size="10.00">BitAbstractArchiveHandler</text>
</a>
</g>
</g>
<!-- Node2&#45;&gt;Node1 -->
<g id="edge1_Node000001_Node000002" class="edge">
<title>Node2&#45;&gt;Node1</title>
<g id="a_edge1_Node000001_Node000002"><a xlink:title=" ">
<path fill="none" stroke="#63b8ff" d="M113.75,-239.99C113.75,-231.2 113.75,-221.3 113.75,-214.28"/>
<polygon fill="#63b8ff" stroke="#63b8ff" points="110.25,-239.92 113.75,-249.92 117.25,-239.92 110.25,-239.92"/>
</a>
</g>
</g>
<!-- Node4 -->
<g id="Node000004" class="node">
<title>Node4</title>
<g id="a_Node000004"><a xlink:href="classbit7z_1_1_bit_file_compressor.html" target="_top" xlink:title="The BitFileCompressor class allows compressing files and directories.">
<polygon fill="white" stroke="#666666" points="104.88,-20 8.62,-20 8.62,0 104.88,0 104.88,-20"/>
<text text-anchor="middle" x="56.75" y="-6.5" font-family="Helvetica,sans-Serif" font-size="10.00">BitFileCompressor</text>
</a>
</g>
</g>
<!-- Node3&#45;&gt;Node4 -->
<g id="edge3_Node000003_Node000004" class="edge">
<title>Node3&#45;&gt;Node4</title>
<g id="a_edge3_Node000003_Node000004"><a xlink:title=" ">
<path fill="none" stroke="#63b8ff" d="M56.75,-45.67C56.75,-36.62 56.75,-27.08 56.75,-20.31"/>
<polygon fill="#63b8ff" stroke="#63b8ff" points="53.25,-45.61 56.75,-55.61 60.25,-45.61 53.25,-45.61"/>
</a>
</g>
</g>
<!-- Node6 -->
<g id="Node000006" class="node">
<title>Node6</title>
<g id="a_Node000006"><a xlink:href="classbit7z_1_1_bit_archive_editor.html" target="_top" xlink:title="The BitArchiveEditor class allows creating new file archives or updating old ones.">
<polygon fill="white" stroke="#666666" points="277.25,-83 192.25,-83 192.25,-63 277.25,-63 277.25,-83"/>
<text text-anchor="middle" x="234.75" y="-69.5" font-family="Helvetica,sans-Serif" font-size="10.00">BitArchiveEditor</text>
</a>
</g>
</g>
<!-- Node5&#45;&gt;Node6 -->
<g id="edge5_Node000005_Node000006" class="edge">
<title>Node5&#45;&gt;Node6</title>
<g id="a_edge5_Node000005_Node000006"><a xlink:title=" ">
<path fill="none" stroke="#63b8ff" d="M234.75,-125.6C234.75,-111.65 234.75,-93.82 234.75,-83.19"/>
<polygon fill="#63b8ff" stroke="#63b8ff" points="231.25,-125.59 234.75,-135.59 238.25,-125.59 231.25,-125.59"/>
</a>
</g>
</g>
<!-- Node7&#45;&gt;Node3 -->
<g id="edge7_Node000007_Node000003" class="edge">
<title>Node7&#45;&gt;Node3</title>
<g id="a_edge7_Node000007_Node000003"><a xlink:title=" ">
<path fill="none" stroke="orange" stroke-dasharray="5,2" d="M99.48,-127.97C90.1,-116.12 77.94,-100.77 69,-89.47"/>
<polygon fill="orange" stroke="orange" points="97.35,-129.92 106.3,-135.59 102.84,-125.57 97.35,-129.92"/>
</a>
</g>
<text text-anchor="middle" x="135.12" y="-109.5" font-family="Helvetica,sans-Serif" font-size="10.00" fill="grey"> &lt; const tstring &amp; &gt;</text>
</g>
</g>
</svg>
