<?xml version="1.0" encoding="UTF-8" standalone="no"?>
<!DOCTYPE svg PUBLIC "-//W3C//DTD SVG 1.1//EN"
 "http://www.w3.org/Graphics/SVG/1.1/DTD/svg11.dtd">
<!-- Generated by graphviz version 8.1.0 (20230707.0739)
 -->
<!-- Title: BitArchiveWriter Pages: 1 -->
<svg width="243pt" height="196pt"
 viewBox="0.00 0.00 243.00 196.00" xmlns="http://www.w3.org/2000/svg" xmlns:xlink="http://www.w3.org/1999/xlink">
<g id="graph0" class="graph" transform="scale(1 1) rotate(0) translate(4 192)">
<title>BitArchiveWriter</title>
<!-- Node1 -->
<g id="Node000001" class="node">
<title>Node1</title>
<g id="a_Node000001"><a xlink:title="The BitArchiveWriter class allows creating new archives or updating old ones with new items.">
<polygon fill="#999999" stroke="#666666" points="170.5,-76 84.75,-76 84.75,-56 170.5,-56 170.5,-76"/>
<text text-anchor="middle" x="127.62" y="-62.5" font-family="Helvetica,sans-Serif" font-size="10.00">BitArchiveWriter</text>
</a>
</g>
</g>
<!-- Node5 -->
<g id="Node000005" class="node">
<title>Node5</title>
<g id="a_Node000005"><a xlink:href="classbit7z_1_1_bit_archive_editor.html" target="_top" xlink:title="The BitArchiveEditor class allows creating new file archives or updating old ones.">
<polygon fill="white" stroke="#666666" points="170.12,-20 85.12,-20 85.12,0 170.12,0 170.12,-20"/>
<text text-anchor="middle" x="127.62" y="-6.5" font-family="Helvetica,sans-Serif" font-size="10.00">BitArchiveEditor</text>
</a>
</g>
</g>
<!-- Node1&#45;&gt;Node5 -->
<g id="edge4_Node000001_Node000005" class="edge">
<title>Node1&#45;&gt;Node5</title>
<g id="a_edge4_Node000001_Node000005"><a xlink:title=" ">
<path fill="none" stroke="#63b8ff" d="M127.62,-44.71C127.62,-36.32 127.62,-27.01 127.62,-20.3"/>
<polygon fill="#63b8ff" stroke="#63b8ff" points="124.13,-44.59 127.62,-54.59 131.13,-44.59 124.13,-44.59"/>
</a>
</g>
</g>
<!-- Node2 -->
<g id="Node000002" class="node">
<title>Node2</title>
<g id="a_Node000002"><a xlink:href="classbit7z_1_1_bit_abstract_archive_creator.html" target="_top" xlink:title="Abstract class representing a generic archive creator.">
<polygon fill="white" stroke="#666666" points="128.5,-132 0.75,-132 0.75,-112 128.5,-112 128.5,-132"/>
<text text-anchor="middle" x="64.62" y="-118.5" font-family="Helvetica,sans-Serif" font-size="10.00">BitAbstractArchiveCreator</text>
</a>
</g>
</g>
<!-- Node2&#45;&gt;Node1 -->
<g id="edge1_Node000001_Node000002" class="edge">
<title>Node2&#45;&gt;Node1</title>
<g id="a_edge1_Node000001_Node000002"><a xlink:title=" ">
<path fill="none" stroke="#63b8ff" d="M83.67,-104.68C94.5,-95.39 107.69,-84.09 116.78,-76.3"/>
<polygon fill="#63b8ff" stroke="#63b8ff" points="81.91,-102.43 76.6,-111.59 86.47,-107.74 81.91,-102.43"/>
</a>
</g>
</g>
<!-- Node3 -->
<g id="Node000003" class="node">
<title>Node3</title>
<g id="a_Node000003"><a xlink:href="classbit7z_1_1_bit_abstract_archive_handler.html" target="_top" xlink:title="Abstract class representing a generic archive handler.">
<polygon fill="white" stroke="#666666" points="129.25,-188 0,-188 0,-168 129.25,-168 129.25,-188"/>
<text text-anchor="middle" x="64.62" y="-174.5" font-family="Helvetica,sans-Serif" font-size="10.00">BitAbstractArchiveHandler</text>
</a>
</g>
</g>
<!-- Node3&#45;&gt;Node2 -->
<g id="edge2_Node000002_Node000003" class="edge">
<title>Node3&#45;&gt;Node2</title>
<g id="a_edge2_Node000002_Node000003"><a xlink:title=" ">
<path fill="none" stroke="#63b8ff" d="M64.62,-156.71C64.62,-148.32 64.62,-139.01 64.62,-132.3"/>
<polygon fill="#63b8ff" stroke="#63b8ff" points="61.13,-156.59 64.62,-166.59 68.13,-156.59 61.13,-156.59"/>
</a>
</g>
</g>
<!-- Node4 -->
<g id="Node000004" class="node">
<title>Node4</title>
<g id="a_Node000004"><a xlink:href="classbit7z_1_1_bit_output_archive.html" target="_top" xlink:title="The BitOutputArchive class, given a creator object, allows creating new archives.">
<polygon fill="white" stroke="#666666" points="235,-132 146.25,-132 146.25,-112 235,-112 235,-132"/>
<text text-anchor="middle" x="190.62" y="-118.5" font-family="Helvetica,sans-Serif" font-size="10.00">BitOutputArchive</text>
</a>
</g>
</g>
<!-- Node4&#45;&gt;Node1 -->
<g id="edge3_Node000001_Node000004" class="edge">
<title>Node4&#45;&gt;Node1</title>
<g id="a_edge3_Node000001_Node000004"><a xlink:title=" ">
<path fill="none" stroke="#63b8ff" d="M171.58,-104.68C160.75,-95.39 147.56,-84.09 138.47,-76.3"/>
<polygon fill="#63b8ff" stroke="#63b8ff" points="168.78,-107.74 178.65,-111.59 173.34,-102.43 168.78,-107.74"/>
</a>
</g>
</g>
</g>
</svg>
