<?xml version="1.0" encoding="UTF-8" standalone="no"?>
<!DOCTYPE svg PUBLIC "-//W3C//DTD SVG 1.1//EN"
 "http://www.w3.org/Graphics/SVG/1.1/DTD/svg11.dtd">
<!-- Generated by graphviz version 7.0.6 (20230106.0513)
 -->
<!-- Title: BitAbstractArchiveOpener Pages: 1 -->
<svg width="224pt" height="137pt"
 viewBox="0.00 0.00 224.00 137.00" xmlns="http://www.w3.org/2000/svg" xmlns:xlink="http://www.w3.org/1999/xlink">
<g id="graph0" class="graph" transform="scale(1 1) rotate(0) translate(4 133)">
<title>BitAbstractArchiveOpener</title>
<!-- Node1 -->
<g id="node1" class="node">
<title>Node1</title>
<g id="a_node1"><a xlink:title="The BitAbstractArchiveOpener abstract class represents a generic archive opener.">
<polygon fill="#999999" stroke="#666666" points="167.5,-74 39.5,-74 39.5,-55 167.5,-55 167.5,-74"/>
<text text-anchor="middle" x="103.5" y="-62" font-family="Helvetica,sans-Serif" font-size="10.00">BitAbstractArchiveOpener</text>
</a>
</g>
</g>
<!-- Node3 -->
<g id="node3" class="node">
<title>Node3</title>
<g id="a_node3"><a xlink:href="classbit7z_1_1_bit_archive_reader.html" target="_top" xlink:title="The BitArchiveReader class allows reading metadata of archives, as well as extracting them.">
<polygon fill="white" stroke="#666666" points="91,-19 0,-19 0,0 91,0 91,-19"/>
<text text-anchor="middle" x="45.5" y="-7" font-family="Helvetica,sans-Serif" font-size="10.00">BitArchiveReader</text>
</a>
</g>
</g>
<!-- Node1&#45;&gt;Node3 -->
<g id="edge2" class="edge">
<title>Node1&#45;&gt;Node3</title>
<path fill="none" stroke="#63b8ff" d="M85.24,-46.81C75.28,-37.72 63.36,-26.82 55.19,-19.36"/>
<polygon fill="#63b8ff" stroke="#63b8ff" points="82.8,-49.33 92.54,-53.49 87.52,-44.16 82.8,-49.33"/>
</g>
<!-- Node4 -->
<g id="node4" class="node">
<title>Node4</title>
<g id="a_node4"><a xlink:href="classbit7z_1_1_bit_extractor.html" target="_top" xlink:title="The BitExtractor template class allows extracting the content of archives from supported input types.">
<polygon fill="white" stroke="#666666" points="216,-19 109,-19 109,0 216,0 216,-19"/>
<text text-anchor="middle" x="162.5" y="-7" font-family="Helvetica,sans-Serif" font-size="10.00">BitExtractor&lt; Input &gt;</text>
</a>
</g>
</g>
<!-- Node1&#45;&gt;Node4 -->
<g id="edge3" class="edge">
<title>Node1&#45;&gt;Node4</title>
<path fill="none" stroke="#63b8ff" d="M121.77,-47.09C131.96,-37.94 144.24,-26.9 152.64,-19.36"/>
<polygon fill="#63b8ff" stroke="#63b8ff" points="119.73,-44.21 114.63,-53.5 124.41,-49.42 119.73,-44.21"/>
</g>
<!-- Node2 -->
<g id="node2" class="node">
<title>Node2</title>
<g id="a_node2"><a xlink:href="classbit7z_1_1_bit_abstract_archive_handler.html" target="_top" xlink:title="Abstract class representing a generic archive handler.">
<polygon fill="white" stroke="#666666" points="168.5,-129 38.5,-129 38.5,-110 168.5,-110 168.5,-129"/>
<text text-anchor="middle" x="103.5" y="-117" font-family="Helvetica,sans-Serif" font-size="10.00">BitAbstractArchiveHandler</text>
</a>
</g>
</g>
<!-- Node2&#45;&gt;Node1 -->
<g id="edge1" class="edge">
<title>Node2&#45;&gt;Node1</title>
<path fill="none" stroke="#63b8ff" d="M103.5,-98.35C103.5,-90.1 103.5,-80.97 103.5,-74.44"/>
<polygon fill="#63b8ff" stroke="#63b8ff" points="100,-98.23 103.5,-108.23 107,-98.23 100,-98.23"/>
</g>
</g>
</svg>
