<?xml version="1.0" encoding="UTF-8" standalone="no"?>
<!DOCTYPE svg PUBLIC "-//W3C//DTD SVG 1.1//EN"
 "http://www.w3.org/Graphics/SVG/1.1/DTD/svg11.dtd">
<!-- Generated by graphviz version 7.0.6 (20230106.0513)
 -->
<!-- Title: BitArchiveItem Pages: 1 -->
<svg width="224pt" height="137pt"
 viewBox="0.00 0.00 224.00 137.00" xmlns="http://www.w3.org/2000/svg" xmlns:xlink="http://www.w3.org/1999/xlink">
<g id="graph0" class="graph" transform="scale(1 1) rotate(0) translate(4 133)">
<title>BitArchiveItem</title>
<!-- Node1 -->
<g id="node1" class="node">
<title>Node1</title>
<g id="a_node1"><a xlink:title="The BitArchiveItem class represents a generic item inside an archive.">
<polygon fill="#999999" stroke="#666666" points="144.5,-74 65.5,-74 65.5,-55 144.5,-55 144.5,-74"/>
<text text-anchor="middle" x="105" y="-62" font-family="Helvetica,sans-Serif" font-size="10.00">BitArchiveItem</text>
</a>
</g>
</g>
<!-- Node3 -->
<g id="node3" class="node">
<title>Node3</title>
<g id="a_node3"><a xlink:href="classbit7z_1_1_bit_archive_item_info.html" target="_top" xlink:title="The BitArchiveItemInfo class represents an archived item and that stores all its properties for later...">
<polygon fill="white" stroke="#666666" points="94,-19 0,-19 0,0 94,0 94,-19"/>
<text text-anchor="middle" x="47" y="-7" font-family="Helvetica,sans-Serif" font-size="10.00">BitArchiveItemInfo</text>
</a>
</g>
</g>
<!-- Node1&#45;&gt;Node3 -->
<g id="edge2" class="edge">
<title>Node1&#45;&gt;Node3</title>
<path fill="none" stroke="#63b8ff" d="M86.74,-46.81C76.78,-37.72 64.86,-26.82 56.69,-19.36"/>
<polygon fill="#63b8ff" stroke="#63b8ff" points="84.3,-49.33 94.04,-53.49 89.02,-44.16 84.3,-49.33"/>
</g>
<!-- Node4 -->
<g id="node4" class="node">
<title>Node4</title>
<g id="a_node4"><a xlink:href="classbit7z_1_1_bit_archive_item_offset.html" target="_top" xlink:title="The BitArchiveItemOffset class represents an archived item but doesn&#39;t store its properties.">
<polygon fill="white" stroke="#666666" points="216,-19 112,-19 112,0 216,0 216,-19"/>
<text text-anchor="middle" x="164" y="-7" font-family="Helvetica,sans-Serif" font-size="10.00">BitArchiveItemOffset</text>
</a>
</g>
</g>
<!-- Node1&#45;&gt;Node4 -->
<g id="edge3" class="edge">
<title>Node1&#45;&gt;Node4</title>
<path fill="none" stroke="#63b8ff" d="M123.27,-47.09C133.46,-37.94 145.74,-26.9 154.14,-19.36"/>
<polygon fill="#63b8ff" stroke="#63b8ff" points="121.23,-44.21 116.13,-53.5 125.91,-49.42 121.23,-44.21"/>
</g>
<!-- Node2 -->
<g id="node2" class="node">
<title>Node2</title>
<g id="a_node2"><a xlink:href="classbit7z_1_1_bit_generic_item.html" target="_top" xlink:title="The BitGenericItem interface class represents a generic item (either inside or outside an archive).">
<polygon fill="white" stroke="#666666" points="145.5,-129 64.5,-129 64.5,-110 145.5,-110 145.5,-129"/>
<text text-anchor="middle" x="105" y="-117" font-family="Helvetica,sans-Serif" font-size="10.00">BitGenericItem</text>
</a>
</g>
</g>
<!-- Node2&#45;&gt;Node1 -->
<g id="edge1" class="edge">
<title>Node2&#45;&gt;Node1</title>
<path fill="none" stroke="#63b8ff" d="M105,-98.35C105,-90.1 105,-80.97 105,-74.44"/>
<polygon fill="#63b8ff" stroke="#63b8ff" points="101.5,-98.23 105,-108.23 108.5,-98.23 101.5,-98.23"/>
</g>
</g>
</svg>
