<?xml version="1.0" encoding="UTF-8" standalone="no"?>
<!DOCTYPE svg PUBLIC "-//W3C//DTD SVG 1.1//EN"
 "http://www.w3.org/Graphics/SVG/1.1/DTD/svg11.dtd">
<!-- Generated by graphviz version 7.0.6 (20230106.0513)
 -->
<!-- Title: BitArchiveWriter Pages: 1 -->
<svg width="245pt" height="137pt"
 viewBox="0.00 0.00 244.50 137.00" xmlns="http://www.w3.org/2000/svg" xmlns:xlink="http://www.w3.org/1999/xlink">
<g id="graph0" class="graph" transform="scale(1 1) rotate(0) translate(4 133)">
<title>BitArchiveWriter</title>
<!-- Node1 -->
<g id="node1" class="node">
<title>Node1</title>
<g id="a_node1"><a xlink:title="The BitArchiveWriter class allows creating new archives or updating old ones with new items.">
<polygon fill="#999999" stroke="#666666" points="171,-19 85,-19 85,0 171,0 171,-19"/>
<text text-anchor="middle" x="128" y="-7" font-family="Helvetica,sans-Serif" font-size="10.00">BitArchiveWriter</text>
</a>
</g>
</g>
<!-- Node2 -->
<g id="node2" class="node">
<title>Node2</title>
<g id="a_node2"><a xlink:href="classbit7z_1_1_bit_abstract_archive_creator.html" target="_top" xlink:title="Abstract class representing a generic archive creator.">
<polygon fill="white" stroke="#666666" points="129,-74 1,-74 1,-55 129,-55 129,-74"/>
<text text-anchor="middle" x="65" y="-62" font-family="Helvetica,sans-Serif" font-size="10.00">BitAbstractArchiveCreator</text>
</a>
</g>
</g>
<!-- Node2&#45;&gt;Node1 -->
<g id="edge1" class="edge">
<title>Node2&#45;&gt;Node1</title>
<path fill="none" stroke="#63b8ff" d="M84.18,-47.37C95.12,-38.16 108.41,-26.98 117.47,-19.36"/>
<polygon fill="#63b8ff" stroke="#63b8ff" points="82.24,-44.42 76.85,-53.53 86.75,-49.78 82.24,-44.42"/>
</g>
<!-- Node3 -->
<g id="node3" class="node">
<title>Node3</title>
<g id="a_node3"><a xlink:href="classbit7z_1_1_bit_abstract_archive_handler.html" target="_top" xlink:title="Abstract class representing a generic archive handler.">
<polygon fill="white" stroke="#666666" points="130,-129 0,-129 0,-110 130,-110 130,-129"/>
<text text-anchor="middle" x="65" y="-117" font-family="Helvetica,sans-Serif" font-size="10.00">BitAbstractArchiveHandler</text>
</a>
</g>
</g>
<!-- Node3&#45;&gt;Node2 -->
<g id="edge2" class="edge">
<title>Node3&#45;&gt;Node2</title>
<path fill="none" stroke="#63b8ff" d="M65,-98.35C65,-90.1 65,-80.97 65,-74.44"/>
<polygon fill="#63b8ff" stroke="#63b8ff" points="61.5,-98.23 65,-108.23 68.5,-98.23 61.5,-98.23"/>
</g>
<!-- Node4 -->
<g id="node4" class="node">
<title>Node4</title>
<g id="a_node4"><a xlink:href="classbit7z_1_1_bit_output_archive.html" target="_top" xlink:title="The BitOutputArchive class, given a creator object, allows creating new archives.">
<polygon fill="white" stroke="#666666" points="236.5,-74 147.5,-74 147.5,-55 236.5,-55 236.5,-74"/>
<text text-anchor="middle" x="192" y="-62" font-family="Helvetica,sans-Serif" font-size="10.00">BitOutputArchive</text>
</a>
</g>
</g>
<!-- Node4&#45;&gt;Node1 -->
<g id="edge3" class="edge">
<title>Node4&#45;&gt;Node1</title>
<path fill="none" stroke="#63b8ff" d="M172.52,-47.37C161.4,-38.16 147.9,-26.98 138.7,-19.36"/>
<polygon fill="#63b8ff" stroke="#63b8ff" points="170.04,-49.86 179.98,-53.54 174.51,-44.47 170.04,-49.86"/>
</g>
</g>
</svg>
