<?xml version="1.0" encoding="UTF-8" standalone="no"?>
<!DOCTYPE svg PUBLIC "-//W3C//DTD SVG 1.1//EN"
 "http://www.w3.org/Graphics/SVG/1.1/DTD/svg11.dtd">
<!-- Generated by graphviz version 7.0.6 (20230106.0513)
 -->
<!-- Title: Graph Legend Pages: 1 -->
<svg width="507pt" height="159pt"
 viewBox="0.00 0.00 506.50 159.00" xmlns="http://www.w3.org/2000/svg" xmlns:xlink="http://www.w3.org/1999/xlink">
<g id="graph0" class="graph" transform="scale(1 1) rotate(0) translate(4 155)">
<title>Graph Legend</title>
<!-- Node9 -->
<g id="node1" class="node">
<title>Node9</title>
<g id="a_node1"><a xlink:title=" ">
<polygon fill="#999999" stroke="#666666" points="290.5,-19 237.5,-19 237.5,0 290.5,0 290.5,-19"/>
<text text-anchor="middle" x="264" y="-7" font-family="Helvetica,sans-Serif" font-size="10.00">Inherited</text>
</a>
</g>
</g>
<!-- Node10 -->
<g id="node2" class="node">
<title>Node10</title>
<g id="a_node2"><a xlink:href="url.html" xlink:title=" ">
<polygon fill="white" stroke="#666666" points="66,-85 0,-85 0,-66 66,-66 66,-85"/>
<text text-anchor="middle" x="33" y="-73" font-family="Helvetica,sans-Serif" font-size="10.00">PublicBase</text>
</a>
</g>
</g>
<!-- Node10&#45;&gt;Node9 -->
<g id="edge1" class="edge">
<title>Node10&#45;&gt;Node9</title>
<path fill="none" stroke="#63b8ff" d="M75.92,-62.61C123.15,-49.52 197.6,-28.9 237.18,-17.93"/>
<polygon fill="#63b8ff" stroke="#63b8ff" points="75.28,-59.15 66.58,-65.2 77.15,-65.9 75.28,-59.15"/>
</g>
<!-- Node11 -->
<g id="node3" class="node">
<title>Node11</title>
<g id="a_node3"><a xlink:href="url.html" xlink:title=" ">
<polygon fill="#fff0f0" stroke="red" points="62.5,-151 3.5,-151 3.5,-132 62.5,-132 62.5,-151"/>
<text text-anchor="middle" x="33" y="-139" font-family="Helvetica,sans-Serif" font-size="10.00">Truncated</text>
</a>
</g>
</g>
<!-- Node11&#45;&gt;Node10 -->
<g id="edge2" class="edge">
<title>Node11&#45;&gt;Node10</title>
<path fill="none" stroke="#63b8ff" d="M33,-120.18C33,-108.44 33,-94.27 33,-85.32"/>
<polygon fill="#63b8ff" stroke="#63b8ff" points="29.5,-120.09 33,-130.09 36.5,-120.09 29.5,-120.09"/>
</g>
<!-- Node13 -->
<g id="node4" class="node">
<title>Node13</title>
<polygon fill="white" stroke="#666666" points="165.5,-85 84.5,-85 84.5,-66 165.5,-66 165.5,-85"/>
<text text-anchor="middle" x="125" y="-73" font-family="Helvetica,sans-Serif" font-size="10.00">ProtectedBase</text>
</g>
<!-- Node13&#45;&gt;Node9 -->
<g id="edge3" class="edge">
<title>Node13&#45;&gt;Node9</title>
<path fill="none" stroke="darkgreen" d="M154.46,-60.94C181.72,-48.38 221.47,-30.08 244.84,-19.32"/>
<polygon fill="darkgreen" stroke="darkgreen" points="153.32,-57.61 145.7,-64.97 156.25,-63.96 153.32,-57.61"/>
</g>
<!-- Node14 -->
<g id="node5" class="node">
<title>Node14</title>
<polygon fill="white" stroke="#666666" points="252,-85 184,-85 184,-66 252,-66 252,-85"/>
<text text-anchor="middle" x="218" y="-73" font-family="Helvetica,sans-Serif" font-size="10.00">PrivateBase</text>
</g>
<!-- Node14&#45;&gt;Node9 -->
<g id="edge4" class="edge">
<title>Node14&#45;&gt;Node9</title>
<path fill="none" stroke="#8b1a1a" d="M231.01,-56.4C239.73,-44.27 250.81,-28.84 257.66,-19.32"/>
<polygon fill="#8b1a1a" stroke="#8b1a1a" points="228.27,-54.21 225.28,-64.37 233.96,-58.29 228.27,-54.21"/>
</g>
<!-- Node15 -->
<g id="node6" class="node">
<title>Node15</title>
<g id="a_node6"><a xlink:title=" ">
<polygon fill="#e0e0e0" stroke="#999999" points="352,-85 270,-85 270,-66 352,-66 352,-85"/>
<text text-anchor="middle" x="311" y="-73" font-family="Helvetica,sans-Serif" font-size="10.00">Undocumented</text>
</a>
</g>
</g>
<!-- Node15&#45;&gt;Node9 -->
<g id="edge5" class="edge">
<title>Node15&#45;&gt;Node9</title>
<path fill="none" stroke="#63b8ff" d="M297.7,-56.4C288.8,-44.27 277.47,-28.84 270.48,-19.32"/>
<polygon fill="#63b8ff" stroke="#63b8ff" points="294.83,-58.39 303.57,-64.38 300.47,-54.25 294.83,-58.39"/>
</g>
<!-- Node16 -->
<g id="node7" class="node">
<title>Node16</title>
<polygon fill="white" stroke="#666666" points="441.5,-85 370.5,-85 370.5,-66 441.5,-66 441.5,-85"/>
<text text-anchor="middle" x="406" y="-73" font-family="Helvetica,sans-Serif" font-size="10.00">Templ&lt; int &gt;</text>
</g>
<!-- Node16&#45;&gt;Node9 -->
<g id="edge6" class="edge">
<title>Node16&#45;&gt;Node9</title>
<path fill="none" stroke="#63b8ff" d="M375.91,-60.94C348.05,-48.38 307.45,-30.08 283.58,-19.32"/>
<polygon fill="#63b8ff" stroke="#63b8ff" points="374.32,-64.06 384.88,-64.98 377.2,-57.68 374.32,-64.06"/>
</g>
<!-- Node17 -->
<g id="node8" class="node">
<title>Node17</title>
<polygon fill="white" stroke="#666666" points="439,-151 373,-151 373,-132 439,-132 439,-151"/>
<text text-anchor="middle" x="406" y="-139" font-family="Helvetica,sans-Serif" font-size="10.00">Templ&lt; T &gt;</text>
</g>
<!-- Node17&#45;&gt;Node16 -->
<g id="edge7" class="edge">
<title>Node17&#45;&gt;Node16</title>
<path fill="none" stroke="orange" stroke-dasharray="5,2" d="M406,-120.18C406,-108.44 406,-94.27 406,-85.32"/>
<polygon fill="orange" stroke="orange" points="402.5,-120.09 406,-130.09 409.5,-120.09 402.5,-120.09"/>
<text text-anchor="middle" x="420.5" y="-106" font-family="Helvetica,sans-Serif" font-size="10.00">&lt; int &gt;</text>
</g>
<!-- Node18 -->
<g id="node9" class="node">
<title>Node18</title>
<polygon fill="white" stroke="#666666" points="498.5,-85 459.5,-85 459.5,-66 498.5,-66 498.5,-85"/>
<text text-anchor="middle" x="479" y="-73" font-family="Helvetica,sans-Serif" font-size="10.00">Used</text>
</g>
<!-- Node18&#45;&gt;Node9 -->
<g id="edge8" class="edge">
<title>Node18&#45;&gt;Node9</title>
<path fill="none" stroke="#9a32cd" stroke-dasharray="5,2" d="M448.44,-65.24C386.87,-46.78 325.33,-28.58 290.96,-18.44"/>
<polygon fill="#9a32cd" stroke="#9a32cd" points="447.09,-68.49 457.67,-68.01 449.1,-61.79 447.09,-68.49"/>
<text text-anchor="middle" x="419" y="-40" font-family="Helvetica,sans-Serif" font-size="10.00">m_usedClass</text>
</g>
</g>
</svg>
