<?xml version="1.0" encoding="UTF-8" standalone="no"?>
<!DOCTYPE svg PUBLIC "-//W3C//DTD SVG 1.1//EN"
 "http://www.w3.org/Graphics/SVG/1.1/DTD/svg11.dtd">
<!-- Generated by graphviz version 8.1.0 (20230707.0739)
 -->
<!-- Title: Graph Legend Pages: 1 -->
<svg width="503pt" height="164pt"
 viewBox="0.00 0.00 503.00 164.00" xmlns="http://www.w3.org/2000/svg" xmlns:xlink="http://www.w3.org/1999/xlink">
<g id="graph0" class="graph" transform="scale(1 1) rotate(0) translate(4 160)">
<title>Graph Legend</title>
<!-- Node9 -->
<g id="Node000009" class="node">
<title>Node9</title>
<g id="a_Node000009"><a xlink:title=" ">
<polygon fill="#999999" stroke="#666666" points="288.12,-20 235.38,-20 235.38,0 288.12,0 288.12,-20"/>
<text text-anchor="middle" x="261.75" y="-6.5" font-family="Helvetica,sans-Serif" font-size="10.00">Inherited</text>
</a>
</g>
</g>
<!-- Node10 -->
<g id="Node000010" class="node">
<title>Node10</title>
<g id="a_Node000010"><a xlink:title=" ">
<polygon fill="white" stroke="#666666" points="65.5,-88 0,-88 0,-68 65.5,-68 65.5,-88"/>
<text text-anchor="middle" x="32.75" y="-74.5" font-family="Helvetica,sans-Serif" font-size="10.00">PublicBase</text>
</a>
</g>
</g>
<!-- Node10&#45;&gt;Node9 -->
<g id="edge1" class="edge">
<title>Node10&#45;&gt;Node9</title>
<g id="a_edge1"><a xlink:title=" ">
<path fill="none" stroke="#63b8ff" d="M75.99,-64.54C122.81,-51.05 196,-29.95 235.07,-18.69"/>
<polygon fill="#63b8ff" stroke="#63b8ff" points="75.2,-61.41 66.56,-67.54 77.14,-68.14 75.2,-61.41"/>
</a>
</g>
</g>
<!-- Node11 -->
<g id="Node000011" class="node">
<title>Node11</title>
<g id="a_Node000011"><a xlink:title=" ">
<polygon fill="#fff0f0" stroke="red" points="62.12,-156 3.38,-156 3.38,-136 62.12,-136 62.12,-156"/>
<text text-anchor="middle" x="32.75" y="-142.5" font-family="Helvetica,sans-Serif" font-size="10.00">Truncated</text>
</a>
</g>
</g>
<!-- Node11&#45;&gt;Node10 -->
<g id="edge2" class="edge">
<title>Node11&#45;&gt;Node10</title>
<g id="a_edge2"><a xlink:title=" ">
<path fill="none" stroke="#63b8ff" d="M32.75,-124.65C32.75,-112.58 32.75,-97.84 32.75,-88.44"/>
<polygon fill="#63b8ff" stroke="#63b8ff" points="29.25,-124.54 32.75,-134.54 36.25,-124.54 29.25,-124.54"/>
</a>
</g>
</g>
<!-- Node13 -->
<g id="node4" class="node">
<title>Node13</title>
<g id="a_node4"><a xlink:title=" ">
<polygon fill="white" stroke="#666666" points="164,-88 83.5,-88 83.5,-68 164,-68 164,-88"/>
<text text-anchor="middle" x="123.75" y="-74.5" font-family="Helvetica,sans-Serif" font-size="10.00">ProtectedBase</text>
</a>
</g>
</g>
<!-- Node13&#45;&gt;Node9 -->
<g id="edge3" class="edge">
<title>Node13&#45;&gt;Node9</title>
<g id="a_edge3"><a xlink:title=" ">
<path fill="none" stroke="darkgreen" d="M153.14,-62.94C179.93,-50.13 218.77,-31.56 242.01,-20.44"/>
<polygon fill="darkgreen" stroke="darkgreen" points="152.03,-60.07 144.52,-67.54 155.05,-66.39 152.03,-60.07"/>
</a>
</g>
</g>
<!-- Node14 -->
<g id="node5" class="node">
<title>Node14</title>
<g id="a_node5"><a xlink:title=" ">
<polygon fill="white" stroke="#666666" points="249.62,-88 181.88,-88 181.88,-68 249.62,-68 249.62,-88"/>
<text text-anchor="middle" x="215.75" y="-74.5" font-family="Helvetica,sans-Serif" font-size="10.00">PrivateBase</text>
</a>
</g>
</g>
<!-- Node14&#45;&gt;Node9 -->
<g id="edge4" class="edge">
<title>Node14&#45;&gt;Node9</title>
<g id="a_edge4"><a xlink:title=" ">
<path fill="none" stroke="#8b1a1a" d="M228.38,-58.88C237.05,-46.44 248.21,-30.43 255.17,-20.44"/>
<polygon fill="#8b1a1a" stroke="#8b1a1a" points="225.19,-56.34 222.34,-66.54 230.93,-60.34 225.19,-56.34"/>
</a>
</g>
</g>
<!-- Node15 -->
<g id="Node000015" class="node">
<title>Node15</title>
<g id="a_Node000015"><a xlink:title=" ">
<polygon fill="#e0e0e0" stroke="#999999" points="349.38,-88 268.12,-88 268.12,-68 349.38,-68 349.38,-88"/>
<text text-anchor="middle" x="308.75" y="-74.5" font-family="Helvetica,sans-Serif" font-size="10.00">Undocumented</text>
</a>
</g>
</g>
<!-- Node15&#45;&gt;Node9 -->
<g id="edge5" class="edge">
<title>Node15&#45;&gt;Node9</title>
<g id="a_edge5"><a xlink:title=" ">
<path fill="none" stroke="#63b8ff" d="M295.85,-58.88C286.99,-46.44 275.59,-30.43 268.47,-20.44"/>
<polygon fill="#63b8ff" stroke="#63b8ff" points="293.36,-60.43 302.02,-66.54 299.07,-56.37 293.36,-60.43"/>
</a>
</g>
</g>
<!-- Node16 -->
<g id="node7" class="node">
<title>Node16</title>
<g id="a_node7"><a xlink:title=" ">
<polygon fill="white" stroke="#666666" points="438.12,-88 367.38,-88 367.38,-68 438.12,-68 438.12,-88"/>
<text text-anchor="middle" x="402.75" y="-74.5" font-family="Helvetica,sans-Serif" font-size="10.00">Templ&lt; int &gt;</text>
</a>
</g>
</g>
<!-- Node16&#45;&gt;Node9 -->
<g id="edge6" class="edge">
<title>Node16&#45;&gt;Node9</title>
<g id="a_edge6"><a xlink:title=" ">
<path fill="none" stroke="#63b8ff" d="M372.72,-62.94C345.35,-50.13 305.67,-31.56 281.91,-20.44"/>
<polygon fill="#63b8ff" stroke="#63b8ff" points="371.01,-66.47 381.55,-67.54 373.98,-60.13 371.01,-66.47"/>
</a>
</g>
</g>
<!-- Node17 -->
<g id="node8" class="node">
<title>Node17</title>
<g id="a_node8"><a xlink:title=" ">
<polygon fill="white" stroke="#666666" points="435.5,-156 370,-156 370,-136 435.5,-136 435.5,-156"/>
<text text-anchor="middle" x="402.75" y="-142.5" font-family="Helvetica,sans-Serif" font-size="10.00">Templ&lt; T &gt;</text>
</a>
</g>
</g>
<!-- Node17&#45;&gt;Node16 -->
<g id="edge7" class="edge">
<title>Node17&#45;&gt;Node16</title>
<g id="a_edge7"><a xlink:title=" ">
<path fill="none" stroke="orange" stroke-dasharray="5,2" d="M402.75,-124.65C402.75,-112.58 402.75,-97.84 402.75,-88.44"/>
<polygon fill="orange" stroke="orange" points="399.25,-124.54 402.75,-134.54 406.25,-124.54 399.25,-124.54"/>
</a>
</g>
<text text-anchor="middle" x="417" y="-108.5" font-family="Helvetica,sans-Serif" font-size="10.00" fill="grey">&lt; int &gt;</text>
</g>
<!-- Node18 -->
<g id="node9" class="node">
<title>Node18</title>
<g id="a_node9"><a xlink:title=" ">
<polygon fill="white" stroke="#666666" points="495,-88 456.5,-88 456.5,-68 495,-68 495,-88"/>
<text text-anchor="middle" x="475.75" y="-74.5" font-family="Helvetica,sans-Serif" font-size="10.00">Used</text>
</a>
</g>
</g>
<!-- Node18&#45;&gt;Node9 -->
<g id="edge8" class="edge">
<title>Node18&#45;&gt;Node9</title>
<g id="a_edge8"><a xlink:title=" ">
<path fill="none" stroke="#9a32cd" stroke-dasharray="5,2" d="M445.7,-67.68C383.52,-48.46 322.47,-29.67 288.41,-19.2"/>
<polygon fill="#9a32cd" stroke="#9a32cd" points="444.51,-71.28 455.1,-70.89 446.58,-64.6 444.51,-71.28"/>
</a>
</g>
<text text-anchor="middle" x="414.38" y="-40.5" font-family="Helvetica,sans-Serif" font-size="10.00" fill="grey">m_usedClass</text>
</g>
</g>
</svg>
