<?xml version="1.0" encoding="UTF-8" standalone="no"?>
<!DOCTYPE svg PUBLIC "-//W3C//DTD SVG 1.1//EN"
 "http://www.w3.org/Graphics/SVG/1.1/DTD/svg11.dtd">
<!-- Generated by graphviz version 7.0.6 (20230106.0513)
 -->
<!-- Title: Graphical Class Hierarchy Pages: 1 -->
<svg width="344pt" height="64pt"
 viewBox="0.00 0.00 344.00 64.00" xmlns="http://www.w3.org/2000/svg" xmlns:xlink="http://www.w3.org/1999/xlink">
<g id="graph0" class="graph" transform="scale(1 1) rotate(0) translate(4 60)">
<title>Graphical Class Hierarchy</title>
<!-- Node0 -->
<g id="node1" class="node">
<title>Node0</title>
<g id="a_node1"><a xlink:href="classbit7z_1_1_bit_generic_item.html" target="_top" xlink:title="The BitGenericItem interface class represents a generic item (either inside or outside an archive).">
<polygon fill="white" stroke="#666666" points="81,-37 0,-37 0,-18 81,-18 81,-37"/>
<text text-anchor="middle" x="40.5" y="-25" font-family="Helvetica,sans-Serif" font-size="10.00">BitGenericItem</text>
</a>
</g>
</g>
<!-- Node1 -->
<g id="node2" class="node">
<title>Node1</title>
<g id="a_node2"><a xlink:href="classbit7z_1_1_bit_archive_item.html" target="_top" xlink:title="The BitArchiveItem class represents a generic item inside an archive.">
<polygon fill="white" stroke="#666666" points="196,-37 117,-37 117,-18 196,-18 196,-37"/>
<text text-anchor="middle" x="156.5" y="-25" font-family="Helvetica,sans-Serif" font-size="10.00">BitArchiveItem</text>
</a>
</g>
</g>
<!-- Node0&#45;&gt;Node1 -->
<g id="edge1" class="edge">
<title>Node0&#45;&gt;Node1</title>
<path fill="none" stroke="#63b8ff" d="M92.88,-27.5C100.85,-27.5 108.97,-27.5 116.61,-27.5"/>
<polygon fill="#63b8ff" stroke="#63b8ff" points="92.89,-24 82.89,-27.5 92.89,-31 92.89,-24"/>
</g>
<!-- Node2 -->
<g id="node3" class="node">
<title>Node2</title>
<g id="a_node3"><a xlink:href="classbit7z_1_1_bit_archive_item_info.html" target="_top" xlink:title="The BitArchiveItemInfo class represents an archived item and that stores all its properties for later...">
<polygon fill="white" stroke="#666666" points="331,-56 237,-56 237,-37 331,-37 331,-56"/>
<text text-anchor="middle" x="284" y="-44" font-family="Helvetica,sans-Serif" font-size="10.00">BitArchiveItemInfo</text>
</a>
</g>
</g>
<!-- Node1&#45;&gt;Node2 -->
<g id="edge2" class="edge">
<title>Node1&#45;&gt;Node2</title>
<path fill="none" stroke="#63b8ff" d="M207.31,-35.04C217.01,-36.51 227.15,-38.04 236.73,-39.49"/>
<polygon fill="#63b8ff" stroke="#63b8ff" points="208.09,-31.62 197.67,-33.58 207.04,-38.54 208.09,-31.62"/>
</g>
<!-- Node3 -->
<g id="node4" class="node">
<title>Node3</title>
<g id="a_node4"><a xlink:href="classbit7z_1_1_bit_archive_item_offset.html" target="_top" xlink:title="The BitArchiveItemOffset class represents an archived item but doesn&#39;t store its properties.">
<polygon fill="white" stroke="#666666" points="336,-19 232,-19 232,0 336,0 336,-19"/>
<text text-anchor="middle" x="284" y="-7" font-family="Helvetica,sans-Serif" font-size="10.00">BitArchiveItemOffset</text>
</a>
</g>
</g>
<!-- Node1&#45;&gt;Node3 -->
<g id="edge3" class="edge">
<title>Node1&#45;&gt;Node3</title>
<path fill="none" stroke="#63b8ff" d="M207.57,-20.32C215.52,-19.18 223.76,-18 231.74,-16.85"/>
<polygon fill="#63b8ff" stroke="#63b8ff" points="207.08,-16.85 197.68,-21.74 208.07,-23.78 207.08,-16.85"/>
</g>
</g>
</svg>
