<?xml version="1.0" encoding="UTF-8" standalone="no"?>
<!DOCTYPE svg PUBLIC "-//W3C//DTD SVG 1.1//EN"
 "http://www.w3.org/Graphics/SVG/1.1/DTD/svg11.dtd">
<!-- Generated by graphviz version 8.1.0 (20230707.0739)
 -->
<!-- Title: Graphical Class Hierarchy Pages: 1 -->
<svg width="589pt" height="192pt"
 viewBox="0.00 0.00 588.75 192.00" xmlns="http://www.w3.org/2000/svg" xmlns:xlink="http://www.w3.org/1999/xlink">
<g id="graph0" class="graph" transform="scale(1 1) rotate(0) translate(4 188)">
<title>Graphical Class Hierarchy</title>
<!-- Node0 -->
<g id="Node000000" class="node">
<title>Node0</title>
<g id="a_Node000000"><a xlink:href="classbit7z_1_1_bit_abstract_archive_handler.html" target="_top" xlink:title="Abstract class representing a generic archive handler.">
<polygon fill="white" stroke="#666666" points="129.25,-96 0,-96 0,-76 129.25,-76 129.25,-96"/>
<text text-anchor="middle" x="64.62" y="-82.5" font-family="Helvetica,sans-Serif" font-size="10.00">BitAbstractArchiveHandler</text>
</a>
</g>
</g>
<!-- Node1 -->
<g id="Node000001" class="node">
<title>Node1</title>
<g id="a_Node000001"><a xlink:href="classbit7z_1_1_bit_abstract_archive_creator.html" target="_top" xlink:title="Abstract class representing a generic archive creator.">
<polygon fill="white" stroke="#666666" points="293,-134 165.25,-134 165.25,-114 293,-114 293,-134"/>
<text text-anchor="middle" x="229.12" y="-120.5" font-family="Helvetica,sans-Serif" font-size="10.00">BitAbstractArchiveCreator</text>
</a>
</g>
</g>
<!-- Node0&#45;&gt;Node1 -->
<g id="edge1_Node000000_Node000001" class="edge">
<title>Node0&#45;&gt;Node1</title>
<g id="a_edge1_Node000000_Node000001"><a xlink:title=" ">
<path fill="none" stroke="#63b8ff" d="M121.15,-98.98C141.47,-103.74 164.18,-109.05 183.44,-113.55"/>
<polygon fill="#63b8ff" stroke="#63b8ff" points="121.99,-95.35 111.46,-96.48 120.4,-102.17 121.99,-95.35"/>
</a>
</g>
</g>
<!-- Node8 -->
<g id="Node000008" class="node">
<title>Node8</title>
<g id="a_Node000008"><a xlink:href="classbit7z_1_1_bit_abstract_archive_opener.html" target="_top" xlink:title="The BitAbstractArchiveOpener abstract class represents a generic archive opener.">
<polygon fill="white" stroke="#666666" points="293,-58 165.25,-58 165.25,-38 293,-38 293,-58"/>
<text text-anchor="middle" x="229.12" y="-44.5" font-family="Helvetica,sans-Serif" font-size="10.00">BitAbstractArchiveOpener</text>
</a>
</g>
</g>
<!-- Node0&#45;&gt;Node8 -->
<g id="edge7_Node000000_Node000008" class="edge">
<title>Node0&#45;&gt;Node8</title>
<g id="a_edge7_Node000000_Node000008"><a xlink:title=" ">
<path fill="none" stroke="#63b8ff" d="M121.15,-73.02C141.47,-68.26 164.18,-62.95 183.44,-58.45"/>
<polygon fill="#63b8ff" stroke="#63b8ff" points="120.4,-69.83 111.46,-75.52 121.99,-76.65 120.4,-69.83"/>
</a>
</g>
</g>
<!-- Node2 -->
<g id="Node000002" class="node">
<title>Node2</title>
<g id="a_Node000002"><a xlink:href="classbit7z_1_1_bit_compressor.html" target="_top" xlink:title=" ">
<polygon fill="white" stroke="#666666" points="445.5,-184 332,-184 332,-152 445.5,-152 445.5,-184"/>
<text text-anchor="start" x="340" y="-170.5" font-family="Helvetica,sans-Serif" font-size="10.00">BitCompressor&lt; const</text>
<text text-anchor="middle" x="388.75" y="-158.5" font-family="Helvetica,sans-Serif" font-size="10.00"> tstring &amp; &gt;</text>
</a>
</g>
</g>
<!-- Node1&#45;&gt;Node2 -->
<g id="edge2_Node000001_Node000002" class="edge">
<title>Node1&#45;&gt;Node2</title>
<g id="a_edge2_Node000001_Node000002"><a xlink:title=" ">
<path fill="none" stroke="#63b8ff" d="M277.71,-137.28C294.66,-142.02 313.92,-147.39 331.54,-152.31"/>
<polygon fill="#63b8ff" stroke="#63b8ff" points="279.05,-133.74 268.48,-134.43 277.17,-140.49 279.05,-133.74"/>
</a>
</g>
</g>
<!-- Node4 -->
<g id="Node000004" class="node">
<title>Node4</title>
<g id="a_Node000004"><a xlink:href="classbit7z_1_1_bit_archive_writer.html" target="_top" xlink:title="The BitArchiveWriter class allows creating new archives or updating old ones with new items.">
<polygon fill="white" stroke="#666666" points="431.62,-96 345.88,-96 345.88,-76 431.62,-76 431.62,-96"/>
<text text-anchor="middle" x="388.75" y="-82.5" font-family="Helvetica,sans-Serif" font-size="10.00">BitArchiveWriter</text>
</a>
</g>
</g>
<!-- Node1&#45;&gt;Node4 -->
<g id="edge4_Node000001_Node000004" class="edge">
<title>Node1&#45;&gt;Node4</title>
<g id="a_edge4_Node000001_Node000004"><a xlink:title=" ">
<path fill="none" stroke="#63b8ff" d="M284.16,-110.97C304.21,-106.14 326.64,-100.73 345.49,-96.19"/>
<polygon fill="#63b8ff" stroke="#63b8ff" points="283.52,-107.77 274.61,-113.52 285.16,-114.57 283.52,-107.77"/>
</a>
</g>
</g>
<!-- Node7 -->
<g id="Node000007" class="node">
<title>Node7</title>
<g id="a_Node000007"><a xlink:href="classbit7z_1_1_bit_compressor.html" target="_top" xlink:title="The BitCompressor template class allows compressing files into archives.">
<polygon fill="white" stroke="#666666" points="448.5,-134 329,-134 329,-114 448.5,-114 448.5,-134"/>
<text text-anchor="middle" x="388.75" y="-120.5" font-family="Helvetica,sans-Serif" font-size="10.00">BitCompressor&lt; Input &gt;</text>
</a>
</g>
</g>
<!-- Node1&#45;&gt;Node7 -->
<g id="edge6_Node000001_Node000007" class="edge">
<title>Node1&#45;&gt;Node7</title>
<g id="a_edge6_Node000001_Node000007"><a xlink:title=" ">
<path fill="none" stroke="#63b8ff" d="M304.08,-124C312.31,-124 320.61,-124 328.62,-124"/>
<polygon fill="#63b8ff" stroke="#63b8ff" points="304.33,-120.5 294.33,-124 304.33,-127.5 304.33,-120.5"/>
</a>
</g>
</g>
<!-- Node3 -->
<g id="Node000003" class="node">
<title>Node3</title>
<g id="a_Node000003"><a xlink:href="classbit7z_1_1_bit_file_compressor.html" target="_top" xlink:title="The BitFileCompressor class allows compressing files and directories.">
<polygon fill="white" stroke="#666666" points="580.75,-178 484.5,-178 484.5,-158 580.75,-158 580.75,-178"/>
<text text-anchor="middle" x="532.62" y="-164.5" font-family="Helvetica,sans-Serif" font-size="10.00">BitFileCompressor</text>
</a>
</g>
</g>
<!-- Node2&#45;&gt;Node3 -->
<g id="edge3_Node000002_Node000003" class="edge">
<title>Node2&#45;&gt;Node3</title>
<g id="a_edge3_Node000002_Node000003"><a xlink:title=" ">
<path fill="none" stroke="#63b8ff" d="M456.66,-168C465.96,-168 475.35,-168 484.2,-168"/>
<polygon fill="#63b8ff" stroke="#63b8ff" points="456.82,-164.5 446.82,-168 456.82,-171.5 456.82,-164.5"/>
</a>
</g>
</g>
<!-- Node5 -->
<g id="Node000005" class="node">
<title>Node5</title>
<g id="a_Node000005"><a xlink:href="classbit7z_1_1_bit_archive_editor.html" target="_top" xlink:title="The BitArchiveEditor class allows creating new file archives or updating old ones.">
<polygon fill="white" stroke="#666666" points="575.12,-96 490.12,-96 490.12,-76 575.12,-76 575.12,-96"/>
<text text-anchor="middle" x="532.62" y="-82.5" font-family="Helvetica,sans-Serif" font-size="10.00">BitArchiveEditor</text>
</a>
</g>
</g>
<!-- Node4&#45;&gt;Node5 -->
<g id="edge5_Node000004_Node000005" class="edge">
<title>Node4&#45;&gt;Node5</title>
<g id="a_edge5_Node000004_Node000005"><a xlink:title=" ">
<path fill="none" stroke="#63b8ff" d="M442.51,-86C458.13,-86 475.02,-86 489.85,-86"/>
<polygon fill="#63b8ff" stroke="#63b8ff" points="442.93,-82.5 432.93,-86 442.93,-89.5 442.93,-82.5"/>
</a>
</g>
</g>
<!-- Node9 -->
<g id="Node000009" class="node">
<title>Node9</title>
<g id="a_Node000009"><a xlink:href="classbit7z_1_1_bit_archive_reader.html" target="_top" xlink:title="The BitArchiveReader class allows reading metadata of archives, as well as extracting them.">
<polygon fill="white" stroke="#666666" points="433.88,-20 343.62,-20 343.62,0 433.88,0 433.88,-20"/>
<text text-anchor="middle" x="388.75" y="-6.5" font-family="Helvetica,sans-Serif" font-size="10.00">BitArchiveReader</text>
</a>
</g>
</g>
<!-- Node8&#45;&gt;Node9 -->
<g id="edge8_Node000008_Node000009" class="edge">
<title>Node8&#45;&gt;Node9</title>
<g id="a_edge8_Node000008_Node000009"><a xlink:title=" ">
<path fill="none" stroke="#63b8ff" d="M284.26,-34.95C303.9,-30.22 325.81,-24.93 344.4,-20.45"/>
<polygon fill="#63b8ff" stroke="#63b8ff" points="283.52,-31.77 274.61,-37.52 285.16,-38.57 283.52,-31.77"/>
</a>
</g>
</g>
<!-- Node11 -->
<g id="Node000011" class="node">
<title>Node11</title>
<g id="a_Node000011"><a xlink:href="classbit7z_1_1_bit_extractor.html" target="_top" xlink:title="The BitExtractor template class allows extracting the content of archives from supported input types.">
<polygon fill="white" stroke="#666666" points="442.12,-58 335.38,-58 335.38,-38 442.12,-38 442.12,-58"/>
<text text-anchor="middle" x="388.75" y="-44.5" font-family="Helvetica,sans-Serif" font-size="10.00">BitExtractor&lt; Input &gt;</text>
</a>
</g>
</g>
<!-- Node8&#45;&gt;Node11 -->
<g id="edge9_Node000008_Node000011" class="edge">
<title>Node8&#45;&gt;Node11</title>
<g id="a_edge9_Node000008_Node000011"><a xlink:title=" ">
<path fill="none" stroke="#63b8ff" d="M304.16,-48C314.63,-48 325.21,-48 335.16,-48"/>
<polygon fill="#63b8ff" stroke="#63b8ff" points="304.33,-44.5 294.33,-48 304.33,-51.5 304.33,-44.5"/>
</a>
</g>
</g>
<!-- Node10 -->
<g id="Node000010" class="node">
<title>Node10</title>
<g id="a_Node000010"><a xlink:href="classbit7z_1_1_bit_input_archive.html" target="_top" xlink:title="The BitInputArchive class, given a handler object, allows reading/extracting the content of archives.">
<polygon fill="white" stroke="#666666" points="269.38,-20 188.88,-20 188.88,0 269.38,0 269.38,-20"/>
<text text-anchor="middle" x="229.12" y="-6.5" font-family="Helvetica,sans-Serif" font-size="10.00">BitInputArchive</text>
</a>
</g>
</g>
<!-- Node10&#45;&gt;Node9 -->
<g id="edge10_Node000010_Node000009" class="edge">
<title>Node10&#45;&gt;Node9</title>
<g id="a_edge10_Node000010_Node000009"><a xlink:title=" ">
<path fill="none" stroke="#63b8ff" d="M280.39,-10C300.61,-10 323.73,-10 343.32,-10"/>
<polygon fill="#63b8ff" stroke="#63b8ff" points="280.49,-6.5 270.49,-10 280.49,-13.5 280.49,-6.5"/>
</a>
</g>
</g>
<!-- Node6 -->
<g id="Node000006" class="node">
<title>Node6</title>
<g id="a_Node000006"><a xlink:href="classbit7z_1_1_bit_output_archive.html" target="_top" xlink:title="The BitOutputArchive class, given a creator object, allows creating new archives.">
<polygon fill="white" stroke="#666666" points="273.5,-96 184.75,-96 184.75,-76 273.5,-76 273.5,-96"/>
<text text-anchor="middle" x="229.12" y="-82.5" font-family="Helvetica,sans-Serif" font-size="10.00">BitOutputArchive</text>
</a>
</g>
</g>
<!-- Node6&#45;&gt;Node4 -->
<g id="edge11_Node000006_Node000004" class="edge">
<title>Node6&#45;&gt;Node4</title>
<g id="a_edge11_Node000006_Node000004"><a xlink:title=" ">
<path fill="none" stroke="#63b8ff" d="M284.44,-86C304.42,-86 326.73,-86 345.49,-86"/>
<polygon fill="#63b8ff" stroke="#63b8ff" points="284.61,-82.5 274.61,-86 284.61,-89.5 284.61,-82.5"/>
</a>
</g>
</g>
</g>
</svg>
