<?xml version="1.0" encoding="UTF-8" standalone="no"?>
<!DOCTYPE svg PUBLIC "-//W3C//DTD SVG 1.1//EN"
 "http://www.w3.org/Graphics/SVG/1.1/DTD/svg11.dtd">
<!-- Generated by graphviz version 15.0.0 (20260523.1842)
 -->
<!-- Title: Graphical Class Hierarchy Pages: 1 -->
<svg width="349pt" height="66pt"
 viewBox="0.00 0.00 349.00 66.00" xmlns="http://www.w3.org/2000/svg" xmlns:xlink="http://www.w3.org/1999/xlink">
<g id="graph0" class="graph" transform="scale(1 1) rotate(0) translate(4 62)">
<title>Graphical Class Hierarchy</title>
<!-- Node0 -->
<g id="Node000000" class="node">
<title>Node0</title>
<g id="a_Node000000"><a xlink:href="classbit7z_1_1_bit_generic_item.html" target="_top" xlink:title="The BitGenericItem interface class represents a generic item (either inside or outside an archive).">
<polygon fill="white" stroke="#666666" points="81.25,-39 0,-39 0,-19 81.25,-19 81.25,-39"/>
<text xml:space="preserve" text-anchor="middle" x="40.62" y="-25.5" font-family="Helvetica,sans-Serif" font-size="10.00">BitGenericItem</text>
</a>
</g>
</g>
<!-- Node1 -->
<g id="Node000001" class="node">
<title>Node1</title>
<g id="a_Node000001"><a xlink:href="classbit7z_1_1_bit_archive_item.html" target="_top" xlink:title="The BitArchiveItem class represents a generic item inside an archive.">
<polygon fill="white" stroke="#666666" points="197.75,-39 117.25,-39 117.25,-19 197.75,-19 197.75,-39"/>
<text xml:space="preserve" text-anchor="middle" x="157.5" y="-25.5" font-family="Helvetica,sans-Serif" font-size="10.00">BitArchiveItem</text>
</a>
</g>
</g>
<!-- Node0&#45;&gt;Node1 -->
<g id="edge16_Node000000_Node000001" class="edge">
<title>Node0&#45;&gt;Node1</title>
<g id="a_edge16_Node000000_Node000001"><a xlink:title=" ">
<path fill="none" stroke="#63b8ff" d="M92.82,-29C100.96,-29 109.28,-29 117.1,-29"/>
<polygon fill="#63b8ff" stroke="#63b8ff" points="92.99,-25.5 82.99,-29 92.99,-32.5 92.99,-25.5"/>
</a>
</g>
</g>
<!-- Node2 -->
<g id="Node000002" class="node">
<title>Node2</title>
<g id="a_Node000002"><a xlink:href="classbit7z_1_1_bit_archive_item_info.html" target="_top" xlink:title="The BitArchiveItemInfo class represents an archived item and that stores all its properties for later...">
<polygon fill="white" stroke="#666666" points="335.62,-58 238.62,-58 238.62,-38 335.62,-38 335.62,-58"/>
<text xml:space="preserve" text-anchor="middle" x="287.12" y="-44.5" font-family="Helvetica,sans-Serif" font-size="10.00">BitArchiveItemInfo</text>
</a>
</g>
</g>
<!-- Node1&#45;&gt;Node2 -->
<g id="edge17_Node000001_Node000002" class="edge">
<title>Node1&#45;&gt;Node2</title>
<g id="a_edge17_Node000001_Node000002"><a xlink:title=" ">
<path fill="none" stroke="#63b8ff" d="M209.54,-36.6C219.06,-38.02 228.98,-39.49 238.4,-40.89"/>
<polygon fill="#63b8ff" stroke="#63b8ff" points="210.09,-33.14 199.68,-35.13 209.05,-40.06 210.09,-33.14"/>
</a>
</g>
</g>
<!-- Node3 -->
<g id="Node000003" class="node">
<title>Node3</title>
<g id="a_Node000003"><a xlink:href="classbit7z_1_1_bit_archive_item_offset.html" target="_top" xlink:title="The BitArchiveItemOffset class represents an archived item but doesn&#39;t store its properties.">
<polygon fill="white" stroke="#666666" points="340.5,-20 233.75,-20 233.75,0 340.5,0 340.5,-20"/>
<text xml:space="preserve" text-anchor="middle" x="287.12" y="-6.5" font-family="Helvetica,sans-Serif" font-size="10.00">BitArchiveItemOffset</text>
</a>
</g>
</g>
<!-- Node1&#45;&gt;Node3 -->
<g id="edge18_Node000001_Node000003" class="edge">
<title>Node1&#45;&gt;Node3</title>
<g id="a_edge18_Node000001_Node000003"><a xlink:title=" ">
<path fill="none" stroke="#63b8ff" d="M209.44,-21.42C217.3,-20.25 225.43,-19.04 233.33,-17.86"/>
<polygon fill="#63b8ff" stroke="#63b8ff" points="209.05,-17.94 199.68,-22.87 210.09,-24.86 209.05,-17.94"/>
</a>
</g>
</g>
</g>
</svg>
