<?xml version="1.0" encoding="UTF-8" standalone="no"?>
<!DOCTYPE svg PUBLIC "-//W3C//DTD SVG 1.1//EN"
 "http://www.w3.org/Graphics/SVG/1.1/DTD/svg11.dtd">
<!-- Generated by graphviz version 15.0.0 (20260523.1842)
 -->
<!-- Title: Graphical Class Hierarchy Pages: 1 -->
<svg width="599pt" height="380pt"
 viewBox="0.00 0.00 599.00 380.00" xmlns="http://www.w3.org/2000/svg" xmlns:xlink="http://www.w3.org/1999/xlink">
<g id="graph0" class="graph" transform="scale(1 1) rotate(0) translate(4 376)">
<title>Graphical Class Hierarchy</title>
<!-- Node0 -->
<g id="Node000000" class="node">
<title>Node0</title>
<g id="a_Node000000"><a xlink:href="classbit7z_1_1_bit_abstract_archive_handler.html" target="_top" xlink:title="Abstract class representing a generic archive handler.">
<polygon fill="white" stroke="#666666" points="131.5,-195 0,-195 0,-175 131.5,-175 131.5,-195"/>
<text xml:space="preserve" text-anchor="middle" x="65.75" y="-181.5" font-family="Helvetica,sans-Serif" font-size="10.00">BitAbstractArchiveHandler</text>
</a>
</g>
</g>
<!-- Node1 -->
<g id="Node000001" class="node">
<title>Node1</title>
<g id="a_Node000001"><a xlink:href="classbit7z_1_1_bit_abstract_archive_creator.html" target="_top" xlink:title="Abstract class representing a generic archive creator.">
<polygon fill="white" stroke="#666666" points="297.5,-272 167.5,-272 167.5,-252 297.5,-252 297.5,-272"/>
<text xml:space="preserve" text-anchor="middle" x="232.5" y="-258.5" font-family="Helvetica,sans-Serif" font-size="10.00">BitAbstractArchiveCreator</text>
</a>
</g>
</g>
<!-- Node0&#45;&gt;Node1 -->
<g id="edge1_Node000000_Node000001" class="edge">
<title>Node0&#45;&gt;Node1</title>
<g id="a_edge1_Node000000_Node000001"><a xlink:title=" ">
<path fill="none" stroke="#63b8ff" d="M91.73,-201.58C111.61,-214.24 140.49,-231.41 167.5,-243 174.96,-246.2 183.12,-249.07 191.05,-251.55"/>
<polygon fill="#63b8ff" stroke="#63b8ff" points="93.78,-198.74 83.48,-196.26 89.98,-204.62 93.78,-198.74"/>
</a>
</g>
</g>
<!-- Node9 -->
<g id="Node000009" class="node">
<title>Node9</title>
<g id="a_Node000009"><a xlink:href="classbit7z_1_1_bit_abstract_archive_opener.html" target="_top" xlink:title="The BitAbstractArchiveOpener abstract class represents a generic archive opener.">
<polygon fill="white" stroke="#666666" points="297.12,-118 167.88,-118 167.88,-98 297.12,-98 297.12,-118"/>
<text xml:space="preserve" text-anchor="middle" x="232.5" y="-104.5" font-family="Helvetica,sans-Serif" font-size="10.00">BitAbstractArchiveOpener</text>
</a>
</g>
</g>
<!-- Node0&#45;&gt;Node9 -->
<g id="edge8_Node000000_Node000009" class="edge">
<title>Node0&#45;&gt;Node9</title>
<g id="a_edge8_Node000000_Node000009"><a xlink:title=" ">
<path fill="none" stroke="#63b8ff" d="M99.29,-169.79C131.76,-154.62 180.77,-131.71 209.11,-118.47"/>
<polygon fill="#63b8ff" stroke="#63b8ff" points="97.92,-166.57 90.34,-173.97 100.88,-172.91 97.92,-166.57"/>
</a>
</g>
</g>
<!-- Node2 -->
<g id="Node000002" class="node">
<title>Node2</title>
<g id="a_Node000002"><a xlink:href="classbit7z_1_1_bit_compressor.html" target="_top" xlink:title=" ">
<polygon fill="white" stroke="#666666" points="452.62,-372 338.38,-372 338.38,-340 452.62,-340 452.62,-372"/>
<text xml:space="preserve" text-anchor="start" x="346.38" y="-358.5" font-family="Helvetica,sans-Serif" font-size="10.00">BitCompressor&lt; const</text>
<text xml:space="preserve" text-anchor="middle" x="395.5" y="-346.5" font-family="Helvetica,sans-Serif" font-size="10.00"> buffer_t &amp; &gt;</text>
</a>
</g>
</g>
<!-- Node1&#45;&gt;Node2 -->
<g id="edge2_Node000001_Node000002" class="edge">
<title>Node1&#45;&gt;Node2</title>
<g id="a_edge2_Node000001_Node000002"><a xlink:title=" ">
<path fill="none" stroke="#63b8ff" d="M255.54,-279.27C275.23,-294.19 305.26,-315.7 333.5,-331 339.03,-334 345.01,-336.86 350.97,-339.51"/>
<polygon fill="#63b8ff" stroke="#63b8ff" points="257.76,-276.57 247.7,-273.25 253.5,-282.12 257.76,-276.57"/>
</a>
</g>
</g>
<!-- Node3 -->
<g id="Node000003" class="node">
<title>Node3</title>
<g id="a_Node000003"><a xlink:href="classbit7z_1_1_bit_compressor.html" target="_top" xlink:title=" ">
<polygon fill="white" stroke="#666666" points="452.62,-322 338.38,-322 338.38,-290 452.62,-290 452.62,-322"/>
<text xml:space="preserve" text-anchor="start" x="346.38" y="-308.5" font-family="Helvetica,sans-Serif" font-size="10.00">BitCompressor&lt; const</text>
<text xml:space="preserve" text-anchor="middle" x="395.5" y="-296.5" font-family="Helvetica,sans-Serif" font-size="10.00"> tstring &amp; &gt;</text>
</a>
</g>
</g>
<!-- Node1&#45;&gt;Node3 -->
<g id="edge3_Node000001_Node000003" class="edge">
<title>Node1&#45;&gt;Node3</title>
<g id="a_edge3_Node000001_Node000003"><a xlink:title=" ">
<path fill="none" stroke="#63b8ff" d="M282.75,-275.46C300.21,-280.23 320,-285.64 338.01,-290.56"/>
<polygon fill="#63b8ff" stroke="#63b8ff" points="283.68,-272.09 273.11,-272.83 281.84,-278.84 283.68,-272.09"/>
</a>
</g>
</g>
<!-- Node5 -->
<g id="Node000005" class="node">
<title>Node5</title>
<g id="a_Node000005"><a xlink:href="classbit7z_1_1_bit_archive_writer.html" target="_top" xlink:title="The BitArchiveWriter class allows creating new archives or updating old ones with new items.">
<polygon fill="white" stroke="#666666" points="438.75,-234 352.25,-234 352.25,-214 438.75,-214 438.75,-234"/>
<text xml:space="preserve" text-anchor="middle" x="395.5" y="-220.5" font-family="Helvetica,sans-Serif" font-size="10.00">BitArchiveWriter</text>
</a>
</g>
</g>
<!-- Node1&#45;&gt;Node5 -->
<g id="edge5_Node000001_Node000005" class="edge">
<title>Node1&#45;&gt;Node5</title>
<g id="a_edge5_Node000001_Node000005"><a xlink:title=" ">
<path fill="none" stroke="#63b8ff" d="M289.07,-248.88C309.65,-244.03 332.64,-238.6 351.89,-234.06"/>
<polygon fill="#63b8ff" stroke="#63b8ff" points="288.32,-245.46 279.39,-251.17 289.93,-252.28 288.32,-245.46"/>
</a>
</g>
</g>
<!-- Node8 -->
<g id="Node000008" class="node">
<title>Node8</title>
<g id="a_Node000008"><a xlink:href="classbit7z_1_1_bit_compressor.html" target="_top" xlink:title="The BitCompressor template class allows compressing files into archives.">
<polygon fill="white" stroke="#666666" points="456,-272 335,-272 335,-252 456,-252 456,-272"/>
<text xml:space="preserve" text-anchor="middle" x="395.5" y="-258.5" font-family="Helvetica,sans-Serif" font-size="10.00">BitCompressor&lt; Input &gt;</text>
</a>
</g>
</g>
<!-- Node1&#45;&gt;Node8 -->
<g id="edge7_Node000001_Node000008" class="edge">
<title>Node1&#45;&gt;Node8</title>
<g id="a_edge7_Node000001_Node000008"><a xlink:title=" ">
<path fill="none" stroke="#63b8ff" d="M308.85,-262C317.47,-262 326.17,-262 334.55,-262"/>
<polygon fill="#63b8ff" stroke="#63b8ff" points="309.11,-258.5 299.11,-262 309.11,-265.5 309.11,-258.5"/>
</a>
</g>
</g>
<!-- Node4 -->
<g id="Node000004" class="node">
<title>Node4</title>
<g id="a_Node000004"><a xlink:href="classbit7z_1_1_bit_file_compressor.html" target="_top" xlink:title="The BitFileCompressor class allows compressing files and directories.">
<polygon fill="white" stroke="#666666" points="590.5,-316 493.5,-316 493.5,-296 590.5,-296 590.5,-316"/>
<text xml:space="preserve" text-anchor="middle" x="542" y="-302.5" font-family="Helvetica,sans-Serif" font-size="10.00">BitFileCompressor</text>
</a>
</g>
</g>
<!-- Node3&#45;&gt;Node4 -->
<g id="edge4_Node000003_Node000004" class="edge">
<title>Node3&#45;&gt;Node4</title>
<g id="a_edge4_Node000003_Node000004"><a xlink:title=" ">
<path fill="none" stroke="#63b8ff" d="M464.15,-306C473.92,-306 483.8,-306 493.07,-306"/>
<polygon fill="#63b8ff" stroke="#63b8ff" points="464.29,-302.5 454.29,-306 464.29,-309.5 464.29,-302.5"/>
</a>
</g>
</g>
<!-- Node6 -->
<g id="Node000006" class="node">
<title>Node6</title>
<g id="a_Node000006"><a xlink:href="classbit7z_1_1_bit_archive_editor.html" target="_top" xlink:title="The BitArchiveEditor class allows creating new file archives or updating old ones.">
<polygon fill="white" stroke="#666666" points="585.25,-234 498.75,-234 498.75,-214 585.25,-214 585.25,-234"/>
<text xml:space="preserve" text-anchor="middle" x="542" y="-220.5" font-family="Helvetica,sans-Serif" font-size="10.00">BitArchiveEditor</text>
</a>
</g>
</g>
<!-- Node5&#45;&gt;Node6 -->
<g id="edge6_Node000005_Node000006" class="edge">
<title>Node5&#45;&gt;Node6</title>
<g id="a_edge6_Node000005_Node000006"><a xlink:title=" ">
<path fill="none" stroke="#63b8ff" d="M450.42,-224C466.38,-224 483.62,-224 498.73,-224"/>
<polygon fill="#63b8ff" stroke="#63b8ff" points="450.59,-220.5 440.59,-224 450.59,-227.5 450.59,-220.5"/>
</a>
</g>
</g>
<!-- Node10 -->
<g id="Node000010" class="node">
<title>Node10</title>
<g id="a_Node000010"><a xlink:href="classbit7z_1_1_bit_extractor.html" target="_top" xlink:title=" ">
<polygon fill="white" stroke="#666666" points="445.88,-196 345.12,-196 345.12,-164 445.88,-164 445.88,-196"/>
<text xml:space="preserve" text-anchor="start" x="353.12" y="-182.5" font-family="Helvetica,sans-Serif" font-size="10.00">BitExtractor&lt; const</text>
<text xml:space="preserve" text-anchor="middle" x="395.5" y="-170.5" font-family="Helvetica,sans-Serif" font-size="10.00"> tstring &amp; &gt;</text>
</a>
</g>
</g>
<!-- Node9&#45;&gt;Node10 -->
<g id="edge9_Node000009_Node000010" class="edge">
<title>Node9&#45;&gt;Node10</title>
<g id="a_edge9_Node000009_Node000010"><a xlink:title=" ">
<path fill="none" stroke="#63b8ff" d="M265.01,-123.31C284.6,-132.7 310.39,-144.84 333.5,-155 340,-157.86 346.92,-160.79 353.69,-163.61"/>
<polygon fill="#63b8ff" stroke="#63b8ff" points="266.71,-120.24 256.18,-119.06 263.67,-126.55 266.71,-120.24"/>
</a>
</g>
</g>
<!-- Node11 -->
<g id="Node000011" class="node">
<title>Node11</title>
<g id="a_Node000011"><a xlink:href="classbit7z_1_1_bit_extractor.html" target="_top" xlink:title=" ">
<polygon fill="white" stroke="#666666" points="445.88,-146 345.12,-146 345.12,-114 445.88,-114 445.88,-146"/>
<text xml:space="preserve" text-anchor="start" x="353.12" y="-132.5" font-family="Helvetica,sans-Serif" font-size="10.00">BitExtractor&lt; const</text>
<text xml:space="preserve" text-anchor="middle" x="395.5" y="-120.5" font-family="Helvetica,sans-Serif" font-size="10.00"> buffer_t &amp; &gt;</text>
</a>
</g>
</g>
<!-- Node9&#45;&gt;Node11 -->
<g id="edge10_Node000009_Node000011" class="edge">
<title>Node9&#45;&gt;Node11</title>
<g id="a_edge10_Node000009_Node000011"><a xlink:title=" ">
<path fill="none" stroke="#63b8ff" d="M308.8,-118.29C321.1,-119.97 333.55,-121.67 345.01,-123.24"/>
<polygon fill="#63b8ff" stroke="#63b8ff" points="309.48,-114.85 299.09,-116.96 308.53,-121.78 309.48,-114.85"/>
</a>
</g>
</g>
<!-- Node12 -->
<g id="Node000012" class="node">
<title>Node12</title>
<g id="a_Node000012"><a xlink:href="classbit7z_1_1_bit_archive_reader.html" target="_top" xlink:title="The BitArchiveReader class allows reading metadata of archives, as well as extracting them.">
<polygon fill="white" stroke="#666666" points="441.75,-20 349.25,-20 349.25,0 441.75,0 441.75,-20"/>
<text xml:space="preserve" text-anchor="middle" x="395.5" y="-6.5" font-family="Helvetica,sans-Serif" font-size="10.00">BitArchiveReader</text>
</a>
</g>
</g>
<!-- Node9&#45;&gt;Node12 -->
<g id="edge11_Node000009_Node000012" class="edge">
<title>Node9&#45;&gt;Node12</title>
<g id="a_edge11_Node000009_Node000012"><a xlink:title=" ">
<path fill="none" stroke="#63b8ff" d="M252.29,-89.63C271.35,-71.9 302.39,-45.41 333.5,-29 339.78,-25.69 346.73,-22.85 353.63,-20.44"/>
<polygon fill="#63b8ff" stroke="#63b8ff" points="249.9,-87.08 245.05,-96.5 254.72,-92.16 249.9,-87.08"/>
</a>
</g>
</g>
<!-- Node14 -->
<g id="Node000014" class="node">
<title>Node14</title>
<g id="a_Node000014"><a xlink:href="classbit7z_1_1_bit_extractor.html" target="_top" xlink:title="The BitExtractor template class allows extracting the content of archives from supported input types.">
<polygon fill="white" stroke="#666666" points="449.25,-96 341.75,-96 341.75,-76 449.25,-76 449.25,-96"/>
<text xml:space="preserve" text-anchor="middle" x="395.5" y="-82.5" font-family="Helvetica,sans-Serif" font-size="10.00">BitExtractor&lt; Input &gt;</text>
</a>
</g>
</g>
<!-- Node9&#45;&gt;Node14 -->
<g id="edge12_Node000009_Node000014" class="edge">
<title>Node9&#45;&gt;Node14</title>
<g id="a_edge12_Node000009_Node000014"><a xlink:title=" ">
<path fill="none" stroke="#63b8ff" d="M308.97,-97.69C319.96,-96.19 331.07,-94.67 341.49,-93.24"/>
<polygon fill="#63b8ff" stroke="#63b8ff" points="308.53,-94.22 299.09,-99.04 309.48,-101.15 308.53,-94.22"/>
</a>
</g>
</g>
<!-- Node15 -->
<g id="Node000015" class="node">
<title>Node15</title>
<g id="a_Node000015"><a xlink:href="classbit7z_1_1_bit_nested_archive_reader.html" target="_top" xlink:title="The BitNestedArchiveReader class allows reading and extracting nested archives (e....">
<polygon fill="white" stroke="#666666" points="457.5,-58 333.5,-58 333.5,-38 457.5,-38 457.5,-58"/>
<text xml:space="preserve" text-anchor="middle" x="395.5" y="-44.5" font-family="Helvetica,sans-Serif" font-size="10.00">BitNestedArchiveReader</text>
</a>
</g>
</g>
<!-- Node9&#45;&gt;Node15 -->
<g id="edge13_Node000009_Node000015" class="edge">
<title>Node9&#45;&gt;Node15</title>
<g id="a_edge13_Node000009_Node000015"><a xlink:title=" ">
<path fill="none" stroke="#63b8ff" d="M267.47,-93.21C286.69,-85.06 311.26,-75.01 333.5,-67 341.74,-64.03 350.71,-61.09 359.17,-58.43"/>
<polygon fill="#63b8ff" stroke="#63b8ff" points="266.33,-89.89 258.51,-97.04 269.08,-96.33 266.33,-89.89"/>
</a>
</g>
</g>
<!-- Node13 -->
<g id="Node000013" class="node">
<title>Node13</title>
<g id="a_Node000013"><a xlink:href="classbit7z_1_1_bit_input_archive.html" target="_top" xlink:title="The BitInputArchive class, given a handler object, allows reading/extracting the content of archives.">
<polygon fill="white" stroke="#666666" points="273.88,-20 191.12,-20 191.12,0 273.88,0 273.88,-20"/>
<text xml:space="preserve" text-anchor="middle" x="232.5" y="-6.5" font-family="Helvetica,sans-Serif" font-size="10.00">BitInputArchive</text>
</a>
</g>
</g>
<!-- Node13&#45;&gt;Node12 -->
<g id="edge14_Node000013_Node000012" class="edge">
<title>Node13&#45;&gt;Node12</title>
<g id="a_edge14_Node000013_Node000012"><a xlink:title=" ">
<path fill="none" stroke="#63b8ff" d="M285.44,-10C305.83,-10 329.03,-10 348.77,-10"/>
<polygon fill="#63b8ff" stroke="#63b8ff" points="285.64,-6.5 275.64,-10 285.64,-13.5 285.64,-6.5"/>
</a>
</g>
</g>
<!-- Node7 -->
<g id="Node000007" class="node">
<title>Node7</title>
<g id="a_Node000007"><a xlink:href="classbit7z_1_1_bit_output_archive.html" target="_top" xlink:title="The BitOutputArchive class, given a creator object, allows creating new archives.">
<polygon fill="white" stroke="#666666" points="277.62,-234 187.38,-234 187.38,-214 277.62,-214 277.62,-234"/>
<text xml:space="preserve" text-anchor="middle" x="232.5" y="-220.5" font-family="Helvetica,sans-Serif" font-size="10.00">BitOutputArchive</text>
</a>
</g>
</g>
<!-- Node7&#45;&gt;Node5 -->
<g id="edge15_Node000007_Node000005" class="edge">
<title>Node7&#45;&gt;Node5</title>
<g id="a_edge15_Node000007_Node000005"><a xlink:title=" ">
<path fill="none" stroke="#63b8ff" d="M289.35,-224C309.86,-224 332.73,-224 351.89,-224"/>
<polygon fill="#63b8ff" stroke="#63b8ff" points="289.43,-220.5 279.43,-224 289.43,-227.5 289.43,-220.5"/>
</a>
</g>
</g>
</g>
</svg>
