<?xml version="1.0" encoding="UTF-8" standalone="no"?>
<!DOCTYPE svg PUBLIC "-//W3C//DTD SVG 1.1//EN"
 "http://www.w3.org/Graphics/SVG/1.1/DTD/svg11.dtd">
<!-- Generated by graphviz version 7.0.6 (20230106.0513)
 -->
<!-- Title: Graphical Class Hierarchy Pages: 1 -->
<svg width="591pt" height="187pt"
 viewBox="0.00 0.00 591.00 186.50" xmlns="http://www.w3.org/2000/svg" xmlns:xlink="http://www.w3.org/1999/xlink">
<g id="graph0" class="graph" transform="scale(1 1) rotate(0) translate(4 182.5)">
<title>Graphical Class Hierarchy</title>
<!-- Node0 -->
<g id="node1" class="node">
<title>Node0</title>
<g id="a_node1"><a xlink:href="classbit7z_1_1_bit_abstract_archive_handler.html" target="_top" xlink:title="Abstract class representing a generic archive handler.">
<polygon fill="white" stroke="#666666" points="130,-93 0,-93 0,-74 130,-74 130,-93"/>
<text text-anchor="middle" x="65" y="-81" font-family="Helvetica,sans-Serif" font-size="10.00">BitAbstractArchiveHandler</text>
</a>
</g>
</g>
<!-- Node1 -->
<g id="node2" class="node">
<title>Node1</title>
<g id="a_node2"><a xlink:href="classbit7z_1_1_bit_abstract_archive_creator.html" target="_top" xlink:title="Abstract class representing a generic archive creator.">
<polygon fill="white" stroke="#666666" points="294,-130 166,-130 166,-111 294,-111 294,-130"/>
<text text-anchor="middle" x="230" y="-118" font-family="Helvetica,sans-Serif" font-size="10.00">BitAbstractArchiveCreator</text>
</a>
</g>
</g>
<!-- Node0&#45;&gt;Node1 -->
<g id="edge1" class="edge">
<title>Node0&#45;&gt;Node1</title>
<path fill="none" stroke="#63b8ff" d="M120.7,-95.92C141.7,-100.68 165.36,-106.05 185.2,-110.56"/>
<polygon fill="#63b8ff" stroke="#63b8ff" points="121.68,-92.55 111.16,-93.75 120.13,-99.38 121.68,-92.55"/>
</g>
<!-- Node8 -->
<g id="node8" class="node">
<title>Node8</title>
<g id="a_node8"><a xlink:href="classbit7z_1_1_bit_abstract_archive_opener.html" target="_top" xlink:title="The BitAbstractArchiveOpener abstract class represents a generic archive opener.">
<polygon fill="white" stroke="#666666" points="294,-56 166,-56 166,-37 294,-37 294,-56"/>
<text text-anchor="middle" x="230" y="-44" font-family="Helvetica,sans-Serif" font-size="10.00">BitAbstractArchiveOpener</text>
</a>
</g>
</g>
<!-- Node0&#45;&gt;Node8 -->
<g id="edge7" class="edge">
<title>Node0&#45;&gt;Node8</title>
<path fill="none" stroke="#63b8ff" d="M120.7,-71.08C141.7,-66.32 165.36,-60.95 185.2,-56.44"/>
<polygon fill="#63b8ff" stroke="#63b8ff" points="120.13,-67.62 111.16,-73.25 121.68,-74.45 120.13,-67.62"/>
</g>
<!-- Node2 -->
<g id="node3" class="node">
<title>Node2</title>
<g id="a_node3"><a xlink:href="classbit7z_1_1_bit_compressor.html" target="_top" xlink:title=" ">
<polygon fill="white" stroke="#666666" points="447,-178.5 333,-178.5 333,-148.5 447,-148.5 447,-178.5"/>
<text text-anchor="start" x="341" y="-166.5" font-family="Helvetica,sans-Serif" font-size="10.00">BitCompressor&lt; const</text>
<text text-anchor="middle" x="390" y="-155.5" font-family="Helvetica,sans-Serif" font-size="10.00"> tstring &amp; &gt;</text>
</a>
</g>
</g>
<!-- Node1&#45;&gt;Node2 -->
<g id="edge2" class="edge">
<title>Node1&#45;&gt;Node2</title>
<path fill="none" stroke="#63b8ff" d="M278.49,-133.42C295.56,-138.07 314.99,-143.36 332.74,-148.19"/>
<polygon fill="#63b8ff" stroke="#63b8ff" points="279.67,-130.12 269.11,-130.87 277.84,-136.87 279.67,-130.12"/>
</g>
<!-- Node4 -->
<g id="node5" class="node">
<title>Node4</title>
<g id="a_node5"><a xlink:href="classbit7z_1_1_bit_archive_writer.html" target="_top" xlink:title="The BitArchiveWriter class allows creating new archives or updating old ones with new items.">
<polygon fill="white" stroke="#666666" points="433,-93 347,-93 347,-74 433,-74 433,-93"/>
<text text-anchor="middle" x="390" y="-81" font-family="Helvetica,sans-Serif" font-size="10.00">BitArchiveWriter</text>
</a>
</g>
</g>
<!-- Node1&#45;&gt;Node4 -->
<g id="edge4" class="edge">
<title>Node1&#45;&gt;Node4</title>
<path fill="none" stroke="#63b8ff" d="M284.31,-108.02C304.59,-103.27 327.4,-97.93 346.54,-93.44"/>
<polygon fill="#63b8ff" stroke="#63b8ff" points="283.75,-104.55 274.81,-110.24 285.35,-111.37 283.75,-104.55"/>
</g>
<!-- Node7 -->
<g id="node7" class="node">
<title>Node7</title>
<g id="a_node7"><a xlink:href="classbit7z_1_1_bit_compressor.html" target="_top" xlink:title="The BitCompressor template class allows compressing files into archives.">
<polygon fill="white" stroke="#666666" points="450,-130 330,-130 330,-111 450,-111 450,-130"/>
<text text-anchor="middle" x="390" y="-118" font-family="Helvetica,sans-Serif" font-size="10.00">BitCompressor&lt; Input &gt;</text>
</a>
</g>
</g>
<!-- Node1&#45;&gt;Node7 -->
<g id="edge6" class="edge">
<title>Node1&#45;&gt;Node7</title>
<path fill="none" stroke="#63b8ff" d="M305.69,-120.5C313.75,-120.5 321.88,-120.5 329.73,-120.5"/>
<polygon fill="#63b8ff" stroke="#63b8ff" points="305.87,-117 295.87,-120.5 305.87,-124 305.87,-117"/>
</g>
<!-- Node3 -->
<g id="node4" class="node">
<title>Node3</title>
<g id="a_node4"><a xlink:href="classbit7z_1_1_bit_file_compressor.html" target="_top" xlink:title="The BitFileCompressor class allows compressing files and directories.">
<polygon fill="white" stroke="#666666" points="583,-173 486,-173 486,-154 583,-154 583,-173"/>
<text text-anchor="middle" x="534.5" y="-161" font-family="Helvetica,sans-Serif" font-size="10.00">BitFileCompressor</text>
</a>
</g>
</g>
<!-- Node2&#45;&gt;Node3 -->
<g id="edge3" class="edge">
<title>Node2&#45;&gt;Node3</title>
<path fill="none" stroke="#63b8ff" d="M458.81,-163.5C467.96,-163.5 477.17,-163.5 485.86,-163.5"/>
<polygon fill="#63b8ff" stroke="#63b8ff" points="458.83,-160 448.83,-163.5 458.83,-167 458.83,-160"/>
</g>
<!-- Node5 -->
<g id="node6" class="node">
<title>Node5</title>
<g id="a_node6"><a xlink:href="classbit7z_1_1_bit_archive_editor.html" target="_top" xlink:title="The BitArchiveEditor class allows creating new file archives or updating old ones.">
<polygon fill="white" stroke="#666666" points="577.5,-93 491.5,-93 491.5,-74 577.5,-74 577.5,-93"/>
<text text-anchor="middle" x="534.5" y="-81" font-family="Helvetica,sans-Serif" font-size="10.00">BitArchiveEditor</text>
</a>
</g>
</g>
<!-- Node4&#45;&gt;Node5 -->
<g id="edge5" class="edge">
<title>Node4&#45;&gt;Node5</title>
<path fill="none" stroke="#63b8ff" d="M444.79,-83.5C460.09,-83.5 476.53,-83.5 491.05,-83.5"/>
<polygon fill="#63b8ff" stroke="#63b8ff" points="444.88,-80 434.88,-83.5 444.88,-87 444.88,-80"/>
</g>
<!-- Node9 -->
<g id="node9" class="node">
<title>Node9</title>
<g id="a_node9"><a xlink:href="classbit7z_1_1_bit_archive_reader.html" target="_top" xlink:title="The BitArchiveReader class allows reading metadata of archives, as well as extracting them.">
<polygon fill="white" stroke="#666666" points="435.5,-19 344.5,-19 344.5,0 435.5,0 435.5,-19"/>
<text text-anchor="middle" x="390" y="-7" font-family="Helvetica,sans-Serif" font-size="10.00">BitArchiveReader</text>
</a>
</g>
</g>
<!-- Node8&#45;&gt;Node9 -->
<g id="edge8" class="edge">
<title>Node8&#45;&gt;Node9</title>
<path fill="none" stroke="#63b8ff" d="M284.31,-34.02C304.59,-29.27 327.4,-23.93 346.54,-19.44"/>
<polygon fill="#63b8ff" stroke="#63b8ff" points="283.75,-30.55 274.81,-36.24 285.35,-37.37 283.75,-30.55"/>
</g>
<!-- Node11 -->
<g id="node10" class="node">
<title>Node11</title>
<g id="a_node10"><a xlink:href="classbit7z_1_1_bit_extractor.html" target="_top" xlink:title="The BitExtractor template class allows extracting the content of archives from supported input types.">
<polygon fill="white" stroke="#666666" points="443.5,-56 336.5,-56 336.5,-37 443.5,-37 443.5,-56"/>
<text text-anchor="middle" x="390" y="-44" font-family="Helvetica,sans-Serif" font-size="10.00">BitExtractor&lt; Input &gt;</text>
</a>
</g>
</g>
<!-- Node8&#45;&gt;Node11 -->
<g id="edge9" class="edge">
<title>Node8&#45;&gt;Node11</title>
<path fill="none" stroke="#63b8ff" d="M305.55,-46.5C315.93,-46.5 326.41,-46.5 336.28,-46.5"/>
<polygon fill="#63b8ff" stroke="#63b8ff" points="305.87,-43 295.87,-46.5 305.87,-50 305.87,-43"/>
</g>
<!-- Node10 -->
<g id="node11" class="node">
<title>Node10</title>
<g id="a_node11"><a xlink:href="classbit7z_1_1_bit_input_archive.html" target="_top" xlink:title="The BitInputArchive class, given a handler object, allows reading/extracting the content of archives.">
<polygon fill="white" stroke="#666666" points="270.5,-19 189.5,-19 189.5,0 270.5,0 270.5,-19"/>
<text text-anchor="middle" x="230" y="-7" font-family="Helvetica,sans-Serif" font-size="10.00">BitInputArchive</text>
</a>
</g>
</g>
<!-- Node10&#45;&gt;Node9 -->
<g id="edge10" class="edge">
<title>Node10&#45;&gt;Node9</title>
<path fill="none" stroke="#63b8ff" d="M282.25,-9.5C302.19,-9.5 324.84,-9.5 344.12,-9.5"/>
<polygon fill="#63b8ff" stroke="#63b8ff" points="282.38,-6 272.38,-9.5 282.38,-13 282.38,-6"/>
</g>
<!-- Node6 -->
<g id="node12" class="node">
<title>Node6</title>
<g id="a_node12"><a xlink:href="classbit7z_1_1_bit_output_archive.html" target="_top" xlink:title="The BitOutputArchive class, given a creator object, allows creating new archives.">
<polygon fill="white" stroke="#666666" points="274.5,-93 185.5,-93 185.5,-74 274.5,-74 274.5,-93"/>
<text text-anchor="middle" x="230" y="-81" font-family="Helvetica,sans-Serif" font-size="10.00">BitOutputArchive</text>
</a>
</g>
</g>
<!-- Node6&#45;&gt;Node4 -->
<g id="edge11" class="edge">
<title>Node6&#45;&gt;Node4</title>
<path fill="none" stroke="#63b8ff" d="M286,-83.5C305.88,-83.5 328.01,-83.5 346.64,-83.5"/>
<polygon fill="#63b8ff" stroke="#63b8ff" points="286.11,-80 276.11,-83.5 286.11,-87 286.11,-80"/>
</g>
</g>
</svg>
